<svg xmlns="http://www.w3.org/2000/svg" width="1295.523" height="801.025" viewBox="0 0 1295.523 801.025">
  <g id="OBJECTS" transform="translate(-23.98 -22.921)">
    <g id="Group_74" data-name="Group 74" transform="translate(24.714 22.921)">
      <g id="Group_73" data-name="Group 73">
        <g id="Group_50" data-name="Group 50">
          <g id="Group_18" data-name="Group 18" transform="translate(175.772 595.895)">
            <g id="Group_12" data-name="Group 12" transform="translate(115.122 56.371)">
              <path id="Path_18" data-name="Path 18" d="M248.594,398.3s-.577,2.987,3.271,8.084,6.084,9.24,9.98,6.771-4.18-5.038-5.917-14.559S248.456,392.42,248.594,398.3Z" transform="translate(-216.237 -386.568)" fill="#714800"/>
              <path id="Path_19" data-name="Path 19" d="M306.214,410.637s2.9-.913,5.557-6.72,5.238-9.745,1.213-12-2.445,6.073-10,12.125S301.1,413.555,306.214,410.637Z" transform="translate(-203.633 -386.836)" fill="#714800"/>
              <path id="Path_20" data-name="Path 20" d="M283.382,429.437a29.031,29.031,0,0,1-31.938-16.942,32.277,32.277,0,0,1-2.251-7.888c-2.791-18.194-29.062-20.121-26.327-12.971s14.633,2.38,16.968,15.763,13.877,34.48,37.205,39.866c26.393,6.092,51.017-8.651,59.771-25.218a4.51,4.51,0,0,0-1.441-5.918c-1.774-1.12-4.409-1.218-7.851,2.867-6.886,8.173-14.464,15.952-27.812,18.092-11.5,1.842,5.1-9.428,9.277-12.809s8.169-10.492-.9-7.843C298.879,419.122,294.515,427.334,283.382,429.437Z" transform="translate(-222.667 -387.772)" fill="#714800"/>
            </g>
            <g id="Group_17" data-name="Group 17" transform="translate(0 0)">
              <g id="Group_15" data-name="Group 15" transform="translate(0 28.781)">
                <g id="Group_14" data-name="Group 14">
                  <g id="Group_13" data-name="Group 13" transform="translate(27.174)">
                    <path id="Path_21" data-name="Path 21" d="M215.91,396.673c-1.578,3.273-16.721-.759-33.823-9.006S152.4,370.08,153.982,366.807s16.721.759,33.823,9.006S217.489,393.4,215.91,396.673Z" transform="translate(-151.807 -365.67)" fill="none" stroke="#0b0b0b" stroke-linecap="round" stroke-linejoin="round" stroke-width="1.41"/>
                    <path id="Path_22" data-name="Path 22" d="M154.388,366.581l-2.041,4.23c-1.578,3.274,11,12.613,28.107,20.86s32.244,12.278,33.823,9.005l2.04-4.23" transform="translate(-152.213 -365.444)" fill="none" stroke="#0b0b0b" stroke-linecap="round" stroke-linejoin="round" stroke-width="1.41"/>
                  </g>
                  <path id="Path_23" data-name="Path 23" d="M159.715,373.336,131.368,443a12.384,12.384,0,0,0,3.068,13.814c5.561,5.078,15.47,11.427,31.4,13.36a12.479,12.479,0,0,0,12.277-6.028l37.515-63.684" transform="translate(-130.444 -363.766)" fill="none" stroke="#0b0b0b" stroke-linecap="round" stroke-linejoin="round" stroke-width="1.41"/>
                </g>
                <ellipse id="Ellipse_1" data-name="Ellipse 1" cx="20.921" cy="12.227" rx="20.921" ry="12.227" transform="translate(27.354 77.45) rotate(-64.254)" fill="#f47a1d"/>
              </g>
              <g id="Group_16" data-name="Group 16" transform="translate(33.592)">
                <path id="Path_24" data-name="Path 24" d="M228.074,352.191c-.106,3.82-15.956,5.891-35.4,4.627s-35.125-5.386-35.02-9.207,15.956-5.891,35.4-4.626S228.18,348.371,228.074,352.191Z" transform="translate(-157.281 -342.614)" fill="none" stroke="#0b0b0b" stroke-linecap="round" stroke-linejoin="round" stroke-width="1.41"/>
                <path id="Path_25" data-name="Path 25" d="M157.726,346.617l-.348,3.908a4.961,4.961,0,0,0,3.342,5.012c5.595,2.158,20.1,5.169,33.321,6.118,16.16,1.16,26.546-1.037,31.653-2.626a4.442,4.442,0,0,0,3.137-5.513l-.683-2.319" transform="translate(-157.354 -341.62)" fill="none" stroke="#0b0b0b" stroke-linecap="round" stroke-linejoin="round" stroke-width="1.41"/>
              </g>
              <path id="Path_26" data-name="Path 26" d="M168.479,381.241s3.652-9.619,37.184-.588,31.294-16.122,39.968-14.139-10.091,26.239-26.044,23.1c0,0,13.172,11.8,6.269,15.505-7.937,4.254-5.245-10.439-15.164-8.01a4.346,4.346,0,0,1-.753.087C203.173,397.688,181.162,389.249,168.479,381.241Z" transform="translate(-121 -336.707)" fill="#714800"/>
              <path id="Path_27" data-name="Path 27" d="M212.644,385.667s-4.843-4.677-16.2-3.011" transform="translate(-114.057 -332.76)" fill="none" stroke="#0b0b0b" stroke-linecap="round" stroke-linejoin="round" stroke-width="1.41"/>
            </g>
          </g>
          <g id="Group_20" data-name="Group 20" transform="translate(1026.588 608.687)">
            <path id="Path_28" data-name="Path 28" d="M561.5,435.752s-12.922,13.779,3.664,32.938c18.515,21.39,44.184,8.193,48.116,4.9,0,0,10.2,6.927,19.4,6.228,0,0-13.488-5.557-15.788-13.52,0,0,2.726-26.787-20.171-38.092S561.5,435.752,561.5,435.752Z" transform="translate(-491.138 -306.756)" fill="#b26806"/>
            <g id="Group_19" data-name="Group 19">
              <path id="Path_29" data-name="Path 29" d="M568.724,458.58s-20.051.511-25.568-29.128-9.116-35.7-18.838-49.509-5.956-38.371,9.56-35.2,14.4,22.119,11.025,33.372S560,374.9,556.891,395.332s-12.481,46.278,15.753,58.1" transform="translate(-500.506 -326.653)" fill="none" stroke="#0b0b0b" stroke-linecap="round" stroke-linejoin="round" stroke-width="1.41"/>
              <path id="Path_30" data-name="Path 30" d="M570.579,466.248s-24.128-.461-28.694-24.841-10.471-38.565-27.1-59.392-12.539-50.99,4.174-51.8,18.591,18.062,18.591,18.062" transform="translate(-504.18 -330.195)" fill="none" stroke="#0b0b0b" stroke-linecap="round" stroke-linejoin="round" stroke-width="1.41"/>
              <path id="Path_31" data-name="Path 31" d="M540.589,430.694s-4.845-16.431-20.425-18.093-12.262-15.665-2.544-14.826c0,0-8.36-6.57.5-10.02,0,0-10.224-3.917-3.023-14.413" transform="translate(-502.883 -319.482)" fill="none" stroke="#0b0b0b" stroke-linecap="round" stroke-linejoin="round" stroke-width="1.41"/>
              <path id="Path_32" data-name="Path 32" d="M568.8,438.11c3.465-3.941,8.41-6.227,13.3-8.136" transform="translate(-488.134 -305.42)" fill="none" stroke="#0b0b0b" stroke-linecap="round" stroke-linejoin="round" stroke-width="1.41"/>
              <path id="Path_33" data-name="Path 33" d="M565.632,452.631a39.7,39.7,0,0,1,24.784-21.221" transform="translate(-488.922 -305.064)" fill="none" stroke="#0b0b0b" stroke-linecap="round" stroke-linejoin="round" stroke-width="1.41"/>
              <path id="Path_34" data-name="Path 34" d="M577,446.607a18.549,18.549,0,0,1,5.249-6.062,32.486,32.486,0,0,1,8.311-4.39" transform="translate(-486.099 -303.885)" fill="none" stroke="#0b0b0b" stroke-linecap="round" stroke-linejoin="round" stroke-width="1.41"/>
              <path id="Path_35" data-name="Path 35" d="M570.784,429.373a11.823,11.823,0,0,1,4.485-1.351" transform="translate(-487.643 -305.905)" fill="none" stroke="#0b0b0b" stroke-linecap="round" stroke-linejoin="round" stroke-width="1.41"/>
              <path id="Path_36" data-name="Path 36" d="M587.3,444.721a6.769,6.769,0,0,1,3.052-2.729,26.456,26.456,0,0,1,7.469-2.694" transform="translate(-483.543 -303.105)" fill="none" stroke="#0b0b0b" stroke-linecap="round" stroke-linejoin="round" stroke-width="1.41"/>
              <path id="Path_37" data-name="Path 37" d="M593.419,445.381a11.985,11.985,0,0,1,5.526-1.846" transform="translate(-482.023 -302.053)" fill="none" stroke="#0b0b0b" stroke-linecap="round" stroke-linejoin="round" stroke-width="1.41"/>
              <path id="Path_38" data-name="Path 38" d="M596.024,449.76a19.232,19.232,0,0,1,5.133-2.62" transform="translate(-481.376 -301.158)" fill="none" stroke="#0b0b0b" stroke-linecap="round" stroke-linejoin="round" stroke-width="1.41"/>
            </g>
          </g>
          <g id="Group_22" data-name="Group 22" transform="translate(9.215)">
            <path id="Path_39" data-name="Path 39" d="M114.651,45.615s.608-18.879-24.5-22.32C62.125,19.454,51.559,46.313,50.782,51.383c0,0-12.237,1.534-18.686,8.134,0,0,13.8-4.731,20.785-.268,0,0,15.637,21.919,40.3,15.292S114.651,45.615,114.651,45.615Z" transform="translate(-32.096 -22.921)" fill="#b26806"/>
            <g id="Group_21" data-name="Group 21" transform="translate(34.223 7.764)">
              <path id="Path_40" data-name="Path 40" d="M97.97,39.158s14.724-13.623,38.434,5,30.419,20.8,46.835,24.746S213.047,93.79,199.3,101.654s-25.419-7.1-30.314-17.786-9.215,12.379-20.372-5.018-21.181-43-50.189-33.233" transform="translate(-49.963 -27.847)" fill="none" stroke="#0b0b0b" stroke-linecap="round" stroke-linejoin="round" stroke-width="1.41"/>
              <path id="Path_41" data-name="Path 41" d="M96.882,36.153s18.426-15.585,37.951-.287S168.16,57.918,194.4,62.582,237.481,92.6,225.46,104.24s-25.888-1.292-25.888-1.292" transform="translate(-50.233 -29.14)" fill="none" stroke="#0b0b0b" stroke-linecap="round" stroke-linejoin="round" stroke-width="1.41"/>
              <path id="Path_42" data-name="Path 42" d="M127.284,35.134s14.488,9.143,27.287.1,19.552,3.67,11.7,9.456c0,0,10.617-.587,6.238,7.857,0,0,10.266-3.807,11.788,8.829" transform="translate(-42.684 -28.408)" fill="none" stroke="#0b0b0b" stroke-linecap="round" stroke-linejoin="round" stroke-width="1.41"/>
              <path id="Path_43" data-name="Path 43" d="M90.992,44.329c0,5.249-2.206,10.23-4.616,14.892" transform="translate(-52.842 -25.369)" fill="none" stroke="#0b0b0b" stroke-linecap="round" stroke-linejoin="round" stroke-width="1.41"/>
              <path id="Path_44" data-name="Path 44" d="M85.5,33.283a39.7,39.7,0,0,1-4.6,32.3" transform="translate(-54.201 -28.112)" fill="none" stroke="#0b0b0b" stroke-linecap="round" stroke-linejoin="round" stroke-width="1.41"/>
              <path id="Path_45" data-name="Path 45" d="M79.263,43.707a18.537,18.537,0,0,1,.06,8.018A32.545,32.545,0,0,1,75.98,60.51" transform="translate(-55.423 -25.523)" fill="none" stroke="#0b0b0b" stroke-linecap="round" stroke-linejoin="round" stroke-width="1.41"/>
              <path id="Path_46" data-name="Path 46" d="M93.958,51.184a11.832,11.832,0,0,1-2.477,3.977" transform="translate(-51.574 -23.667)" fill="none" stroke="#0b0b0b" stroke-linecap="round" stroke-linejoin="round" stroke-width="1.41"/>
              <path id="Path_47" data-name="Path 47" d="M72.326,51.167a6.772,6.772,0,0,1-.491,4.064A26.488,26.488,0,0,1,68,62.186" transform="translate(-57.403 -23.671)" fill="none" stroke="#0b0b0b" stroke-linecap="round" stroke-linejoin="round" stroke-width="1.41"/>
              <path id="Path_48" data-name="Path 48" d="M66.544,54.179a11.966,11.966,0,0,1-2.932,5.034" transform="translate(-58.494 -22.923)" fill="none" stroke="#0b0b0b" stroke-linecap="round" stroke-linejoin="round" stroke-width="1.41"/>
              <path id="Path_49" data-name="Path 49" d="M61.638,52.726a19.234,19.234,0,0,1-2.126,5.356" transform="translate(-59.512 -23.284)" fill="none" stroke="#0b0b0b" stroke-linecap="round" stroke-linejoin="round" stroke-width="1.41"/>
            </g>
          </g>
          <g id="Group_23" data-name="Group 23" transform="translate(1080.302 442.707)">
            <path id="Path_50" data-name="Path 50" d="M641.078,316.32c1.974,3.023,2.067,6.4-1,8.341A11.778,11.778,0,0,1,635.9,326a21.881,21.881,0,0,1-5.708.558,19.331,19.331,0,0,1-6-1.73,74.585,74.585,0,0,1-12.965-7.119c-2.086-1.434-2.608-2.1-5.056-1.929a17.856,17.856,0,0,1-6.055-.764,31.182,31.182,0,0,1-15.973-10.7,30.368,30.368,0,0,1-2.578-3.917c-.936-1.674-.838-1.827-2.731-2.115-3.3-.5-6.187-.8-9.24-2.336A37.439,37.439,0,0,1,558.3,286.5a6.568,6.568,0,0,1-1.824-3.277,4.843,4.843,0,0,1,.539-2.59,10.681,10.681,0,0,1,12.173-5.808S558.9,285.059,595.759,304.97,641.078,316.32,641.078,316.32Z" transform="translate(-544.915 -260.718)" fill="#0f6112"/>
            <path id="Path_51" data-name="Path 51" d="M571.617,272.07s-11.578,10.5-3.037,18.059c10.993,9.73,52.555,38.821,69.907,28.918,0,0,17.917-29.148-18.511-49.484C619.976,269.563,590.154,254.288,571.617,272.07Z" transform="translate(-542.684 -263.46)" fill="none" stroke="#0b0b0b" stroke-linecap="round" stroke-linejoin="round" stroke-width="1.452"/>
            <path id="Path_52" data-name="Path 52" d="M557.737,284c-.874.449-1.311.769-1.291,1.718.041,1.926,3.675,1.783,4.489,3.561.51,1.12-.38,2.292-.863,3.4-.786,1.81-.178,4.334,1.774,5.056,2.116.783,4.263-.851,5.765-2.418,2.71.615,4.4,3.158,5.6,5.549s.742,7.132,3.162,8.461a2.634,2.634,0,0,0,1.349.392c1.439-.059,4.071-4.025,5.461-3.635.72.2,1.1.93,1.656,1.417,1.277,1.126,3.32,1.3,3.927-.223" transform="translate(-544.917 -258.36)" fill="none" stroke="#0b0b0b" stroke-linecap="round" stroke-linejoin="round" stroke-width="1.452"/>
            <path id="Path_53" data-name="Path 53" d="M591.933,307.55c-.2.729-.2.739-.4,1.469a7.274,7.274,0,0,0-.346,3.641,2.826,2.826,0,0,0,2.737,2.226c1.086-.092,2.03-1,3.1-.8a2.532,2.532,0,0,1,1.3.806,6.314,6.314,0,0,1,1.756,3.712c.12,1.165-.1,2.336.005,3.5A3.349,3.349,0,0,0,601.9,325c1.678.687,3.437-.66,4.541-2s2.356-2.944,4.171-2.932c2.3.015,3.566,2.507,4.348,4.565a2.409,2.409,0,0,0,.712,1.144c1.07.8,2.505-.346,3.2-1.427s1.81-2.393,3.07-1.909c1.049.4,1.337,1.855,2.407,2.2s2.074-.674,2.538-1.648a8.313,8.313,0,0,0,.809-5.157" transform="translate(-536.32 -252.512)" fill="none" stroke="#0b0b0b" stroke-linecap="round" stroke-linejoin="round" stroke-width="1.452"/>
            <path id="Path_54" data-name="Path 54" d="M557.966,286.406s-10.941,5.732,2.344,19.868,54.156,33.272,65.852,28.64c0,0,5.9-2.444,6.344-5.983" transform="translate(-545.591 -257.762)" fill="none" stroke="#0b0b0b" stroke-linecap="round" stroke-linejoin="round" stroke-width="1.452"/>
            <path id="Path_55" data-name="Path 55" d="M555.024,292.022c-2,.412-3.459-.08-5.309.74s-3.233,3.082-2.088,4.724a6.008,6.008,0,0,0,2.3,1.617,11.394,11.394,0,0,1,4.406,3.694c1.427,2.2,1.6,4.946,2.993,7.165a8.445,8.445,0,0,0,5.4,3.687c1.514.311,3.159.23,4.5.979a7.665,7.665,0,0,1,2.14,2.067l5.676,7.155c1.321,1.664,3.211,3.535,5.3,3a9.959,9.959,0,0,1,1.494-.446c1.349-.124,2.325,1.166,3.126,2.221a18.389,18.389,0,0,0,7.661,5.845c1.555.637,3.825.811,4.448-.655.22-.518.311-1.278.9-1.313a.946.946,0,0,1,.69.273c3.52,3.442,5.169,8.932,11.026,9.867,2.078.332,5.7-1.811,6.28-2.283a2.35,2.35,0,0,1,2-.155c2.958.723,6.019,2.168,8.894,1.286a5.326,5.326,0,0,0,3.619-3.795,4.855,4.855,0,0,0-1.444-4.788" transform="translate(-547.21 -256.368)" fill="none" stroke="#0b0b0b" stroke-linecap="round" stroke-linejoin="round" stroke-width="1.452"/>
            <path id="Path_56" data-name="Path 56" d="M552.928,300.038s-8.92,10.484,7.847,26.677c10.459,10.1,24.8,18.293,40.693,19.7,5.567.493,12.107.628,16.545-2.5a12.679,12.679,0,0,0,4.08-4.362" transform="translate(-546.379 -254.378)" fill="none" stroke="#0b0b0b" stroke-linecap="round" stroke-linejoin="round" stroke-width="1.452"/>
            <path id="Path_57" data-name="Path 57" d="M602.044,286.589a2.6,2.6,0,1,1-2.137-2.864A2.53,2.53,0,0,1,602.044,286.589Z" transform="translate(-534.875 -258.438)" fill="#0b0b0b"/>
            <path id="Path_58" data-name="Path 58" d="M615.871,286.932a2.6,2.6,0,1,1-2.137-2.864A2.529,2.529,0,0,1,615.871,286.932Z" transform="translate(-531.442 -258.353)" fill="#0b0b0b"/>
            <path id="Path_59" data-name="Path 59" d="M597.87,275.094a2.6,2.6,0,1,1-2.137-2.864A2.529,2.529,0,0,1,597.87,275.094Z" transform="translate(-535.911 -261.293)" fill="#0b0b0b"/>
          </g>
          <g id="Group_24" data-name="Group 24" transform="translate(311.176 62.015)">
            <path id="Path_60" data-name="Path 60" d="M302.664,95.832c3.6.286,6.331,2.277,5.993,5.889a11.807,11.807,0,0,1-1.5,4.124,21.872,21.872,0,0,1-3.048,4.857,19.318,19.318,0,0,1-5.038,3.694,74.521,74.521,0,0,1-13.559,5.907c-2.41.775-3.257.78-4.616,2.822a17.873,17.873,0,0,1-4.307,4.325,31.182,31.182,0,0,1-18.233,6.1,30.56,30.56,0,0,1-4.676-.353c-1.9-.283-1.957-.454-3.343.868-2.417,2.308-4.414,4.408-7.5,5.886a37.45,37.45,0,0,1-14.383,3.157,6.582,6.582,0,0,1-3.71-.559,4.853,4.853,0,0,1-1.719-2.01,10.682,10.682,0,0,1,2.845-13.185s1.813,14.4,40.1-2.6S302.664,95.832,302.664,95.832Z" transform="translate(-221.874 -75.833)" fill="#0f6112"/>
            <path id="Path_61" data-name="Path 61" d="M223.914,124.29s1.231,15.58,12.436,13.443c14.42-2.751,62.849-17.861,65.62-37.647,0,0-12.115-32-50.477-15.6C251.493,84.486,221.174,98.75,223.914,124.29Z" transform="translate(-221.411 -79.811)" fill="none" stroke="#0b0b0b" stroke-linecap="round" stroke-linejoin="round" stroke-width="1.452"/>
            <path id="Path_62" data-name="Path 62" d="M226.8,136.051c-.18.965-.192,1.507.57,2.071,1.549,1.145,3.656-1.819,5.562-1.374,1.2.278,1.582,1.7,2.166,2.761.951,1.73,3.32,2.791,5.086,1.688,1.912-1.2,1.931-3.895,1.61-6.041,2.142-1.769,5.189-1.553,7.814-1.041s6.1,3.772,8.628,2.67a2.635,2.635,0,0,0,1.136-.828c.833-1.176-.7-5.682.462-6.545.6-.447,1.411-.306,2.133-.444,1.673-.323,3.057-1.835,2.224-3.246" transform="translate(-220.675 -68.411)" fill="none" stroke="#0b0b0b" stroke-linecap="round" stroke-linejoin="round" stroke-width="1.452"/>
            <path id="Path_63" data-name="Path 63" d="M266.379,125.644c.456.6.462.61.919,1.213a7.3,7.3,0,0,0,2.67,2.5,2.827,2.827,0,0,0,3.435-.806c.59-.916.447-2.218,1.266-2.946a2.548,2.548,0,0,1,1.432-.534,6.324,6.324,0,0,1,4.012.88c.995.618,1.785,1.51,2.774,2.136a3.347,3.347,0,0,0,3.4.333c1.568-.909,1.577-3.123,1.191-4.818s-.889-3.664.23-5.093c1.416-1.809,4.163-1.289,6.27-.649a2.427,2.427,0,0,0,1.339.135c1.287-.358,1.258-2.195.83-3.407s-.788-2.9.366-3.6c.959-.583,2.284.075,3.212-.561s.734-2.053.246-3.016a8.3,8.3,0,0,0-3.586-3.792" transform="translate(-210.823 -73.898)" fill="none" stroke="#0b0b0b" stroke-linecap="round" stroke-linejoin="round" stroke-width="1.452"/>
            <path id="Path_64" data-name="Path 64" d="M228.486,142.314s-2.152,12.163,17.155,10.29,59.438-22.519,62.92-34.607c0,0,1.677-6.167-.856-8.678" transform="translate(-220.25 -72.484)" fill="none" stroke="#0b0b0b" stroke-linecap="round" stroke-linejoin="round" stroke-width="1.452"/>
            <path id="Path_65" data-name="Path 65" d="M231.237,148.77c-.9,1.838-2.178,2.689-2.66,4.655s.463,4.443,2.462,4.539a6,6,0,0,0,2.685-.831,11.385,11.385,0,0,1,5.617-1.23c2.613.216,4.893,1.755,7.5,2.011a8.447,8.447,0,0,0,6.217-2.016c1.171-1.009,2.113-2.361,3.526-2.963a7.674,7.674,0,0,1,2.944-.429l9.131-.119c2.126-.027,4.761-.379,5.62-2.361a9.942,9.942,0,0,1,.56-1.456c.727-1.143,2.344-1.128,3.669-1.116a18.379,18.379,0,0,0,9.309-2.49c1.453-.841,2.98-2.53,2.2-3.92-.275-.491-.82-1.027-.487-1.518a.945.945,0,0,1,.638-.378c4.876-.683,10.229,1.369,14.549-2.7,1.533-1.442,2.048-5.615,2.032-6.366a2.346,2.346,0,0,1,1.1-1.678c2.379-1.9,5.4-3.438,6.454-6.253a5.324,5.324,0,0,0-.79-5.184,4.856,4.856,0,0,0-4.672-1.784" transform="translate(-220.24 -71.046)" fill="none" stroke="#0b0b0b" stroke-linecap="round" stroke-linejoin="round" stroke-width="1.452"/>
            <path id="Path_66" data-name="Path 66" d="M236.408,153.859s2.844,13.469,25.908,10.1c14.387-2.1,29.636-8.443,40.467-20.16,3.794-4.1,7.9-9.2,8.139-14.619a12.666,12.666,0,0,0-.957-5.894" transform="translate(-218.265 -69.017)" fill="none" stroke="#0b0b0b" stroke-linecap="round" stroke-linejoin="round" stroke-width="1.452"/>
            <path id="Path_67" data-name="Path 67" d="M255.878,100.925a2.6,2.6,0,1,1-3.573-.06A2.529,2.529,0,0,1,255.878,100.925Z" transform="translate(-214.537 -74.759)" fill="#0b0b0b"/>
            <path id="Path_68" data-name="Path 68" d="M264.6,90.191a2.6,2.6,0,1,1-3.573-.06A2.529,2.529,0,0,1,264.6,90.191Z" transform="translate(-212.37 -77.424)" fill="#0b0b0b"/>
            <path id="Path_69" data-name="Path 69" d="M244.23,97.2a2.6,2.6,0,1,1-3.573-.06A2.529,2.529,0,0,1,244.23,97.2Z" transform="translate(-217.428 -75.684)" fill="#0b0b0b"/>
          </g>
          <g id="Group_26" data-name="Group 26" transform="translate(881.81 27.998)">
            <path id="Path_70" data-name="Path 70" d="M491.286,106.4s-7.942-3.85-2.474-12.775c0,0-10.387-7.178-1.633-21.018,0,0-8.608-7.093,2.1-15.119,0,0,2.162-4.229-4.146-6.778,0,0,6.864-9.764,15.82-2.94s5.715,13.168,5.715,13.168a9.579,9.579,0,0,1,11.466.325c6,4.511,4.608,7.587,4.608,7.587s8.488-4.7,12.889,7.185C535.629,76.037,525,101.412,491.286,106.4Z" transform="translate(-483.671 -45.35)" fill="#e1b1b1"/>
            <g id="Group_25" data-name="Group 25" transform="translate(5.735 30.687)">
              <path id="Path_71" data-name="Path 71" d="M516.062,120.983l12.5,16.011a5.881,5.881,0,0,0,5.424,2.233c5.168-.709,14.761-3.7,20.126-15.865a5.9,5.9,0,0,0-.5-5.607l-11.129-16.883s7.25-12.685-8-30.939c0,0-11.432,26.3-46.223,30.624C488.265,100.557,497.841,119.5,516.062,120.983Z" transform="translate(-488.265 -69.933)" fill="none" stroke="#0b0b0b" stroke-linecap="round" stroke-linejoin="round" stroke-width="1.452"/>
              <path id="Path_72" data-name="Path 72" d="M510.533,112.2s6.041-3.34,11.306-6.912" transform="translate(-482.736 -61.153)" fill="none" stroke="#0b0b0b" stroke-linecap="round" stroke-linejoin="round" stroke-width="1.452"/>
            </g>
            <path id="Path_73" data-name="Path 73" d="M487.789,84.776s6.28,1.582,14.093-3.782" transform="translate(-482.648 -36.499)" fill="none" stroke="#0b0b0b" stroke-linecap="round" stroke-linejoin="round" stroke-width="1.452"/>
            <line id="Line_1" data-name="Line 1" x1="5.793" y2="4.564" transform="translate(17.204 15.591)" fill="none" stroke="#0b0b0b" stroke-linecap="round" stroke-linejoin="round" stroke-width="1.452"/>
          </g>
          <g id="Group_28" data-name="Group 28" transform="translate(59.311 414.417)">
            <path id="Path_74" data-name="Path 74" d="M98.138,263.991s2.65-8.419,12.277-4.312c0,0,5.585-11.324,20.554-4.682,0,0,5.761-9.552,15.264-.129,0,0,4.5,1.52,6.1-5.091,0,0,10.662,5.365,5.217,15.221s-12.193,7.575-12.193,7.575a9.583,9.583,0,0,1,1.352,11.392c-3.588,6.59-6.833,5.664-6.833,5.664s5.892,7.712-5.228,13.8C134.648,303.429,107.993,296.618,98.138,263.991Z" transform="translate(-65.794 -249.778)" fill="#e1b1b1"/>
            <g id="Group_27" data-name="Group 27" transform="translate(0 12.391)">
              <path id="Path_75" data-name="Path 75" d="M87.889,290.185l-14.015,14.7a5.882,5.882,0,0,0-1.418,5.692c1.456,5.008,5.815,14.063,18.632,17.6a5.9,5.9,0,0,0,5.474-1.317l15.078-13.473s13.608,5.321,29.441-12.424c0,0-27.691-7.471-37.042-41.26C104.04,259.7,86.7,271.941,87.889,290.185Z" transform="translate(-72.228 -259.704)" fill="none" stroke="#0b0b0b" stroke-linecap="round" stroke-linejoin="round" stroke-width="1.452"/>
              <path id="Path_76" data-name="Path 76" d="M84.774,284.122s4.187,5.489,8.487,10.176" transform="translate(-69.113 -253.641)" fill="none" stroke="#0b0b0b" stroke-linecap="round" stroke-linejoin="round" stroke-width="1.452"/>
            </g>
            <path id="Path_77" data-name="Path 77" d="M107.977,257.71s-.648,6.444,5.8,13.389" transform="translate(-63.356 -247.809)" fill="none" stroke="#0b0b0b" stroke-linecap="round" stroke-linejoin="round" stroke-width="1.452"/>
            <line id="Line_2" data-name="Line 2" x1="5.36" y1="5.065" transform="translate(74.203 17.731)" fill="none" stroke="#0b0b0b" stroke-linecap="round" stroke-linejoin="round" stroke-width="1.452"/>
          </g>
          <g id="Group_30" data-name="Group 30" transform="translate(51.986 78.82)">
            <path id="Path_78" data-name="Path 78" d="M185.831,139.09s4.363,9.355-5.777,9.735-10.185,7.924-16.48,4.278c-7.772-4.5-12.921-5.424-15.7-2.118-4.006,4.765-3.256,5.53-5.326,6.261-2.715.959-4.667-.412-9.47-4.734-5.091-4.583-12.237-7.2-21.2-1.055s-11.383-3.047-21.86-1.476c-6.579.987-10.04,1.542-10.04,1.542l.88-3.113s24.611-3.831,45.462-3.945c9.978-.054,25.605-.909,37.344.1C179,145.894,185.143,145.892,185.831,139.09Z" transform="translate(-62.978 -72.897)" fill="#fff"/>
            <g id="Group_29" data-name="Group 29">
              <path id="Path_79" data-name="Path 79" d="M121.626,94.357s-19.737,9.375-27.259,26.293C87.6,135.87,83.278,148.405,84.14,160.438a8.193,8.193,0,0,1-6.781,8.763,10.319,10.319,0,0,1-6.447-1.291A8.531,8.531,0,0,1,66.484,161c-.529-7.085.152-22.879,11.945-44.619,0,0,5.47-11.915,30.018-29.681C108.446,86.7,118.319,82.794,121.626,94.357Z" transform="translate(-66.36 -86.063)" fill="none" stroke="#0b0b0b" stroke-linecap="round" stroke-linejoin="round" stroke-width="1.452"/>
              <path id="Path_80" data-name="Path 80" d="M80.167,146.531s-5.574-5.765-11.461-.793" transform="translate(-65.777 -71.748)" fill="none" stroke="#0b0b0b" stroke-linecap="round" stroke-linejoin="round" stroke-width="1.452"/>
              <path id="Path_81" data-name="Path 81" d="M88.6,108.217a60.563,60.563,0,0,0-10.588,23.327" transform="translate(-63.466 -80.562)" fill="none" stroke="#0b0b0b" stroke-linecap="round" stroke-linejoin="round" stroke-width="1.452"/>
              <path id="Path_82" data-name="Path 82" d="M118.069,92.707s37.3,22.713,65.782,54.989a5.428,5.428,0,0,1,.818,5.958h0a5.41,5.41,0,0,1-5.121,3.045c-15.205-.717-75.061-3.051-98.864,3.229" transform="translate(-62.803 -84.413)" fill="none" stroke="#0b0b0b" stroke-linecap="round" stroke-linejoin="round" stroke-width="1.452"/>
            </g>
            <path id="Path_83" data-name="Path 83" d="M101.3,124.644c6.134.945,11.511-.915,12.01-4.156s-4.068-6.633-10.2-7.58-11.511.916-12.01,4.157S95.171,123.7,101.3,124.644Z" transform="translate(-60.225 -79.458)" fill="#fff" stroke="#000" stroke-width="1"/>
            <path id="Path_84" data-name="Path 84" d="M118.771,116.184c4.756,2.746,9.883,2.77,11.451.055s-1.016-7.144-5.773-9.89-9.883-2.77-11.451-.055S114.013,113.438,118.771,116.184Z" transform="translate(-54.894 -81.541)" fill="#fff" stroke="#000" stroke-width="1"/>
            <path id="Path_85" data-name="Path 85" d="M136.356,135.992c4.685,2.705,9.9,2.434,11.658-.6s-.622-7.693-5.306-10.4-9.9-2.435-11.658.6S131.672,133.287,136.356,135.992Z" transform="translate(-50.441 -76.86)" fill="#fff" stroke="#000" stroke-width="1"/>
            <path id="Path_86" data-name="Path 86" d="M112.746,138.18c5.868,0,10.624-2.336,10.624-5.217s-4.756-5.215-10.624-5.215-10.623,2.334-10.623,5.215S106.879,138.18,112.746,138.18Z" transform="translate(-57.48 -75.713)" fill="#fff" stroke="#000" stroke-width="1"/>
          </g>
          <g id="Group_32" data-name="Group 32" transform="translate(1173.445 247.114)">
            <path id="Path_87" data-name="Path 87" d="M627.95,258.441s-10.107-2.093-4.352-10.451-.266-12.9,6.42-15.769c8.255-3.54,12.072-7.118,11.084-11.321-1.426-6.059-2.488-5.916-1.836-8.014.854-2.749,3.121-3.5,9.455-4.762,6.716-1.342,13.091-5.5,13.515-16.364s9.247-7.3,14.249-16.644c3.141-5.863,4.765-8.971,4.765-8.971l1.971,2.568s-11.64,22.021-24.011,38.8c-5.921,8.033-14.575,21.071-22.4,29.877C626.576,248.9,622.907,253.825,627.95,258.441Z" transform="translate(-621.826 -153.459)" fill="#fff"/>
            <g id="Group_31" data-name="Group 31" transform="translate(3.663)">
              <path id="Path_88" data-name="Path 88" d="M703.133,241.388s4.282-21.426-4.785-37.569c-8.158-14.524-15.625-25.48-25.786-31.983a8.191,8.191,0,0,1-2.972-10.673,10.313,10.313,0,0,1,4.888-4.4,8.525,8.525,0,0,1,8.187.583c6,3.811,18.253,13.8,28.634,36.244,0,0,6.283,11.508,5.853,41.807C717.153,235.4,714.382,245.648,703.133,241.388Z" transform="translate(-613.857 -155.982)" fill="none" stroke="#0b0b0b" stroke-linecap="round" stroke-linejoin="round" stroke-width="1.452"/>
              <path id="Path_89" data-name="Path 89" d="M673.15,168.044s7.953-1.024,7.486-8.714" transform="translate(-612.746 -155.151)" fill="none" stroke="#0b0b0b" stroke-linecap="round" stroke-linejoin="round" stroke-width="1.452"/>
              <path id="Path_90" data-name="Path 90" d="M700.733,200.24a60.551,60.551,0,0,0-12.373-22.431" transform="translate(-608.969 -150.563)" fill="none" stroke="#0b0b0b" stroke-linecap="round" stroke-linejoin="round" stroke-width="1.452"/>
              <path id="Path_91" data-name="Path 91" d="M714.037,238.354s-40.5,16.324-83.4,19.87a5.426,5.426,0,0,1-5.265-2.906h0a5.407,5.407,0,0,1,.62-5.924c9.662-11.761,47.31-58.354,56.5-81.19" transform="translate(-624.761 -152.948)" fill="none" stroke="#0b0b0b" stroke-linecap="round" stroke-linejoin="round" stroke-width="1.452"/>
            </g>
            <ellipse id="Ellipse_2" data-name="Ellipse 2" cx="11.238" cy="5.937" rx="11.238" ry="5.937" transform="matrix(0.713, -0.701, 0.701, 0.713, 63.832, 59.862)" fill="none" stroke="#000" stroke-width="1"/>
            <path id="Path_92" data-name="Path 92" d="M676.66,217.576c-5.044,2.171-8.129,6.266-6.888,9.148s6.334,3.454,11.378,1.283,8.129-6.268,6.888-9.149S681.7,215.4,676.66,217.576Z" transform="translate(-609.99 -141.016)" fill="none" stroke="#000" stroke-width="1"/>
            <path id="Path_93" data-name="Path 93" d="M650.313,219.975c-4.968,2.14-7.872,6.485-6.485,9.707s6.54,4.1,11.508,1.96,7.872-6.485,6.484-9.706S655.281,217.836,650.313,219.975Z" transform="translate(-616.449 -140.384)" fill="none" stroke="#000" stroke-width="1"/>
            <path id="Path_94" data-name="Path 94" d="M662.168,199.645c-3.508,4.7-4.478,9.913-2.168,11.634s7.025-.694,10.532-5.4,4.478-9.913,2.168-11.634S665.674,194.941,662.168,199.645Z" transform="translate(-612.659 -146.619)" fill="none" stroke="#000" stroke-width="1"/>
          </g>
          <g id="Group_45" data-name="Group 45" transform="translate(1123.193 12.721)">
            <g id="Group_41" data-name="Group 41" transform="translate(79.523)">
              <g id="Group_37" data-name="Group 37" transform="translate(0 6.268)">
                <path id="Path_117" data-name="Path 117" d="M664.765,38.133A208.217,208.217,0,0,1,649.689,77.6l5.16,4.7s12.93-22.369,15.808-36.353Z" transform="translate(-644.18 -38.133)" fill="none" stroke="#0b0b0b" stroke-linecap="round" stroke-linejoin="round" stroke-width="1.393"/>
                <path id="Path_118" data-name="Path 118" d="M665.861,38.133l-7.585,1.334a172.9,172.9,0,0,1-13,37.077l5.509,1.057" transform="translate(-645.276 -38.133)" fill="none" stroke="#0b0b0b" stroke-linecap="round" stroke-linejoin="round" stroke-width="1.393"/>
                <path id="Path_119" data-name="Path 119" d="M645.276,68.9l4.8,5.179,5.869.576" transform="translate(-645.276 -30.493)" fill="none" stroke="#0b0b0b" stroke-linecap="round" stroke-linejoin="round" stroke-width="1.393"/>
              </g>
              <g id="Group_38" data-name="Group 38" transform="translate(39.451 70.188)">
                <path id="Path_120" data-name="Path 120" d="M722.838,94.53a208.247,208.247,0,0,1-42.227,1.356l-2.338,6.576s25.629,3.277,39.637.524Z" transform="translate(-676.534 -88.05)" fill="none" stroke="#0b0b0b" stroke-linecap="round" stroke-linejoin="round" stroke-width="1.393"/>
                <path id="Path_121" data-name="Path 121" d="M722.6,95.819l-4.163-6.48a172.873,172.873,0,0,1-39.22,2.347l1.156,5.489" transform="translate(-676.299 -89.339)" fill="none" stroke="#0b0b0b" stroke-linecap="round" stroke-linejoin="round" stroke-width="1.393"/>
                <path id="Path_122" data-name="Path 122" d="M679.8,91.219l-2.921,6.43,1.738,5.635" transform="translate(-676.879 -88.872)" fill="none" stroke="#0b0b0b" stroke-linecap="round" stroke-linejoin="round" stroke-width="1.393"/>
              </g>
              <g id="Group_39" data-name="Group 39" transform="translate(44.124)">
                <path id="Path_123" data-name="Path 123" d="M705.81,34.671s-3.063,5.258-21.528,20.073l2.735,6.421s11.9-9.85,19.541-18.077Z" transform="translate(-679.715 -32.725)" fill="none" stroke="#0b0b0b" stroke-linecap="round" stroke-linejoin="round" stroke-width="1.393"/>
                <path id="Path_124" data-name="Path 124" d="M706.719,35.058l-7.451-1.946s-1.521,4.531-18.645,18.763l4.568,3.256" transform="translate(-680.623 -33.112)" fill="none" stroke="#0b0b0b" stroke-linecap="round" stroke-linejoin="round" stroke-width="1.393"/>
                <path id="Path_125" data-name="Path 125" d="M680.623,48.143l2.207,6.708,5.1,2.968" transform="translate(-680.623 -29.38)" fill="none" stroke="#0b0b0b" stroke-linecap="round" stroke-linejoin="round" stroke-width="1.393"/>
              </g>
              <g id="Group_40" data-name="Group 40" transform="translate(70.285 109.739)">
                <path id="Path_126" data-name="Path 126" d="M717.786,151.888s-3.494-4.982-9.229-27.949l-6.977-.2s3.972,14.927,8.247,25.31Z" transform="translate(-701.581 -120.349)" fill="none" stroke="#0b0b0b" stroke-linecap="round" stroke-linejoin="round" stroke-width="1.393"/>
                <path id="Path_127" data-name="Path 127" d="M716.4,152.4l4.885-5.954s-3.48-3.276-9.246-24.782l-4.867,2.787" transform="translate(-700.193 -120.864)" fill="none" stroke="#0b0b0b" stroke-linecap="round" stroke-linejoin="round" stroke-width="1.393"/>
                <path id="Path_128" data-name="Path 128" d="M713.425,121.824l-7.016-.8-4.828,3.387" transform="translate(-701.581 -121.023)" fill="none" stroke="#0b0b0b" stroke-linecap="round" stroke-linejoin="round" stroke-width="1.393"/>
              </g>
            </g>
            <g id="Group_44" data-name="Group 44" transform="translate(0 17.16)">
              <g id="Group_43" data-name="Group 43">
                <g id="Group_42" data-name="Group 42" transform="translate(0 36.596)">
                  <path id="Path_129" data-name="Path 129" d="M633.351,79.654s-11.241,34.855-41.814,77.916L581.57,147.5l29.9-71.323Z" transform="translate(-581.57 -76.176)" fill="none" stroke="#0b0b0b" stroke-linecap="round" stroke-linejoin="round" stroke-width="1.393"/>
                  <path id="Path_130" data-name="Path 130" d="M631.368,78.962l10.411,10.749s-6.746,17.916,4.813,26.455,18.863-4.063,18.863-4.063l3.375,4.967-46.84,51.583-32.437-11.775" transform="translate(-579.588 -75.484)" fill="none" stroke="#0b0b0b" stroke-linecap="round" stroke-linejoin="round" stroke-width="1.393"/>
                </g>
                <path id="Path_131" data-name="Path 131" d="M627.544,87.738l11.394-20.8,6.347,3.454L632.346,92.7Z" transform="translate(-570.155 -41.873)" fill="none" stroke="#0b0b0b" stroke-linecap="round" stroke-linejoin="round" stroke-width="1.393"/>
                <path id="Path_132" data-name="Path 132" d="M625.734,56.367,617.556,83.11l-9.432-1.5,7.043-21.457Z" transform="translate(-574.977 -44.498)" fill="none" stroke="#0b0b0b" stroke-linecap="round" stroke-linejoin="round" stroke-width="1.393"/>
                <path id="Path_133" data-name="Path 133" d="M622.971,56.367,627.4,60.1l-8.15,23.717" transform="translate(-572.215 -44.498)" fill="none" stroke="#0b0b0b" stroke-linecap="round" stroke-linejoin="round" stroke-width="1.393"/>
                <path id="Path_134" data-name="Path 134" d="M625.777,62.461l3.886-15.322,9.97-.281A97.854,97.854,0,0,1,632.6,74.817" transform="translate(-570.594 -46.859)" fill="none" stroke="#0b0b0b" stroke-linecap="round" stroke-linejoin="round" stroke-width="1.393"/>
                <path id="Path_135" data-name="Path 135" d="M639.848,46.859l4.345,4.535a54.524,54.524,0,0,1-4.6,20.531l-6.781,2.892-7.9,14.513" transform="translate(-570.809 -46.859)" fill="none" stroke="#0b0b0b" stroke-linecap="round" stroke-linejoin="round" stroke-width="1.393"/>
                <path id="Path_136" data-name="Path 136" d="M639.242,77.119c.106-.183,6.207,1.97,6.207,1.97l-15.179,27.723" transform="translate(-569.478 -39.348)" fill="none" stroke="#0b0b0b" stroke-linecap="round" stroke-linejoin="round" stroke-width="1.393"/>
                <path id="Path_137" data-name="Path 137" d="M644.96,78.7l.51,9.122-13.232,24.477" transform="translate(-568.989 -38.954)" fill="none" stroke="#0b0b0b" stroke-linecap="round" stroke-linejoin="round" stroke-width="1.393"/>
                <path id="Path_138" data-name="Path 138" d="M637.442,116.267,658.7,85.3s-5.853-2.756-5.978-2.584l-20.109,28.026" transform="translate(-568.897 -37.957)" fill="none" stroke="#0b0b0b" stroke-linecap="round" stroke-linejoin="round" stroke-width="1.393"/>
                <path id="Path_139" data-name="Path 139" d="M656.7,84.787l-.409,9.127-15.624,23.024" transform="translate(-566.897 -37.442)" fill="none" stroke="#0b0b0b" stroke-linecap="round" stroke-linejoin="round" stroke-width="1.393"/>
                <path id="Path_140" data-name="Path 140" d="M650.358,108.027l6.827-8.093-5.4-4.557" transform="translate(-564.49 -34.812)" fill="none" stroke="#0b0b0b" stroke-linecap="round" stroke-linejoin="round" stroke-width="1.393"/>
              </g>
              <ellipse id="Ellipse_5" data-name="Ellipse 5" cx="21.122" cy="10.612" rx="21.122" ry="10.612" transform="translate(26.543 109.859) rotate(-56.578)" fill="#f0560f"/>
            </g>
          </g>
          <g id="Group_47" data-name="Group 47" transform="translate(0 695.042)">
            <g id="Group_46" data-name="Group 46">
              <path id="Path_141" data-name="Path 141" d="M102.78,467.232s2.909-10.578-6.083-13.223S78.714,451.1,63.11,434.968s-12.959-28.826-27.768-24.6-16.661,30.413,10.843,54.479,71.67,25.917,74.314-1.057C120.5,463.795,112.83,471.464,102.78,467.232Z" transform="translate(-24.714 -396.845)" fill="none" stroke="#0b0b0b" stroke-linecap="round" stroke-linejoin="round" stroke-width="1.452"/>
              <path id="Path_142" data-name="Path 142" d="M118.384,466.322s10.283-7.561,7.456-16.512c-3.159-10-9.667-10.955-19.173-9.667s-27.561-3.222-36.176-14.016-8.13-24.65-18.441-26.423-16.627,3.7-18.823,13.2" transform="translate(-22.6 -399.373)" fill="none" stroke="#0b0b0b" stroke-linecap="round" stroke-linejoin="round" stroke-width="1.452"/>
              <path id="Path_143" data-name="Path 143" d="M56.5,408.468s4.6-4.127,7.174,1.7,6.767,13.309,15.95,17.177,24.037,1.056,25.149,10.483" transform="translate(-16.822 -397.466)" fill="none" stroke="#0b0b0b" stroke-linecap="round" stroke-linejoin="round" stroke-width="1.452"/>
            </g>
            <path id="Path_144" data-name="Path 144" d="M49.35,411.278c1.485-3.071,5.576-4.263,9.241-4.574a5.762,5.762,0,0,1,3.2.384,3.869,3.869,0,0,1,1.68,3.917c-.34,3.389-2.907,6.223-5.582,8.6-4.525,4.014-5.205,3.656-9.151,8.148-1.789,2.036-3.339,4.374-3.635,6.968a6.412,6.412,0,0,0,3.515,6.607,4.273,4.273,0,0,0,3.143.217,5.918,5.918,0,0,0,2-1.462c4.322-4.232,4.127-4.685,8.448-8.917,3.389-3.319,7.23-6.852,12.178-7.309,2.176-.2,4.745.489,5.526,2.352.659,1.572-.2,3.315-1.171,4.746-3.1,4.566-7.469,8.276-11.295,12.357-1.94,2.07-3.819,4.4-4.1,7.112-.442,4.2,3.493,8.165,8.061,8.817a13.308,13.308,0,0,0,11.956-5.043c2.566-3.293,3.435-7.4,4.908-11.21.909-2.351,2.131-5.268,4.807-5.778,6.212-1.185,7.2,4.339,7.7,7.789" transform="translate(-19.663 -397.566)" fill="none" stroke="#850000" stroke-linecap="round" stroke-linejoin="round" stroke-width="3.613"/>
          </g>
          <g id="Group_49" data-name="Group 49" transform="translate(1205.849 679.315)">
            <g id="Group_48" data-name="Group 48" transform="translate(0 0)">
              <path id="Path_145" data-name="Path 145" d="M715.645,410.859s-10.579-2.909-13.223,6.083-2.91,17.983-19.042,33.587-28.827,12.959-24.6,27.768,30.413,16.661,54.479-10.843,25.917-71.67-1.059-74.314C712.206,393.141,719.876,400.809,715.645,410.859Z" transform="translate(-645.258 -385.193)" fill="none" stroke="#0b0b0b" stroke-linecap="round" stroke-linejoin="round" stroke-width="1.452"/>
              <path id="Path_146" data-name="Path 146" d="M714.734,394.722s-7.56-10.282-16.511-7.456c-10,3.159-10.956,9.667-9.667,19.173S685.333,434,674.539,442.614s-24.65,8.13-26.423,18.441,3.7,16.627,13.2,18.823" transform="translate(-647.785 -386.774)" fill="none" stroke="#0b0b0b" stroke-linecap="round" stroke-linejoin="round" stroke-width="1.452"/>
              <path id="Path_147" data-name="Path 147" d="M656.88,447.69s-4.127-4.6,1.7-7.174,13.311-6.766,17.177-15.95,1.057-24.037,10.484-25.149" transform="translate(-645.879 -383.635)" fill="none" stroke="#0b0b0b" stroke-linecap="round" stroke-linejoin="round" stroke-width="1.452"/>
            </g>
            <path id="Path_148" data-name="Path 148" d="M659.689,456.319c-3.069-1.485-4.262-5.576-4.572-9.24a5.769,5.769,0,0,1,.383-3.2,3.868,3.868,0,0,1,3.917-1.681c3.389.34,6.224,2.907,8.6,5.582,4.013,4.525,3.655,5.205,8.148,9.151,2.036,1.789,4.373,3.339,6.967,3.635a6.411,6.411,0,0,0,6.607-3.515,4.26,4.26,0,0,0,.217-3.143,5.9,5.9,0,0,0-1.461-2c-4.232-4.32-4.686-4.127-8.918-8.448-3.318-3.389-6.851-7.23-7.309-12.177-.2-2.177.489-4.746,2.353-5.527,1.572-.659,3.315.2,4.746,1.171,4.566,3.1,8.275,7.469,12.357,11.295,2.07,1.94,4.4,3.819,7.112,4.1,4.2.442,8.164-3.493,8.816-8.062a13.311,13.311,0,0,0-5.042-11.956c-3.294-2.567-7.4-3.435-11.21-4.908-2.351-.909-5.269-2.131-5.78-4.807-1.185-6.212,4.34-7.2,7.791-7.7" transform="translate(-645.978 -382.274)" fill="none" stroke="#850000" stroke-linecap="round" stroke-linejoin="round" stroke-width="3.613"/>
          </g>
        </g>
        <g id="Group_72" data-name="Group 72" transform="translate(2.955 1.879)">
          <g id="Group_51" data-name="Group 51" transform="translate(2.459 12.758)">
            <path id="Path_149" data-name="Path 149" d="M188.889,305.792a8.208,8.208,0,1,1-8.208-8.207A8.207,8.207,0,0,1,188.889,305.792Z" transform="translate(24.611 178.065)" fill="none" stroke="#0b0b0b" stroke-linecap="round" stroke-linejoin="round" stroke-width="1.41"/>
            <circle id="Ellipse_7" data-name="Ellipse 7" cx="8.208" cy="8.208" r="8.208" transform="translate(416.702)" fill="none" stroke="#0b0b0b" stroke-linecap="round" stroke-linejoin="round" stroke-width="1.41"/>
            <circle id="Ellipse_8" data-name="Ellipse 8" cx="8.208" cy="8.208" r="8.208" transform="translate(976.932 493.182)" fill="none" stroke="#0b0b0b" stroke-linecap="round" stroke-linejoin="round" stroke-width="1.41"/>
            <circle id="Ellipse_9" data-name="Ellipse 9" cx="8.208" cy="8.208" r="8.208" transform="translate(43.321 256.086)" fill="none" stroke="#0b0b0b" stroke-linecap="round" stroke-linejoin="round" stroke-width="1.41"/>
            <path id="Path_150" data-name="Path 150" d="M665.3,323.562a8.208,8.208,0,1,1-8.208-8.208A8.208,8.208,0,0,1,665.3,323.562Z" transform="translate(552.924 186.035)" fill="none" stroke="#0b0b0b" stroke-linecap="round" stroke-linejoin="round" stroke-width="1.41"/>
            <path id="Path_151" data-name="Path 151" d="M49.2,81.521a8.208,8.208,0,1,1-8.208-8.208A8.208,8.208,0,0,1,49.2,81.521Z" transform="translate(-28.126 -25.045)" fill="none" stroke="#0b0b0b" stroke-linecap="round" stroke-linejoin="round" stroke-width="1.41"/>
            <path id="Path_152" data-name="Path 152" d="M409.4,455.838a8.208,8.208,0,1,1-8.209-8.209A8.208,8.208,0,0,1,409.4,455.838Z" transform="translate(312.651 293.015)" fill="none" stroke="#0b0b0b" stroke-linecap="round" stroke-linejoin="round" stroke-width="1.41"/>
            <path id="Path_153" data-name="Path 153" d="M267.239,461.4a8.208,8.208,0,1,1-8.208-8.209A8.208,8.208,0,0,1,267.239,461.4Z" transform="translate(179.174 294.395)" fill="none" stroke="#0b0b0b" stroke-linecap="round" stroke-linejoin="round" stroke-width="1.41"/>
            <circle id="Ellipse_10" data-name="Ellipse 10" cx="8.208" cy="8.208" r="8.208" transform="translate(0 586.314)" fill="none" stroke="#0b0b0b" stroke-linecap="round" stroke-linejoin="round" stroke-width="1.41"/>
            <path id="Path_154" data-name="Path 154" d="M206.282,158.963a8.208,8.208,0,1,1-8.208-8.208A8.208,8.208,0,0,1,206.282,158.963Z" transform="translate(121.94 56.634)" fill="none" stroke="#0b0b0b" stroke-linecap="round" stroke-linejoin="round" stroke-width="1.41"/>
          </g>
          <g id="Group_52" data-name="Group 52" transform="translate(0.612 0.446)">
            <path id="Path_155" data-name="Path 155" d="M605.458,201.28a5.648,5.648,0,1,1-5.649-5.647A5.649,5.649,0,0,1,605.458,201.28Z" transform="translate(541.182 105.747)" fill="#f15c12"/>
            <circle id="Ellipse_11" data-name="Ellipse 11" cx="5.648" cy="5.648" r="5.648" transform="translate(530.195 230.829)" fill="#fff"/>
            <path id="Path_156" data-name="Path 156" d="M38.868,187.272a5.648,5.648,0,1,1-5.649-5.647A5.648,5.648,0,0,1,38.868,187.272Z" transform="translate(-27.572 95.045)" fill="#fff"/>
            <path id="Path_157" data-name="Path 157" d="M359.134,465.411a5.647,5.647,0,1,1-5.647-5.647A5.648,5.648,0,0,1,359.134,465.411Z" transform="translate(253.348 308.34)" fill="#fff"/>
            <path id="Path_158" data-name="Path 158" d="M400.261,30.43a5.647,5.647,0,1,1-5.647-5.647A5.648,5.648,0,0,1,400.261,30.43Z" transform="translate(289.422 -24.783)" fill="#fff"/>
            <path id="Path_159" data-name="Path 159" d="M190.478,466.955a5.648,5.648,0,1,1-5.649-5.648A5.648,5.648,0,0,1,190.478,466.955Z" transform="translate(105.412 308.723)" fill="#f15c12"/>
            <path id="Path_160" data-name="Path 160" d="M304.155,67.932a5.648,5.648,0,1,1-5.647-5.647A5.648,5.648,0,0,1,304.155,67.932Z" transform="translate(205.123 -15.471)" fill="#fff"/>
            <path id="Path_161" data-name="Path 161" d="M575.865,78.947a5.648,5.648,0,1,1-5.648-5.649A5.648,5.648,0,0,1,575.865,78.947Z" transform="translate(443.451 -12.737)" fill="#f0560f"/>
            <path id="Path_162" data-name="Path 162" d="M238.148,328.052a5.648,5.648,0,1,1-5.649-5.647A5.649,5.649,0,0,1,238.148,328.052Z" transform="translate(66.225 208.602)" fill="#f15c12"/>
            <path id="Path_163" data-name="Path 163" d="M719.594,364.13a5.648,5.648,0,1,1-5.647-5.649A5.647,5.647,0,0,1,719.594,364.13Z" transform="translate(569.522 230.164)" fill="#f15c12"/>
          </g>
          <g id="Group_57" data-name="Group 57" transform="translate(85.329 71.158)">
            <g id="Group_53" data-name="Group 53" transform="translate(647.477)">
              <path id="Path_164" data-name="Path 164" d="M467.63,128.367c-2.213,2.429-13.346-4.768-24.865-16.076S423.7,89.847,425.913,87.418s13.347,4.769,24.866,16.077S469.843,125.938,467.63,128.367Z" transform="translate(-419.473 -80.061)" fill="none" stroke="#0b0b0b" stroke-linecap="round" stroke-linejoin="round" stroke-width="1.19"/>
              <path id="Path_165" data-name="Path 165" d="M474.059,135.834c-3.594,3.945-14.515-.332-33.225-18.7s-22.537-30.5-18.942-34.448,13.882,1.064,32.591,19.428S477.653,131.889,474.059,135.834Z" transform="translate(-420.677 -81.43)" fill="none" stroke="#0b0b0b" stroke-linecap="round" stroke-linejoin="round" stroke-width="1.19"/>
            </g>
            <g id="Group_55" data-name="Group 55" transform="translate(0 133.742)">
              <path id="Path_168" data-name="Path 168" d="M154.49,193.354c1.535,2.906-9.009,10.94-23.553,17.944s-27.577,10.327-29.113,7.422,9.01-10.94,23.554-17.944S152.956,190.449,154.49,193.354Z" transform="translate(-93.889 -187.643)" fill="none" stroke="#0b0b0b" stroke-linecap="round" stroke-linejoin="round" stroke-width="1.19"/>
              <path id="Path_169" data-name="Path 169" d="M163.548,191.432c2.493,4.719-5.233,13.544-28.851,24.92S98.36,227.215,95.866,222.5s5.707-12.7,29.326-24.076S161.054,186.714,163.548,191.432Z" transform="translate(-95.438 -188.57)" fill="none" stroke="#0b0b0b" stroke-linecap="round" stroke-linejoin="round" stroke-width="1.19"/>
            </g>
          </g>
          <g id="Group_66" data-name="Group 66" transform="translate(1.527)">
            <g id="Group_58" data-name="Group 58" transform="translate(604.438 686.489)">
              <path id="Path_171" data-name="Path 171" d="M370.333,394.026a216.969,216.969,0,0,1-19.379,39.546l4.913,5.365s15.536-22,19.845-36.242Z" transform="translate(-345.335 -394.026)" fill="none" stroke="#0b0b0b" stroke-linecap="round" stroke-linejoin="round" stroke-width="1.41"/>
              <path id="Path_172" data-name="Path 172" d="M371.45,394.026l-8,.668a180.178,180.178,0,0,1-17,37.26l5.619,1.618" transform="translate(-346.453 -394.026)" fill="none" stroke="#0b0b0b" stroke-linecap="round" stroke-linejoin="round" stroke-width="1.41"/>
              <path id="Path_173" data-name="Path 173" d="M346.453,424.41l4.494,5.83,6.038,1.152" transform="translate(-346.453 -386.482)" fill="none" stroke="#0b0b0b" stroke-linecap="round" stroke-linejoin="round" stroke-width="1.41"/>
            </g>
            <g id="Group_59" data-name="Group 59" transform="translate(561.283)">
              <path id="Path_174" data-name="Path 174" d="M360.81,26.769A217.065,217.065,0,0,1,325.989,53.73l2.047,6.982s23.639-12.9,33.783-23.791Z" transform="translate(-321.658 -23.844)" fill="none" stroke="#0b0b0b" stroke-linecap="round" stroke-linejoin="round" stroke-width="1.41"/>
              <path id="Path_175" data-name="Path 175" d="M361.672,27.351,354.2,24.426A180.212,180.212,0,0,1,322.52,50.384l4.33,3.927" transform="translate(-322.52 -24.426)" fill="none" stroke="#0b0b0b" stroke-linecap="round" stroke-linejoin="round" stroke-width="1.41"/>
              <path id="Path_176" data-name="Path 176" d="M322.52,45.221l1.465,7.214L328.9,56.13" transform="translate(-322.52 -19.263)" fill="none" stroke="#0b0b0b" stroke-linecap="round" stroke-linejoin="round" stroke-width="1.41"/>
            </g>
            <g id="Group_60" data-name="Group 60" transform="translate(1248.186 498.194)">
              <path id="Path_177" data-name="Path 177" d="M709.172,300.875a217.073,217.073,0,0,1-19.379,39.546l4.912,5.365s15.536-22,19.845-36.242Z" transform="translate(-684.174 -300.875)" fill="none" stroke="#0b0b0b" stroke-linecap="round" stroke-linejoin="round" stroke-width="1.41"/>
              <path id="Path_178" data-name="Path 178" d="M710.289,300.875l-8,.668a180.209,180.209,0,0,1-17,37.26l5.619,1.618" transform="translate(-685.292 -300.875)" fill="none" stroke="#0b0b0b" stroke-linecap="round" stroke-linejoin="round" stroke-width="1.41"/>
              <path id="Path_179" data-name="Path 179" d="M685.292,331.259l4.494,5.83,6.038,1.152" transform="translate(-685.292 -293.331)" fill="none" stroke="#0b0b0b" stroke-linecap="round" stroke-linejoin="round" stroke-width="1.41"/>
            </g>
            <g id="Group_61" data-name="Group 61" transform="translate(6.803 349.458)">
              <path id="Path_180" data-name="Path 180" d="M35.674,220.727A217.019,217.019,0,0,1,65,253.579l6.821-2.529S57.3,228.37,45.73,219.011Z" transform="translate(-33.279 -219.011)" fill="none" stroke="#0b0b0b" stroke-linecap="round" stroke-linejoin="round" stroke-width="1.41"/>
              <path id="Path_181" data-name="Path 181" d="M36.15,220.386l-2.4,7.662a180.223,180.223,0,0,1,28.109,29.784l3.615-4.595" transform="translate(-33.755 -218.67)" fill="none" stroke="#0b0b0b" stroke-linecap="round" stroke-linejoin="round" stroke-width="1.41"/>
              <path id="Path_182" data-name="Path 182" d="M56.273,251.8l7.094-1.966,3.343-5.159" transform="translate(-28.164 -212.638)" fill="none" stroke="#0b0b0b" stroke-linecap="round" stroke-linejoin="round" stroke-width="1.41"/>
            </g>
            <g id="Group_62" data-name="Group 62" transform="translate(775.711 6.878)">
              <path id="Path_183" data-name="Path 183" d="M442.6,29.936s3.344,5.389,7.967,29.627l7.249.619s-3.259-15.766-7.1-26.823Z" transform="translate(-437.17 -29.936)" fill="none" stroke="#0b0b0b" stroke-linecap="round" stroke-linejoin="round" stroke-width="1.452"/>
              <path id="Path_184" data-name="Path 184" d="M443.684,29.936l-5.432,5.911s3.43,3.613,8.171,26.333l5.228-2.616" transform="translate(-438.251 -29.936)" fill="none" stroke="#0b0b0b" stroke-linecap="round" stroke-linejoin="round" stroke-width="1.452"/>
              <path id="Path_185" data-name="Path 185" d="M444.8,56.163l7.255,1.245,5.222-3.242" transform="translate(-436.626 -23.92)" fill="none" stroke="#0b0b0b" stroke-linecap="round" stroke-linejoin="round" stroke-width="1.452"/>
            </g>
            <g id="Group_63" data-name="Group 63" transform="translate(512.943 743.951)">
              <path id="Path_186" data-name="Path 186" d="M303.735,440.058s3.344,5.389,7.967,29.627l7.249.619s-3.258-15.766-7.1-26.823Z" transform="translate(-298.304 -440.058)" fill="none" stroke="#0b0b0b" stroke-linecap="round" stroke-linejoin="round" stroke-width="1.41"/>
              <path id="Path_187" data-name="Path 187" d="M304.815,440.058l-5.431,5.911s3.429,3.613,8.17,26.333l5.228-2.616" transform="translate(-299.384 -440.058)" fill="none" stroke="#0b0b0b" stroke-linecap="round" stroke-linejoin="round" stroke-width="1.41"/>
              <path id="Path_188" data-name="Path 188" d="M305.929,466.285l7.255,1.245,5.223-3.242" transform="translate(-297.759 -434.042)" fill="none" stroke="#0b0b0b" stroke-linecap="round" stroke-linejoin="round" stroke-width="1.41"/>
            </g>
            <g id="Group_64" data-name="Group 64" transform="translate(0 468.494)">
              <path id="Path_189" data-name="Path 189" d="M32.656,286.165s3.344,5.389,7.967,29.627l7.249.619s-3.258-15.766-7.1-26.823Z" transform="translate(-27.225 -286.165)" fill="none" stroke="#0b0b0b" stroke-linecap="round" stroke-linejoin="round" stroke-width="1.41"/>
              <path id="Path_190" data-name="Path 190" d="M33.736,286.165l-5.431,5.911s3.429,3.613,8.17,26.333l5.228-2.616" transform="translate(-28.305 -286.165)" fill="none" stroke="#0b0b0b" stroke-linecap="round" stroke-linejoin="round" stroke-width="1.41"/>
              <path id="Path_191" data-name="Path 191" d="M34.85,312.392l7.255,1.245,5.223-3.242" transform="translate(-26.68 -280.149)" fill="none" stroke="#0b0b0b" stroke-linecap="round" stroke-linejoin="round" stroke-width="1.41"/>
            </g>
            <g id="Group_65" data-name="Group 65" transform="translate(327.122 734.071)">
              <path id="Path_192" data-name="Path 192" d="M200.924,434.9s5.358,1.364,22.909,13.8l1.367-6.366a166.255,166.255,0,0,0-17.109-10.186Z" transform="translate(-200.924 -432.144)" fill="none" stroke="#0b0b0b" stroke-linecap="round" stroke-linejoin="round" stroke-width="1.41"/>
              <path id="Path_193" data-name="Path 193" d="M200.924,434.35l.159,7s1.429-1.407,18.138,10l4.612-3.2" transform="translate(-200.924 -431.596)" fill="none" stroke="#0b0b0b" stroke-linecap="round" stroke-linejoin="round" stroke-width="1.41"/>
            </g>
          </g>
          <g id="Group_71" data-name="Group 71" transform="translate(0 2.672)">
            <g id="Group_67" data-name="Group 67" transform="translate(0 153.385)">
              <path id="Path_194" data-name="Path 194" d="M40.411,158.765c-6.554,5.4-12.648.6-13.223-2.957-.6-3.677,1.211-11.5,7.762-17.677,11-10.377,9.83-26.335,9.83-26.335S61.877,141.084,40.411,158.765Z" transform="translate(-27.082 -111.795)" fill="none" stroke="#0b0b0b" stroke-linecap="round" stroke-linejoin="round" stroke-width="1.452"/>
              <path id="Path_195" data-name="Path 195" d="M40.555,135.7s-14.122,14.535-11.937,30.85" transform="translate(-26.757 -105.859)" fill="none" stroke="#0b0b0b" stroke-linecap="round" stroke-linejoin="round" stroke-width="1.452"/>
            </g>
            <g id="Group_68" data-name="Group 68" transform="translate(598.284 736.351)">
              <path id="Path_196" data-name="Path 196" d="M529.155,477.411c-2.385,8.149-10.122,7.606-12.6,4.989-2.56-2.706-5.463-10.189-3.519-18.983,3.263-14.766-6.676-27.307-6.676-27.307S536.967,450.722,529.155,477.411Z" transform="translate(-506.362 -436.111)" fill="none" stroke="#0b0b0b" stroke-linecap="round" stroke-linejoin="round" stroke-width="1.452"/>
              <path id="Path_197" data-name="Path 197" d="M517.324,457.639s-3.506,19.96,7.471,32.225" transform="translate(-503.772 -430.766)" fill="none" stroke="#0b0b0b" stroke-linecap="round" stroke-linejoin="round" stroke-width="1.452"/>
            </g>
            <g id="Group_69" data-name="Group 69" transform="translate(642.659)">
              <path id="Path_198" data-name="Path 198" d="M587.618,30.858c7.286,4.36,4.812,11.712,1.657,13.448-3.263,1.8-11.235,2.721-19.256-1.373-13.469-6.876-28.108-.416-28.108-.416S563.755,16.577,587.618,30.858Z" transform="translate(-541.91 -26.567)" fill="none" stroke="#0b0b0b" stroke-linecap="round" stroke-linejoin="round" stroke-width="1.452"/>
              <path id="Path_199" data-name="Path 199" d="M565.478,34.259s18.434,8.42,33.068.883" transform="translate(-536.058 -24.657)" fill="none" stroke="#0b0b0b" stroke-linecap="round" stroke-linejoin="round" stroke-width="1.452"/>
            </g>
          </g>
        </g>
      </g>
    </g>
  </g>
</svg>
