<svg width="69" height="69" viewBox="0 0 69 69" fill="none" xmlns="http://www.w3.org/2000/svg">
<g filter="url(#filter0_d_19_129)">
<rect x="4.5" y="0.5" width="60" height="60" rx="30" fill="#1E1F4E" style="fill:#1E1F4E;fill:color(display-p3 0.1178 0.1209 0.3072);fill-opacity:1;" shape-rendering="crispEdges"/>
<path d="M28.2097 21.6935C28.2097 19.6051 29.8955 17.9193 31.9839 17.9193H37.0162C39.1046 17.9193 40.7904 19.6051 40.7904 21.6935C40.7904 22.3854 40.2243 22.9516 39.5323 22.9516H29.4678C28.7758 22.9516 28.2097 22.3854 28.2097 21.6935Z" fill="white" style="fill:white;fill-opacity:1;"/>
<path d="M41.7339 34.2742C41.7339 34.79 41.3061 35.2178 40.7903 35.2178H39.5323V39.3065C39.5323 41.3949 37.8465 43.0807 35.7581 43.0807H33.2419C31.1535 43.0807 29.4677 41.3949 29.4677 39.3065V35.2178H28.2097C27.6939 35.2178 27.2661 34.79 27.2661 34.2742C27.2661 33.7584 27.6939 33.3307 28.2097 33.3307H40.7903C41.3061 33.3307 41.7339 33.7584 41.7339 34.2742Z" fill="white" style="fill:white;fill-opacity:1;"/>
<path d="M42.0485 24.2097H26.9517C24.4356 24.2097 23.1775 25.4678 23.1775 27.9839V34.2742C23.1775 36.7904 24.4356 38.0484 26.9517 38.0484H27.4235C27.8577 38.0484 28.2098 37.6964 28.2098 37.2621C28.2098 36.8279 27.8466 36.489 27.4403 36.3355C26.6072 36.0206 26.0081 35.2119 26.0081 34.2742C26.0081 33.0665 27.002 32.0726 28.2098 32.0726H40.7904C41.9982 32.0726 42.992 33.0665 42.992 34.2742C42.992 35.2119 42.393 36.0206 41.5598 36.3355C41.1536 36.489 40.7904 36.8279 40.7904 37.2621C40.7904 37.6964 41.1425 38.0484 41.5767 38.0484H42.0485C44.5646 38.0484 45.8227 36.7904 45.8227 34.2742V27.9839C45.8227 25.4678 44.5646 24.2097 42.0485 24.2097ZM31.984 30.1855H28.2098C27.694 30.1855 27.2662 29.7578 27.2662 29.242C27.2662 28.7261 27.694 28.2984 28.2098 28.2984H31.984C32.4998 28.2984 32.9275 28.7261 32.9275 29.242C32.9275 29.7578 32.4998 30.1855 31.984 30.1855Z" fill="white" style="fill:white;fill-opacity:1;"/>
</g>
<defs>
<filter id="filter0_d_19_129" x="0.5" y="0.5" width="68" height="68" filterUnits="userSpaceOnUse" color-interpolation-filters="sRGB">
<feFlood flood-opacity="0" result="BackgroundImageFix"/>
<feColorMatrix in="SourceAlpha" type="matrix" values="0 0 0 0 0 0 0 0 0 0 0 0 0 0 0 0 0 0 127 0" result="hardAlpha"/>
<feOffset dy="4"/>
<feGaussianBlur stdDeviation="2"/>
<feComposite in2="hardAlpha" operator="out"/>
<feColorMatrix type="matrix" values="0 0 0 0 0.783333 0 0 0 0 0.786111 0 0 0 0 0.916667 0 0 0 1 0"/>
<feBlend mode="normal" in2="BackgroundImageFix" result="effect1_dropShadow_19_129"/>
<feBlend mode="normal" in="SourceGraphic" in2="effect1_dropShadow_19_129" result="shape"/>
</filter>
</defs>
</svg>
