<svg width="24" height="24" viewBox="0 0 24 24" fill="none" xmlns="http://www.w3.org/2000/svg">
<path d="M7.5 13.5001C10 16.0001 14 16.0001 16.5 13.5001M17.802 17.2921C17.802 17.2921 17.879 17.2371 18.002 17.1431C19.845 15.7181 21.002 13.6531 21.002 11.3541C21.002 7.06809 16.972 3.59009 12.002 3.59009C7.03201 3.59009 3.00201 7.06809 3.00201 11.3541C3.00201 15.6421 7.03201 19.0001 12.002 19.0001C12.426 19.0001 13.122 18.9721 14.09 18.9161C15.352 19.7361 17.194 20.4091 18.806 20.4091C19.305 20.4091 19.54 19.9991 19.22 19.5811C18.734 18.9851 18.064 18.0301 17.804 17.2911L17.802 17.2921Z" stroke="#F25F29" stroke-width="2" stroke-linecap="round" stroke-linejoin="round"/>
</svg>
