<svg width="16" height="17" viewBox="0 0 16 17" fill="none" xmlns="http://www.w3.org/2000/svg">
<path d="M1.88526 16.5622H13.435C13.8724 16.5618 14.2918 16.3879 14.6012 16.0786C14.9105 15.7693 15.0844 15.3499 15.0848 14.9124V3.36469C15.0844 2.92725 14.9105 2.50783 14.6012 2.19852C14.2918 1.8892 13.8724 1.71528 13.435 1.71492H11.7852V0.0644836H10.1354V1.71425H5.18547V0.0644836H3.5357V1.71425H1.88526C1.44771 1.71461 1.02818 1.88863 0.71885 2.19809C0.409516 2.50755 0.235666 2.92714 0.235489 3.36469V14.9138C0.236196 15.351 0.41028 15.77 0.719557 16.0791C1.02883 16.3881 1.44805 16.5618 1.88526 16.5622ZM6.83524 13.604L3.77548 10.5509L4.94167 9.38468L6.83323 11.2762L10.3732 7.73625L11.5394 8.90244L6.83524 13.604ZM1.88526 4.18958H13.435V5.83935H1.88526V4.18958Z" fill="white" style="fill:white;fill-opacity:1;"/>
</svg>
