<svg width="61" height="61" viewBox="0 0 61 61" fill="none" xmlns="http://www.w3.org/2000/svg">
<rect x="0.5" y="0.5" width="60" height="60" rx="30" fill="#FC3636" style="fill:#FC3636;fill:color(display-p3 0.9882 0.2118 0.2118);fill-opacity:1;"/>
<path d="M30.5 18C23.6125 18 18 23.6125 18 30.5C18 37.3875 23.6125 43 30.5 43C37.3875 43 43 37.3875 43 30.5C43 23.6125 37.3875 18 30.5 18ZM34.7 33.375C35.0625 33.7375 35.0625 34.3375 34.7 34.7C34.5125 34.8875 34.275 34.975 34.0375 34.975C33.8 34.975 33.5625 34.8875 33.375 34.7L30.5 31.825L27.625 34.7C27.4375 34.8875 27.2 34.975 26.9625 34.975C26.725 34.975 26.4875 34.8875 26.3 34.7C25.9375 34.3375 25.9375 33.7375 26.3 33.375L29.175 30.5L26.3 27.625C25.9375 27.2625 25.9375 26.6625 26.3 26.3C26.6625 25.9375 27.2625 25.9375 27.625 26.3L30.5 29.175L33.375 26.3C33.7375 25.9375 34.3375 25.9375 34.7 26.3C35.0625 26.6625 35.0625 27.2625 34.7 27.625L31.825 30.5L34.7 33.375Z" fill="white" style="fill:white;fill-opacity:1;"/>
</svg>
