<svg width="25" height="24" viewBox="0 0 25 24" fill="none" xmlns="http://www.w3.org/2000/svg">
<path d="M14.5029 16H9.50293M19.5029 16H22.5029V12.85C22.5036 12.6121 22.4194 12.3816 22.2654 12.2002C22.1115 12.0187 21.8978 11.8981 21.6629 11.86L16.5029 11L13.8029 7.40005C13.7098 7.27585 13.589 7.17505 13.4501 7.10562C13.3113 7.03619 13.1582 7.00005 13.0029 7.00005H5.74293C5.3702 6.99745 5.00416 7.09907 4.68611 7.29344C4.36806 7.4878 4.11065 7.76718 3.94293 8.10005L3.14293 9.73005C2.72307 10.5647 2.50392 11.4858 2.50293 12.42V16H4.50293M9.50293 16.5001C9.50293 17.8808 8.38364 19.0001 7.00293 19.0001C5.62222 19.0001 4.50293 17.8808 4.50293 16.5001C4.50293 15.1193 5.62222 14.0001 7.00293 14.0001C8.38364 14.0001 9.50293 15.1193 9.50293 16.5001ZM19.5029 16.5001C19.5029 17.8808 18.3836 19.0001 17.0029 19.0001C15.6222 19.0001 14.5029 17.8808 14.5029 16.5001C14.5029 15.1193 15.6222 14.0001 17.0029 14.0001C18.3836 14.0001 19.5029 15.1193 19.5029 16.5001Z" stroke="#9E9E9E" stroke-width="2" stroke-linecap="round" stroke-linejoin="round"/>
</svg>
