<svg width="25" height="24" viewBox="0 0 25 24" fill="none" xmlns="http://www.w3.org/2000/svg">
<path d="M14.5031 16H9.50305M19.5031 16H22.5031V12.85C22.5037 12.612 22.4195 12.3816 22.2656 12.2001C22.1116 12.0187 21.898 11.8981 21.6631 11.86L16.5031 11L13.8031 7.39999C13.7099 7.27579 13.5891 7.17499 13.4503 7.10556C13.3114 7.03613 13.1583 6.99999 13.0031 6.99999H5.74305C5.37032 6.99739 5.00428 7.09901 4.68623 7.29338C4.36818 7.48774 4.11078 7.76712 3.94305 8.09999L3.14305 9.72999C2.7232 10.5646 2.50404 11.4857 2.50305 12.42V16H4.50305M9.50305 16.5C9.50305 17.8807 8.38376 19 7.00305 19C5.62234 19 4.50305 17.8807 4.50305 16.5C4.50305 15.1193 5.62234 14 7.00305 14C8.38376 14 9.50305 15.1193 9.50305 16.5ZM19.5031 16.5C19.5031 17.8807 18.3838 19 17.0031 19C15.6223 19 14.5031 17.8807 14.5031 16.5C14.5031 15.1193 15.6223 14 17.0031 14C18.3838 14 19.5031 15.1193 19.5031 16.5Z" stroke="#9E9E9E" style="stroke:#9E9E9E;stroke:color(display-p3 0.6215 0.6215 0.6215);stroke-opacity:1;" stroke-width="2" stroke-linecap="round" stroke-linejoin="round"/>
</svg>
