<svg width="15" height="16" viewBox="0 0 15 16" fill="none" xmlns="http://www.w3.org/2000/svg">
<path d="M3.57752 7.41868C3.45957 7.41868 3.34427 7.45366 3.2462 7.51919C3.14813 7.58472 3.07169 7.67786 3.02655 7.78683C2.98141 7.8958 2.9696 8.01571 2.99262 8.13139C3.01563 8.24708 3.07242 8.35334 3.15583 8.43674C3.23923 8.52014 3.34549 8.57694 3.46117 8.59995C3.57686 8.62296 3.69677 8.61115 3.80574 8.56602C3.91471 8.52088 4.00785 8.44444 4.07338 8.34637C4.13891 8.2483 4.17388 8.133 4.17388 8.01505C4.17388 7.85688 4.11105 7.70519 3.99921 7.59335C3.88737 7.48151 3.73569 7.41868 3.57752 7.41868ZM10.7339 7.41868C10.6159 7.41868 10.5006 7.45366 10.4026 7.51919C10.3045 7.58472 10.228 7.67786 10.1829 7.78683C10.1378 7.8958 10.126 8.01571 10.149 8.13139C10.172 8.24708 10.2288 8.35334 10.3122 8.43674C10.3956 8.52014 10.5019 8.57694 10.6175 8.59995C10.7332 8.62296 10.8531 8.61115 10.9621 8.56602C11.0711 8.52088 11.1642 8.44444 11.2297 8.34637C11.2953 8.2483 11.3302 8.133 11.3302 8.01505C11.3302 7.85688 11.2674 7.70519 11.1556 7.59335C11.0437 7.48151 10.892 7.41868 10.7339 7.41868ZM11.9266 3.8405H2.38479C1.9103 3.8405 1.45523 4.029 1.11972 4.36452C0.784196 4.70004 0.595703 5.1551 0.595703 5.62959V10.4005C0.595703 10.875 0.784196 11.3301 1.11972 11.6656C1.45523 12.0011 1.9103 12.1896 2.38479 12.1896H11.9266C12.4011 12.1896 12.8562 12.0011 13.1917 11.6656C13.5272 11.3301 13.7157 10.875 13.7157 10.4005V5.62959C13.7157 5.1551 13.5272 4.70004 13.1917 4.36452C12.8562 4.029 12.4011 3.8405 11.9266 3.8405ZM12.523 10.4005C12.523 10.5587 12.4601 10.7104 12.3483 10.8222C12.2365 10.934 12.0848 10.9969 11.9266 10.9969H2.38479C2.22663 10.9969 2.07494 10.934 1.9631 10.8222C1.85126 10.7104 1.78843 10.5587 1.78843 10.4005V5.62959C1.78843 5.47143 1.85126 5.31974 1.9631 5.2079C2.07494 5.09606 2.22663 5.03323 2.38479 5.03323H11.9266C12.0848 5.03323 12.2365 5.09606 12.3483 5.2079C12.4601 5.31974 12.523 5.47143 12.523 5.62959V10.4005ZM7.1557 6.22596C6.80185 6.22596 6.45595 6.33089 6.16173 6.52747C5.86752 6.72406 5.63821 7.00348 5.5028 7.33039C5.36738 7.65731 5.33195 8.01703 5.40099 8.36408C5.47002 8.71113 5.64041 9.02992 5.89062 9.28013C6.14083 9.53033 6.45962 9.70073 6.80667 9.76976C7.15371 9.83879 7.51344 9.80336 7.84035 9.66795C8.16727 9.53254 8.44669 9.30323 8.64327 9.00901C8.83986 8.7148 8.94479 8.3689 8.94479 8.01505C8.94479 7.54055 8.7563 7.08549 8.42078 6.74997C8.08526 6.41445 7.6302 6.22596 7.1557 6.22596ZM7.1557 8.61141C7.03775 8.61141 6.92245 8.57643 6.82438 8.51091C6.72631 8.44538 6.64987 8.35224 6.60473 8.24327C6.55959 8.13429 6.54778 8.01439 6.5708 7.8987C6.59381 7.78302 6.6506 7.67676 6.73401 7.59335C6.81741 7.50995 6.92367 7.45315 7.03935 7.43014C7.15504 7.40713 7.27495 7.41894 7.38392 7.46408C7.49289 7.50922 7.58603 7.58565 7.65156 7.68373C7.71709 7.7818 7.75206 7.8971 7.75206 8.01505C7.75206 8.17321 7.68923 8.3249 7.57739 8.43674C7.46555 8.54858 7.31386 8.61141 7.1557 8.61141Z" fill="#4B4B4B" style="fill:#4B4B4B;fill:color(display-p3 0.2939 0.2939 0.2939);fill-opacity:1;"/>
</svg>
