<svg id="Group_57" data-name="Group 57" xmlns="http://www.w3.org/2000/svg" width="773.527" height="562.757" viewBox="0 0 773.527 562.757">
  <g id="Group_56" data-name="Group 56" transform="translate(0 0)">
    <g id="Group_40" data-name="Group 40" transform="translate(382.747 143.718)" opacity="0.8">
      <path id="Path_147" data-name="Path 147" d="M1677.713,715.659a97.607,97.607,0,0,1-7.439,15.877,96.978,96.978,0,0,1-180.424-42.405,95.312,95.312,0,0,1,.122-14.79,97.643,97.643,0,0,1,14.622-43.564c.04-.068.083-.129.123-.2a97.213,97.213,0,0,1,55.269-41.276c2.367-.678,4.768-1.267,7.186-1.761a96.424,96.424,0,0,1,52.548,3.876q3.477,1.264,6.792,2.762a96.306,96.306,0,0,1,39.3,32.444l.005,0a97.325,97.325,0,0,1,15.506,35.183q.891,4.067,1.438,8.216a96.519,96.519,0,0,1-5.047,45.634Z" transform="translate(-1489.621 -585.559)" fill="#d7e5ff"/>
      <g id="Group_39" data-name="Group 39" transform="translate(14.973 1.983)">
        <path id="Path_148" data-name="Path 148" d="M1600.484,634.473c-5.729,4.436-4.21,16.309-14.127,9.617s-16.144-10.33-18.951-4.491,5.977,9.037,3.664,15.4-7.019,7.035-11.979,1.81-5.107-10.255-13.143-10.088-11.466-3.139-11.074-9.171a8.487,8.487,0,0,0-.264-2.8c.04-.068.083-.129.123-.2A97.213,97.213,0,0,1,1590,593.279c2.367-.678,4.768-1.267,7.186-1.761a12.75,12.75,0,0,1,7.4,8.082c3.5,10.194,9.171,7.8,4.353,16.335s-2.836,10.634,2.424,12.2,11.323,3.771,10.5,7.932S1606.213,630.036,1600.484,634.473Z" transform="translate(-1534.61 -591.518)" fill="#aec3ff"/>
        <path id="Path_149" data-name="Path 149" d="M1917.77,869.348a97.621,97.621,0,0,1-7.439,15.877,96.415,96.415,0,0,1-27.088,29.728,11.065,11.065,0,0,1-7.214-2.844c-9.711-8.675,3.159-17.89,9.934-22.374s-5.806-5.97-12.149-14.708,8.509-20.577-1.035-21.216-21.155-1.258-23.1-11.484,8.1-8.12,6.34-16.734,6.548-10.227,15.431-7.769,9.978-4.091,20.989-1.118,5.828,16.526,17.975,19.913,10.625,5.921,10.625,5.921a5.854,5.854,0,0,1,2.279,1.415A97.119,97.119,0,0,1,1917.77,869.348Z" transform="translate(-1744.652 -741.231)" fill="#aec3ff"/>
        <path id="Path_150" data-name="Path 150" d="M1970.326,747.518c-11.564,1.209-10.782-13.228-20.6-12.373-9.9.863-5.663-6.175-10.564-13.447s-21.431-3.329-18.072-10.686,12.586-1.6,16.911-6.887,13.469-.249,13.469-.249a6.982,6.982,0,0,1,1.909.241s0,0,0,0a97.326,97.326,0,0,1,15.506,35.183Q1969.778,743.369,1970.326,747.518Z" transform="translate(-1792.16 -665.035)" fill="#aec3ff"/>
        <path id="Path_151" data-name="Path 151" d="M1804.824,636.421s7.853-5.56.469-10.726-8.276-2.241-14.393-5.232-10.407,1.024-7.589,8.138,2.929,18.838,9.246,14.906S1799.556,635.106,1804.824,636.421Z" transform="translate(-1699.948 -610.162)" fill="#aec3ff"/>
      </g>
    </g>
    <path id="Path_152" data-name="Path 152" d="M484.4,1761.9h33.814c1.812-1.537-1.254-5.028-4.458-5.262a19.753,19.753,0,0,0-5.161.611c-.465-6.18-3.122-33.963-13.137-32.847-11.26,1.25,0,12.235,3.183,18.739a154.645,154.645,0,0,1,5.982,14.986c-.914.2-1.861.392-2.827.57-1.492-4.583-7.046-20-14.108-19.1-8.292,1.051-4.959,7.232.918,10.9,4.312,2.7,9.606,6.532,12.122,8.384a35.935,35.935,0,0,1-6.613.53C488.326,1759.279,485.5,1760.986,484.4,1761.9Z" transform="translate(-435.093 -1201.632)" fill="#a8d29f"/>
    <path id="Path_153" data-name="Path 153" d="M2040.709,1767.257H2009.3c-1.683-1.427,1.165-4.67,4.14-4.888a18.362,18.362,0,0,1,4.794.567c.432-5.74,2.9-31.547,12.2-30.51,10.459,1.161,0,11.365-2.957,17.406a143.673,143.673,0,0,0-5.557,13.919c.849.184,1.729.364,2.626.529,1.386-4.256,6.545-18.574,13.1-17.74,7.7.977,4.606,6.717-.853,10.125-4,2.506-8.922,6.068-11.259,7.788a33.329,33.329,0,0,0,6.142.492C2037.065,1764.818,2039.69,1766.4,2040.709,1767.257Z" transform="translate(-1453.258 -1206.985)" fill="#a8d29f"/>
    <g id="Group_41" data-name="Group 41" transform="translate(579.349 304.665)">
      <path id="Path_154" data-name="Path 154" d="M2156.6,1204.151s.748-7.435-3.14-7.18-4.918,2.038-4.483,3.467,4.216,6.156,4.216,6.156Z" transform="translate(-2126.07 -1154.422)" fill="#ffb27d"/>
      <path id="Path_155" data-name="Path 155" d="M2223.177,1231.1s-4.3,5.058-13.56,10.894c-.877.554-1.793,1.112-2.761,1.673a102.581,102.581,0,0,1-12.68,6.239c-.536.221-1.166.464-1.873.717-5.547,2-15.752,4.844-22.078,5.1-.551.022-1.073.022-1.558,0-9.626-.388-10.8-37.75-10.8-37.75s1.073-3.739,6.018-2.8c0,0,7.51,21.1,10.2,22.82,2.391,1.529,16.132-19.3,27.961-20.758C2210.011,1216.255,2223.177,1231.1,2223.177,1231.1Z" transform="translate(-2132.063 -1166.47)" fill="#739af0"/>
      <path id="Path_156" data-name="Path 156" d="M2229.732,1804.359s.711,8.225-1.027,9.08l-22.25-.045s0-2.568,3.573-3.138,9.852-2.663,10.914-7.323S2229.732,1804.359,2229.732,1804.359Z" transform="translate(-2164.479 -1557.539)" fill="#1c3154"/>
      <path id="Path_157" data-name="Path 157" d="M2227.179,1460.013c.11,5.378.368,10.925.874,15.911,2.4,23.656,3.248,52.239,3.593,57.75.6,9.566,2.489,24.849,2.489,24.849s3.748,3.558,11.054,1.86a248.8,248.8,0,0,0,7.406-45.188c.02-.38.042-.763.061-1.145.157-3.064.321-6.568.489-10.346,1.113-25.306,2.323-62.9,2.323-62.9l-27.92-6.556S2226.9,1446.606,2227.179,1460.013Z" transform="translate(-2178.26 -1312.734)" fill="#2a4e96"/>
      <path id="Path_158" data-name="Path 158" d="M2227.179,1460.013c7.076,12.208,20.563,34.7,25.965,43.691,1.113-25.306,2.323-62.9,2.323-62.9l-27.92-6.556S2226.9,1446.606,2227.179,1460.013Z" transform="translate(-2178.26 -1312.734)" fill="#233862"/>
      <path id="Path_159" data-name="Path 159" d="M2217.075,1303.3c-5.546,2-15.752,4.844-22.077,5.1.967-.181,8.01-1.576,10.615-4.721,2.8-3.38,7.506-12.56,11.253-8.814C2218.63,1296.624,2218.112,1300.109,2217.075,1303.3Z" transform="translate(-2156.835 -1219.147)" fill="#6385db"/>
      <path id="Path_160" data-name="Path 160" d="M2389.778,1498.873s1.733,6.8,1.449,8.306-1.976,6.625-3.031,7.894-1.1-5.516-1.8-6.582-.322,2.533-.884,2.828-1.5-2.726-1.917-3.8,1.5-4.8,1.676-7.471S2389.778,1498.873,2389.778,1498.873Z" transform="translate(-2282.623 -1355.571)" fill="#ffb27d"/>
      <path id="Path_161" data-name="Path 161" d="M2414.165,1779.225s3.96,3.614,3.187,6.182-4.347,4.28-4.829,7.418-2.415,4.85-4.153,4.85h-8.288s-1.28-2.209,1.811-2.874,4.256-4.354,4.063-7.777a60.275,60.275,0,0,1,.289-7.989l6.568-1.522Z" transform="translate(-2293.487 -1541.751)" fill="#1c3154"/>
      <path id="Path_162" data-name="Path 162" d="M2241.641,1438.635s26.135,55.921,40.044,80.457,18.255,31.384,18.255,31.384,7.968-3.139,8.693-5.278c0,0-5.319-47.369-14.633-58.917-5.263-6.525-11.445-26.106-11.735-32.953s-6.4-23.191-6.4-23.191Z" transform="translate(-2187.954 -1309.99)" fill="#2a4e96"/>
      <path id="Path_163" data-name="Path 163" d="M2226.929,1293.559a45.3,45.3,0,0,0,22.972,11.925c6.347,1.215,19.229,2.389,22.425-2.13.751-1.061.757-2.632.591-5.084-.43-6.374-2.034-18.7,5.205-43.462a42.239,42.239,0,0,0,1.392-6.62c1.58-12.669,1.409-22.233-9.583-27.343-16.469-7.656-23.23-1.357-23.23-1.357s-8.76,4.093-12.762,16.022C2225.934,1259.372,2226.929,1293.559,2226.929,1293.559Z" transform="translate(-2178.112 -1167.824)" fill="#739af0"/>
      <path id="Path_164" data-name="Path 164" d="M2301.263,1189.128a12.225,12.225,0,0,1-12.3.806c-.358-.179-.313-2.64-.224-5.056.089-2.371.313-4.7.313-4.7l5.86-3.847,5.592-3.669C2299.832,1185.281,2302.516,1188.233,2301.263,1189.128Z" transform="translate(-2219.333 -1138.21)" fill="#ffb27d"/>
      <path id="Path_165" data-name="Path 165" d="M2299.645,1185.229a18.008,18.008,0,0,1-10.782,7c.089-2.371.343-4.983.343-4.983l5.831-3.561Z" transform="translate(-2219.459 -1145.565)" fill="#ed985f"/>
      <path id="Path_166" data-name="Path 166" d="M2270.977,1144.743s14.178,5.291,17.333-3.445,7.109-13.936-1.81-17.683-11.892-1.044-13.666,1.615S2267.37,1143.141,2270.977,1144.743Z" transform="translate(-2206.508 -1104.256)" fill="#ffb27d"/>
      <path id="Path_167" data-name="Path 167" d="M2293.6,1113.057c.163-.126.494-.189,1.184-.091a2.83,2.83,0,0,0-1.2-.611c.045-.977-.128-2.757-1.681-3.489a2.089,2.089,0,0,1,.7,1.673c-1.509-2.317-5.284-4.533-16.688-5.865-15.029-1.755-12.023,8.683-10.331,10.191s7.127-.636,10.64.353,3.174,6.28,4.245,7.227.842-.4,2.627-.815,1.4,2.329.583,4,.969,4.445.969,4.445l2.759-2c2.759-2,6.953-11.954,6.355-14.371C2293.7,1113.49,2293.653,1113.275,2293.6,1113.057Z" transform="translate(-2202.966 -1092.716)" fill="#2c3a64"/>
      <path id="Path_168" data-name="Path 168" d="M2347.569,1359.766c-.43-6.374-2.034-18.7,5.205-43.462a42.3,42.3,0,0,0,1.392-6.619h0c-5.378-1.774-15.178,2.172-15.178,2.172S2336.683,1344.591,2347.569,1359.766Z" transform="translate(-2252.765 -1229.32)" fill="#6385db"/>
      <path id="Path_169" data-name="Path 169" d="M2317.787,1233.426s6.618,2.407,10.839,19.928c2.789,11.577,7.924,28.593,8.5,33.94s-5.87,36.654-5.87,36.654-.91.663-3.138.217A5.183,5.183,0,0,1,2325,1322.3s-1.542-20.866-1.143-30.718c.165-4.093-18.949-29.977-29.265-33.311C2290.535,1256.958,2317.787,1233.426,2317.787,1233.426Z" transform="translate(-2223.004 -1178.749)" fill="#739af0"/>
      <path id="Path_170" data-name="Path 170" d="M2086.991,1102.165a220.113,220.113,0,0,1,41.2,3.52l2.307-5.811,2.529-6.367s-22.16-9.54-35.48-22.825Z" transform="translate(-2084.775 -1070.169)" fill="#aec3ff"/>
      <path id="Path_171" data-name="Path 171" d="M2093.407,1069.346l-10.981,32.418h0a2.922,2.922,0,0,1-1.924-3.779l9.665-27.238a2.411,2.411,0,0,1,3.241-1.4Z" transform="translate(-2080.333 -1069.142)" fill="#f99746"/>
      <path id="Path_172" data-name="Path 172" d="M2144.736,1184.128h0a3.971,3.971,0,0,0,4.658-3.106l3.781-18.92a3.97,3.97,0,0,0-3.106-4.658h0a3.97,3.97,0,0,0-4.658,3.106l-3.781,18.919A3.971,3.971,0,0,0,2144.736,1184.128Z" transform="translate(-2121.177 -1128.004)" fill="#f99746"/>
      <path id="Path_173" data-name="Path 173" d="M2086.991,1157.818a220.125,220.125,0,0,1,41.2,3.52l2.307-5.811C2109.758,1151.291,2086.991,1157.818,2086.991,1157.818Z" transform="translate(-2084.775 -1125.822)" fill="#739af0"/>
      <path id="Path_174" data-name="Path 174" d="M2192.449,1143.652l5.977,1.052c-.091,0,5.552,1.1,7.4-3.9a4.053,4.053,0,0,0,.354-1.08c1.438-6.234-1.985-7.383-1.985-7.383l-7.692-3-2.444,8.649v.03Z" transform="translate(-2155.134 -1109.305)" fill="#f99746"/>
      <path id="Path_175" data-name="Path 175" d="M2192.449,1160.989l5.977,1.052c-.091,0,5.552,1.1,7.4-3.9-3.382-2.46-11.767-2.811-11.767-2.811v.03Z" transform="translate(-2155.134 -1126.642)" fill="#ed7d2b"/>
      <path id="Path_176" data-name="Path 176" d="M2147.432,1182.394s2.924,1.165,2.388,2.453-4.254,3.058-4.841,2.042S2145.593,1181.308,2147.432,1182.394Z" transform="translate(-2123.363 -1144.591)" fill="#ffb27d"/>
      <path id="Path_177" data-name="Path 177" d="M2170.493,1201.2a40.92,40.92,0,0,0,.586-4.365c.035-1.374.2-2.5-.128-2.536s-.558.214-.69.656-.638,3.182-.638,3.182l.256,2.645Z" transform="translate(-2139.905 -1152.639)" fill="#ffb27d"/>
    </g>
    <g id="Group_43" data-name="Group 43" transform="translate(140.861 244.088)">
      <path id="Path_178" data-name="Path 178" d="M1269.831,1205.435,1253.265,1402.4s-1.736,11.939,7.146,11.96c14.6.035,72.681,0,72.681,0s-10.99-2.485-10.857-8.077c.157-6.592,19.361-202.713,19.361-202.713Z" transform="translate(-1089.952 -1098.254)" fill="#7599ea"/>
      <path id="Path_179" data-name="Path 179" d="M1348.129,1403.7c-2.872.009-59.1.1-73.319-.079-6.2-.077-7.284-5.51-7.335-9.026a17.642,17.642,0,0,1,.188-2.932l.431-5.12,1.1-13.048.969-11.528,1.246-14.813,1.049-12.5,11.771-139.958,71.765-1.862s-8.088,82.076-13.809,141.82c-.639,6.656-1.246,13.039-1.808,19q-.274,2.853-.528,5.573c-.531,5.653-1.016,10.843-1.438,15.426-.222,2.416-.428,4.661-.613,6.717-.73,8.057-1.158,13.2-1.163,14.18a8.277,8.277,0,0,0,.139,1.594C1337.95,1403.418,1347.05,1403.7,1348.129,1403.7Z" transform="translate(-1099.522 -1091.09)" fill="#90aff4"/>
      <path id="Path_180" data-name="Path 180" d="M779.653,887.135,820,1049.213l5.525,22.2,18.793,75.491h349.147L1124.2,887.135Z" transform="translate(-774.06 -887.135)" fill="#aec3ff"/>
      <path id="Path_181" data-name="Path 181" d="M768.441,887.134,762.849,889l62.826,263.542,7.435-5.638Z" transform="translate(-762.849 -887.134)" fill="#90aff4"/>
      <path id="Path_182" data-name="Path 182" d="M951.617,1673.272h347l9.582-5.638H959.052Z" transform="translate(-888.791 -1407.866)" fill="#7599ea"/>
      <rect id="Rectangle_11" data-name="Rectangle 11" width="75.13" height="3.57" transform="translate(259.811 316.183) rotate(180)" fill="#aec3ff"/>
      <path id="Path_183" data-name="Path 183" d="M1343.681,1684.568l-.388,2.73-70.656,14.274.969-11.528.462-5.476Z" transform="translate(-1102.968 -1419.164)" fill="#5888dd"/>
      <path id="Path_184" data-name="Path 184" d="M1348.133,1781.637c-2.872.009-59.1.1-73.319-.079-6.2-.077-7.284-5.51-7.335-9.026L1337.8,1759.3c-.73,8.057-1.158,13.2-1.164,14.18a8.288,8.288,0,0,0,.14,1.594C1337.954,1781.353,1347.055,1781.637,1348.133,1781.637Z" transform="translate(-1099.526 -1469.024)" fill="#5888dd" opacity="0.4"/>
      <path id="Path_185" data-name="Path 185" d="M779.651,887.134H1124.2l55.9,208.771H831.624Z" transform="translate(-774.059 -887.134)" fill="#aec3ff"/>
      <path id="Path_186" data-name="Path 186" d="M1192.457,1109.276h-322.6l-11.528-45.923-4.46-17.77-1.818-7.246L840.2,991.143l-.614-2.457-6.263-24.946-2.8-11.162-2.39-9.522-5.6-22.32h317.95l6.154,22.32,2.623,9.522,3.077,11.162,20.272,73.535v0l1.719,6.23.8,2.892,14,50.767Z" transform="translate(-802.667 -909.553)" fill="#739af0"/>
      <path id="Path_187" data-name="Path 187" d="M1146.637,943.056h-318.5l-5.6-22.322h317.95Z" transform="translate(-802.669 -909.551)" fill="#607cf4"/>
      <g id="Group_42" data-name="Group 42" transform="translate(32.931 18.48)">
        <path id="Path_188" data-name="Path 188" d="M861.881,945.45a2.108,2.108,0,0,1,2.095-2.79,3.812,3.812,0,0,1,3.486,2.79,2.108,2.108,0,0,1-2.095,2.791A3.811,3.811,0,0,1,861.881,945.45Z" transform="translate(-861.795 -942.66)" fill="#e9f3fe"/>
        <path id="Path_189" data-name="Path 189" d="M889.739,945.45a2.108,2.108,0,0,1,2.095-2.79,3.811,3.811,0,0,1,3.486,2.79,2.108,2.108,0,0,1-2.095,2.791A3.811,3.811,0,0,1,889.739,945.45Z" transform="translate(-880.381 -942.66)" fill="#e9f3fe"/>
        <path id="Path_190" data-name="Path 190" d="M919.736,945.45a2.108,2.108,0,0,1,2.095-2.79,3.812,3.812,0,0,1,3.486,2.79,2.108,2.108,0,0,1-2.095,2.791A3.811,3.811,0,0,1,919.736,945.45Z" transform="translate(-900.395 -942.66)" fill="#e9f3fe"/>
      </g>
    </g>
    <path id="Path_191" data-name="Path 191" d="M1550.006,279.246c13.039-15.309,33.145-46.061,46.682-61.81a4.993,4.993,0,0,0-3.8-8.244h-24.633l23.235-52.538a2.059,2.059,0,0,0-3.533-2.065l-56.18,75.193a3.109,3.109,0,0,0,2.871,4.946l27.887-3.434-16.591,45.575A2.393,2.393,0,0,0,1550.006,279.246Z" transform="translate(-1134.579 -153.744)" fill="#f77d48"/>
    <path id="Path_192" data-name="Path 192" d="M1177.948,613.826c2.933-15.045,4.785-42.991,7.885-58.514a3.806,3.806,0,0,0-5.61-4.052l-16.361,9.214-4.22-43.586a1.57,1.57,0,0,0-3.119-.05l-9.187,70.955a2.37,2.37,0,0,0,3.757,2.212l17.238-12.712,6.028,36.476A1.824,1.824,0,0,0,1177.948,613.826Z" transform="translate(-878.495 -395.079)" fill="#aec3ff"/>
    <g id="Group_47" data-name="Group 47" transform="translate(223.325 139.423)">
      <path id="Path_193" data-name="Path 193" d="M1353.388,902.827l-280.314,23.617a28.059,28.059,0,0,1-27.974-39.407l118.759-265.783a28.059,28.059,0,0,1,48.96-4.125L1374.374,859.3A28.059,28.059,0,0,1,1353.388,902.827Z" transform="translate(-1031.969 -593.995)" fill="#e6efff"/>
      <g id="Group_44" data-name="Group 44">
        <path id="Path_194" data-name="Path 194" d="M1332.934,892.09,1052.62,915.707a38.7,38.7,0,0,1-38.582-54.351L1132.8,595.573a38.7,38.7,0,0,1,67.526-5.689L1361.878,832.05a38.7,38.7,0,0,1-28.944,60.039ZM1166.668,594a17.2,17.2,0,0,0-14.441,10.252L1033.468,870.038a17.418,17.418,0,0,0,17.365,24.462l280.314-23.617a17.418,17.418,0,0,0,13.028-27.024L1182.62,601.695A17.2,17.2,0,0,0,1166.668,594Z" transform="translate(-1010.622 -572.655)" fill="#f77d48"/>
      </g>
      <g id="Group_46" data-name="Group 46" transform="translate(135.095 79.015)">
        <g id="Group_45" data-name="Group 45">
          <path id="Path_195" data-name="Path 195" d="M1430.911,999.219A25.638,25.638,0,0,1,1432,989.04a23.5,23.5,0,0,1,4.8-8.425,25.192,25.192,0,0,1,8.053-5.971,31.4,31.4,0,0,1,11.029-2.831,32.12,32.12,0,0,1,11.43.939,25.052,25.052,0,0,1,9.024,4.532,23.526,23.526,0,0,1,6.138,7.5,25.685,25.685,0,0,1,2.779,9.854,25.083,25.083,0,0,1-1.1,10.1,23.676,23.676,0,0,1-4.8,8.343,24.967,24.967,0,0,1-8.138,5.978,32.119,32.119,0,0,1-11.113,2.838,31.4,31.4,0,0,1-11.347-.946,25.112,25.112,0,0,1-8.939-4.539,23.646,23.646,0,0,1-6.132-7.421A25.034,25.034,0,0,1,1430.911,999.219Zm43.337-50.711-40.377,3.4-17.344-137.48,51.817-4.366Z" transform="translate(-1416.528 -810.065)" fill="#f77d48"/>
        </g>
      </g>
    </g>
    <g id="Group_51" data-name="Group 51" transform="translate(110.109 305.51)">
      <path id="Path_196" data-name="Path 196" d="M936.749,1239.215s.879-1.977,1.448-2.913,3-3.678,3.415-3.057,2.07,4.8,1.19,5.97.057,3.206-4.318,4.439Z" transform="translate(-848.12 -1179.412)" fill="#ffb27d"/>
      <path id="Path_197" data-name="Path 197" d="M790.676,1213.861s22.395,18.694,31.127,16.963c6.828-1.353,17.623-4.777,17.623-4.777s2.849,2.71,2.043,5.958c0,0-13.753,12.941-23.552,13.024-15.315.131-22.539-7.59-22.539-7.59Z" transform="translate(-750.663 -1166.541)" fill="#ed7d2b"/>
      <path id="Path_198" data-name="Path 198" d="M672.668,1799.544s.65,10.487,2.679,10.637c.27.02,10.291.02,10.291.02l12.792-.074s-.084-3.082-3.823-3.734-10-3.28-12.263-8.222C679.961,1792.972,672.668,1799.544,672.668,1799.544Z" transform="translate(-671.931 -1555.044)" fill="#113c68"/>
      <path id="Path_199" data-name="Path 199" d="M670.453,1548.953a26.674,26.674,0,0,0,6.925,1.3,25.429,25.429,0,0,0,6.465-.922s.732-7.08,4.761-22.68c2.112-8.176,5.128-18.69,9.42-31.753,11.865-36.1,15.474-57.225,15.8-59.225.018-.105.025-.158.025-.158l-.039-.018-36.479-16.017s4.509,49.76-1.243,68.86a80.388,80.388,0,0,0-2.088,9.15C670.369,1518.237,670.453,1548.953,670.453,1548.953Z" transform="translate(-670.453 -1303.726)" fill="#2a4e96"/>
      <path id="Path_200" data-name="Path 200" d="M699.833,1526.652c2.112-8.176,5.129-18.69,9.42-31.753,11.865-36.1,15.474-57.225,15.8-59.225,0-.06-.007-.116-.014-.175l-36.479-16.017s4.509,49.76-1.243,68.86C686.513,1491.01,699.833,1526.652,699.833,1526.652Z" transform="translate(-681.682 -1303.726)" fill="#233862"/>
      <path id="Path_201" data-name="Path 201" d="M758.276,1799.544s.65,10.487,2.679,10.637c.27.02,10.291.02,10.291.02l12.792-.074s-.084-3.082-3.823-3.734-10-3.28-12.263-8.222C765.569,1792.972,758.276,1799.544,758.276,1799.544Z" transform="translate(-729.046 -1555.044)" fill="#15447c"/>
      <path id="Path_202" data-name="Path 202" d="M742.669,1423a519.312,519.312,0,0,1-5.105,71.836c-5.579,39.591-3.688,56.4-3.688,56.4a37.961,37.961,0,0,1-5.38,1.368,24.415,24.415,0,0,1-7.982-.924s-7.985-39.605-5.7-59.422-10.935-68-10.935-68Z" transform="translate(-692.757 -1306.077)" fill="#2a4e96"/>
      <path id="Path_203" data-name="Path 203" d="M742.7,1164.333,749.82,1169l6.486-1.835c1.186-1.691,1.5-4.952,1.517-7.776a48.412,48.412,0,0,0-.255-5.179l-9.607-4.24-3.585-1.579c.01.056.279,2.943.317,3.365A24.522,24.522,0,0,1,742.7,1164.333Z" transform="translate(-718.654 -1122.862)" fill="#ffb27d"/>
      <path id="Path_204" data-name="Path 204" d="M730.789,1275.284c-8.863,8.557-42.406,7.118-44.473-2.311s2.255-80.261,17.394-84.711c3.142-.924,19.938,4.505,19.938,4.505a106.485,106.485,0,0,1,4.364,15.673c.335,1.708,1.315,19.809,2.048,36.743.342,7.92.631,15.587.779,21.2C730.973,1271.643,730.979,1275.1,730.789,1275.284Z" transform="translate(-680.713 -1149.392)" fill="#f99746"/>
      <path id="Path_205" data-name="Path 205" d="M750.3,1155.054c1.949,3.3,8.788,6.179,12.411,7.5a48.378,48.378,0,0,0-.255-5.179l-9.607-4.24C750.728,1153.109,749.434,1153.583,750.3,1155.054Z" transform="translate(-723.544 -1126.026)" fill="#fca56b"/>
      <path id="Path_206" data-name="Path 206" d="M754.99,1113.05s-15.479,4.829-18.338-4.857-6.782-15.586,2.98-19.079,12.782-.366,14.523,2.635S758.943,1111.545,754.99,1113.05Z" transform="translate(-712.451 -1082.284)" fill="#ffb27d"/>
      <path id="Path_207" data-name="Path 207" d="M740.047,1080.214s-.987,11.272-3.318,10.782-4.9-1.536-4.556,1.862-2.267,9.222-5.628,9.208c-7.209-.03-15.041-18.528-13.068-22.036C719.172,1069.91,748.277,1067.867,740.047,1080.214Z" transform="translate(-698.951 -1071.683)" fill="#163560"/>
      <path id="Path_208" data-name="Path 208" d="M755.368,1179.681c-.2-.084-11.523-5.164-12.848-4.726s-2.975,4.482-2.975,4.482l19.939,4.508S757.915,1180.754,755.368,1179.681Z" transform="translate(-716.549 -1140.565)" fill="#ed7d2b"/>
      <g id="Group_49" data-name="Group 49" transform="translate(39.902 7.138)">
        <path id="Path_209" data-name="Path 209" d="M859.756,1341.864l-63.476,59.764c-1.244,1.171-2.813,1.544-3.487.829l-2.143-2.276c-.673-.716-.206-2.259,1.038-3.431l63.477-59.764c1.244-1.172,2.813-1.545,3.486-.829l2.143,2.276C861.467,1339.149,861,1340.693,859.756,1341.864Z" transform="translate(-790.342 -1255.031)" fill="#1f4d84"/>
        <path id="Path_210" data-name="Path 210" d="M824.134,1445.025l-27.855,26.226c-1.244,1.171-2.813,1.544-3.487.829l-2.143-2.276c-.673-.716-.206-2.259,1.038-3.43l27.855-26.226Z" transform="translate(-790.342 -1324.653)" fill="#739af0"/>
        <path id="Path_211" data-name="Path 211" d="M950.742,1157.4a49.753,49.753,0,1,0,82.463-50c-.255-.255-.516-.506-.781-.753a49.755,49.755,0,0,0-81.682,50.752Zm14.22-45.919a45.827,45.827,0,1,1,1.974,64.777A45.772,45.772,0,0,1,964.962,1111.481Z" transform="translate(-895.918 -1093.131)" fill="#1f4d84"/>
        <g id="Group_48" data-name="Group 48" transform="translate(56.593 3.928)" opacity="0.5">
          <path id="Path_212" data-name="Path 212" d="M1039.582,1182.155a45.828,45.828,0,1,1-1.975-64.774A45.638,45.638,0,0,1,1039.582,1182.155Z" transform="translate(-960.382 -1104.933)" fill="#b3cff9"/>
        </g>
      </g>
      <path id="Path_213" data-name="Path 213" d="M756.655,1306.571c-34.976-24.923-32.068-58.18-32.068-58.18,12.784,7.21,25.469,23.152,31.289,36.98C756.218,1293.291,756.508,1300.958,756.655,1306.571Z" transform="translate(-706.531 -1189.578)" fill="#ed7d2b"/>
      <g id="Group_50" data-name="Group 50" transform="translate(17.328 43.379)">
        <path id="Path_214" data-name="Path 214" d="M916.381,1383.566a9.547,9.547,0,0,0,4.467-2.759s1.052.072-.172,2.316c-.1.188-.33.67-.5,1.011a.217.217,0,0,0,.183.313c1.423.108,2.854-.455,5.6.117.378.079.488.985.474,1.371a3.5,3.5,0,0,1-.737,2.389c-.442.583-1.674,1.21-4.42,2.314-1.046.421-4.036.1-6.838-.859l-2.239-1.037.695-4.161.563.118C914.343,1384.885,915.45,1383.795,916.381,1383.566Z" transform="translate(-849.064 -1321.302)" fill="#ffb27d"/>
        <path id="Path_215" data-name="Path 215" d="M734.1,1202.019s-31.427,5.984,9.246,51.493c6.5,7.278,41.649,16.756,41.649,16.756s3.564-3.032,1.768-5.489c0,0-24.2-17.572-29.522-20.365-2.4-1.257-9.3-28.046-13.2-34.5A17.6,17.6,0,0,0,734.1,1202.019Z" transform="translate(-722.516 -1202.019)" fill="#f99746"/>
      </g>
      <path id="Path_216" data-name="Path 216" d="M939.31,1237.668a16.012,16.012,0,0,0,1.229-3,16.592,16.592,0,0,1,2.028-4.591c.214-.213.917.063,1,.978a5.331,5.331,0,0,1-.5,1.988c-.562,1.406-.47,3.314-.665,3.95C941.91,1238.576,939.31,1237.668,939.31,1237.668Z" transform="translate(-849.828 -1177.314)" fill="#ffb27d"/>
    </g>
    <g id="Group_53" data-name="Group 53" transform="translate(163.035 138.908)">
      <g id="Group_52" data-name="Group 52">
        <path id="Path_217" data-name="Path 217" d="M975.908,984.658a1.9,1.9,0,0,0-.339,2.027.016.016,0,0,0,.005.01c.489,1.352,2.1,2.862,3.98,4.369.24.194.453.37.639.533.049.043.1.086.143.128s.074.068.111.1c1.75,1.614,1.091,1.983,4.234,5.258,3.584,3.731,6.052,3.8,6.754,3.46.594-.289-.612-2.268-1.949-4.492-.065-.107-.128-.216-.194-.324-.178-.3-.355-.6-.532-.893-1.566-2.677-1.163-3.932-.79-7.915.3-3.236,5.041-18.079,5.041-18.079l-6.87-1.186s-2.073,11.82-4.353,13.639c-1.219.97-2.584.981-3.755,1.7q-.124.075-.244.154A9.014,9.014,0,0,0,975.908,984.658Z" transform="translate(-926.845 -835.675)" fill="#ffb27d"/>
        <path id="Path_218" data-name="Path 218" d="M975.908,1015.716a1.9,1.9,0,0,0-.339,2.027.016.016,0,0,0,.005.01c.6,1.35,2.173,2.852,3.987,4.355.237.2.446.378.632.547.049.043.1.086.143.128s.074.068.111.1c1.75,1.614,1.091,1.983,4.234,5.258,3.584,3.731,6.052,3.8,6.754,3.46.594-.29-.612-2.268-1.949-4.492a15.278,15.278,0,0,1-6.389-4.711c-2.079-2.655-3.491-6.039-4.905-8.116l-.4-.076A9.022,9.022,0,0,0,975.908,1015.716Z" transform="translate(-926.845 -866.733)" fill="#233862"/>
        <path id="Path_219" data-name="Path 219" d="M1132.336,976.227c.423,2.121,3.446,1.768,6.824.944s2.575.157,7.381-.374,6.263-2.322,6.41-3.037c.132-.634-2.244-.859-4.791-1.153-.32-.036-.642-.076-.964-.116-2.876-.362-4.982-2.218-7.594-3.743-2.474-1.445-6.165-7.328-6.165-7.328l-6.592.52s3.457,5.255,4.794,7.54a7.965,7.965,0,0,1,.645,4.492A8.486,8.486,0,0,0,1132.336,976.227Z" transform="translate(-1027.874 -831.515)" fill="#ffb27d"/>
        <path id="Path_220" data-name="Path 220" d="M1149.963,999.6c3.378-.824,2.575.157,7.382-.374s6.263-2.322,6.41-3.037c.131-.634-2.244-.859-4.791-1.153l-.024.049a13.551,13.551,0,0,1-6.884,2.137c-3.261.078-6.715-.857-8.967-.822a8.475,8.475,0,0,0,.05,2.255C1143.563,1000.774,1146.586,1000.422,1149.963,999.6Z" transform="translate(-1038.677 -853.942)" fill="#233862"/>
        <path id="Path_221" data-name="Path 221" d="M1022.126,858.052l-6.168,16.58-8.052,21.648a13.033,13.033,0,0,1-4.274-.392,18.518,18.518,0,0,1-4.133-2.013s2.242-23.246,6.414-36.589c1.069-3.425,2.267-6.2,3.588-7.754C1015.964,841.9,1022.126,858.052,1022.126,858.052Z" transform="translate(-942.911 -755.499)" fill="#233862"/>
        <path id="Path_222" data-name="Path 222" d="M929.192,793.435c-3.507-1.133-12.66-.022-22.587,1.772a6.734,6.734,0,0,1-6.951-3.142h0l-24.982-1.96s-8.25,18.279-3.741,29.929a4.383,4.383,0,0,0,4.365,2.818h0s15.1.026,19.925.028c12.424,0,26.3-8.532,28.092-8.89,2.937-.586,4.109,5.288,7.044,11.456s27.6,27.322,27.6,27.322a21.7,21.7,0,0,0,5.358-.548,5.276,5.276,0,0,0,2.3-1.451S938.3,796.375,929.192,793.435Z" transform="translate(-856.233 -717.218)" fill="#2a4e96"/>
        <path id="Path_223" data-name="Path 223" d="M870.466,572.591a8.862,8.862,0,0,0-4.772-1.243,13.278,13.278,0,0,1-2.3-.141c-9.534-1.4-15.281,12.446-15.619,16.631-.62,7.682-4.685,8.853-10.408,13.662-11.474,9.644-8.114,20.856-1.844,25.024,3.763,2.5,10.4,0,10.4,0,.094.065,18.145-10.083,27.043-14.978C886.3,609.658,875.823,575.783,870.466,572.591Z" transform="translate(-829.675 -571.108)" fill="#233862"/>
        <path id="Path_224" data-name="Path 224" d="M912.731,652.036c.039.026-4.378,1.532-7.33.223-2.778-1.229-4.881-5.8-4.84-5.8,1.264-.058,2.652-1.163,3.723-8.412l.538.193,9.047,3.259s-.657,2.9-1.081,5.667C912.43,649.485,912.238,651.708,912.731,652.036Z" transform="translate(-876.901 -615.767)" fill="#ffb27d"/>
        <path id="Path_225" data-name="Path 225" d="M922.412,641.885s-.362,1.566-.889,4.492a10.217,10.217,0,0,1-8.157-7.751Z" transform="translate(-885.444 -616.154)" fill="#ed975d"/>
        <path id="Path_226" data-name="Path 226" d="M921.943,613.423s-12.379-1.666-11.223-9.359.337-13.089,8.289-12.35,9.043,3.9,9.282,6.566S925.193,613.658,921.943,613.423Z" transform="translate(-883.629 -584.811)" fill="#ffb27d"/>
        <path id="Path_227" data-name="Path 227" d="M920.725,592.7s-7.927,6.827-13.318,7.375-7.431-1.182-7.431-1.182A21.048,21.048,0,0,0,905.068,592a3.792,3.792,0,0,1,3.125-2.234C912.043,589.435,919.34,589.286,920.725,592.7Z" transform="translate(-876.512 -583.448)" fill="#233862"/>
        <path id="Path_228" data-name="Path 228" d="M947.434,594.095a19.521,19.521,0,0,1,3.484,4.466,14.987,14.987,0,0,1,.4,7.966s4.133-8.03,1.8-11.933C950.639,590.454,947.434,594.095,947.434,594.095Z" transform="translate(-908.174 -585.457)" fill="#233862"/>
        <path id="Path_229" data-name="Path 229" d="M901.838,686.553c-.383,25.059-.109,19.823-2.852,22.2-.661.572-2.518.913-4.961,1.073-7.684.508-21.191-.763-21.7-2.183-1.771-4.914-.519-6.44-1.995-13.963-.154-.8-.344-1.666-.568-2.609-1.231-5.167-2.43-6.925,1.947-15.224,3.969-7.517,8.092-13.618,8.463-13.4,10.463,6.216,11.309.995,11.309.995S902.026,674.33,901.838,686.553Z" transform="translate(-855.59 -632.044)" fill="#f99746"/>
        <path id="Path_230" data-name="Path 230" d="M1015.958,894.282l-8.052,21.648a13.033,13.033,0,0,1-4.274-.392,18.518,18.518,0,0,1-4.133-2.013s2.242-23.246,6.414-36.589Z" transform="translate(-942.911 -775.149)" fill="#2a4e96"/>
        <path id="Path_231" data-name="Path 231" d="M937.3,665.444s10.768,1.83,12.031,6.466,5.416,32.78,5.416,32.78-3.038,2.964-5.566.435-7.95-26.333-7.95-26.333Z" transform="translate(-901.411 -634.047)" fill="#f99746"/>
        <path id="Path_232" data-name="Path 232" d="M897.447,751.526c-7.684.508-21.191-.763-21.7-2.183-1.771-4.914-.519-6.44-1.995-13.963l3.71-10.435s-.617,11.621,2.809,14.679,14.03,5.905,15.7,8.46A9.351,9.351,0,0,1,897.447,751.526Z" transform="translate(-859.012 -673.745)" fill="#ed7d2b"/>
        <path id="Path_233" data-name="Path 233" d="M918.508,787.77s7.581-1.685,8.8-1.012,4.211,3.124,4.586,3.977-2.723-.648-3.731-.918c-.652-.175-2.37.421-3.22.7a10.7,10.7,0,0,1-5.77.577Z" transform="translate(-888.875 -714.879)" fill="#ffb27d"/>
        <path id="Path_234" data-name="Path 234" d="M854.044,662.444s-10.179.623-13.7,5.537c-4.963,6.916-14.813,36.4-9.175,40.331,6.349,4.431,28.9,1.169,28.9,1.169s.752-3.508-.292-5.205-18.012-4.444-18.794-5.228,9.795-15.269,9.8-17.618S854.044,662.444,854.044,662.444Z" transform="translate(-829.473 -632.045)" fill="#f99746"/>
        <path id="Path_235" data-name="Path 235" d="M946.061,793.416a14.675,14.675,0,0,0,2.109,2.294,1.554,1.554,0,0,0,.857.184l-1.07-1.927Z" transform="translate(-907.258 -719.427)" fill="#ffb27d"/>
        <path id="Path_236" data-name="Path 236" d="M944.961,787.076l4.617,2.244a.823.823,0,0,1-.765.3,11.019,11.019,0,0,1-2-.551Z" transform="translate(-906.524 -715.197)" fill="#ffb27d"/>
      </g>
      <path id="Path_237" data-name="Path 237" d="M966.741,802.923l-48.238-.017v1.065l47.81.017Z" transform="translate(-888.871 -725.759)" fill="#233862"/>
      <path id="Path_238" data-name="Path 238" d="M952.394,751.346l36.53.013,11-27.323-36.474-.013Z" transform="translate(-911.483 -673.13)" fill="#233862"/>
      <path id="Path_239" data-name="Path 239" d="M1027.345,761.606a1.266,1.266,0,0,0-1.24-1.74,2.492,2.492,0,0,0-2.239,1.738,1.266,1.266,0,0,0,1.24,1.74A2.492,2.492,0,0,0,1027.345,761.606Z" transform="translate(-959.121 -697.043)" fill="#fff"/>
    </g>
    <g id="Group_55" data-name="Group 55" transform="translate(435.601 319.543)">
      <path id="Path_240" data-name="Path 240" d="M1732.051,1114.474a10.487,10.487,0,0,0-8.328.428c-14.169.582-14.7,15.105-13.032,20.51,2.336,7.591-5.93,13.577,3.237,16.649,10.637,3.565,19.563-.664,18.953,1.171C1766.52,1155.884,1743.243,1118.191,1732.051,1114.474Z" transform="translate(-1689.167 -1113.845)" fill="#163560"/>
      <path id="Path_241" data-name="Path 241" d="M1691.161,1267.619a37.143,37.143,0,0,1-3.789,5.729c-2.943,3.687-18.391-5.063-17.06-5.729s9.094-23.03,10.941-25.84,8.149-4.27,8.149-4.27Z" transform="translate(-1662.974 -1196.351)" fill="#f99746"/>
      <path id="Path_242" data-name="Path 242" d="M1858.792,1777.489s4.264,3.891,3.432,6.656-4.68,4.608-5.2,7.987-2.6,5.222-4.472,5.222h-8.925s-1.378-2.378,1.95-3.095,4.583-4.688,4.375-8.374a64.988,64.988,0,0,1,.312-8.6l7.072-1.638Z" transform="translate(-1778.471 -1555.384)" fill="#1f447f"/>
      <path id="Path_243" data-name="Path 243" d="M1732.622,1786.147s1.534,16.485-.338,17.406l-23.957-.049s0-2.765,3.848-3.379,10.608-2.867,11.752-7.885S1732.622,1786.147,1732.622,1786.147Z" transform="translate(-1688.391 -1562.39)" fill="#1c3154"/>
      <path id="Path_244" data-name="Path 244" d="M1749.928,1253.885a95.274,95.274,0,0,1,0,11.073c-.237,4-4.287,9.366-4.861,10.693-1.442,3.327-3.068,3.868-3.068,3.868l-12.578,3.083-4.423,1.082-13.947-4.165s-6.352-17.731-3.8-27.712a76.692,76.692,0,0,1,6.448-16.912s9.478-2.131,26.2-.945Z" transform="translate(-1687.269 -1193.736)" fill="#f99746"/>
      <path id="Path_245" data-name="Path 245" d="M1792.23,1306.522c-.237,4-5.485,9.226-6.06,10.552-1.442,3.327-3.068,3.869-3.068,3.869l-12.578,3.083-2.271-6.509s18.379-4.828,15.423-21.838Z" transform="translate(-1728.372 -1235.16)" fill="#ed7d2b"/>
      <path id="Path_246" data-name="Path 246" d="M1707.793,1379.674s-6.907,21.5-7.351,28.818,13.2,103.98,13.752,107.353c.518,3.179,4.465,5.205,4.465,5.205a5.974,5.974,0,0,0,4.407.34c3.6-1.015,4.731-2.231,4.731-2.231s5.376-68.938,2.05-93.564a390.044,390.044,0,0,1-3.366-45.922Z" transform="translate(-1683.123 -1291.2)" fill="#233862"/>
      <path id="Path_247" data-name="Path 247" d="M1756.369,1377.748s10.536,14.136,11.518,23.692,1.541,43.122,3.633,52.438,9.781,27.243,9.781,56.3a5.8,5.8,0,0,1-3.267,2.552,26.952,26.952,0,0,1-2.873.794,4.516,4.516,0,0,1-5.051-2.4c-5.2-10.465-21.755-44.218-22.6-51.225-.6-4.958-5.828-37.775-17.232-57.031-2.737-4.623,1.68-23.007,1.68-23.007Z" transform="translate(-1702.437 -1289.915)" fill="#2a4e96"/>
      <path id="Path_248" data-name="Path 248" d="M1718.448,1369.7s2.773,2.194,8.281,2.3c6.58.132,22.883-1.677,22.883-1.677a13.478,13.478,0,0,1,.695,4.161s-19.912,5.023-31.449.734A7.291,7.291,0,0,1,1718.448,1369.7Z" transform="translate(-1694.881 -1284.547)" fill="#233862"/>
      <g id="Group_54" data-name="Group 54" transform="translate(27.267 86.333)">
        <path id="Path_249" data-name="Path 249" d="M1733.354,1380.038a3.424,3.424,0,1,1,3-3.4A3.222,3.222,0,0,1,1733.354,1380.038Zm0-5.8a2.442,2.442,0,1,0,2.007,2.4A2.235,2.235,0,0,0,1733.354,1374.237Z" transform="translate(-1730.352 -1373.242)" fill="#fff"/>
      </g>
      <path id="Path_250" data-name="Path 250" d="M1693.079,1342.856l-29.927.28-14.727-34.609,29.927-.279Z" transform="translate(-1648.426 -1243.546)" fill="#b5453c"/>
      <path id="Path_251" data-name="Path 251" d="M1740.057,1354.262l-2.194-2.7a7.711,7.711,0,0,0-2.562-1.549c-1.077-.225-3.352-1.537-3.573-1.168s1.748,3.007,1.748,3.007l.1.014c-2.259,1.7-7.964.2-8.668.892-.853.84,1.175,2.657,2.263,3.677s4.2,2.721,6.626,1.965c1.774-.552,4.564-1.114,4.564-1.114Z" transform="translate(-1699.317 -1270.591)" fill="#ffb27d"/>
      <path id="Path_252" data-name="Path 252" d="M1654.8,1324.594s1.881-2.137,3.078-1.112-.314,6.07-1.454,5.557S1654.149,1325.221,1654.8,1324.594Z" transform="translate(-1652.553 -1253.525)" fill="#ffb27d"/>
      <path id="Path_253" data-name="Path 253" d="M1776.094,1234.67s8.567.945,14.715,12.115c4.848,8.809,13.136,25.049,10.009,29.636-1.373,2.014-14.534,9.18-39.919,5.084,0,0,.4-3.206,2.448-4.692,0,0,21.363-6.859,21.326-8.223-.069-2.581-2.887-4.811-14.82-16.748C1766.609,1248.6,1776.094,1234.67,1776.094,1234.67Z" transform="translate(-1723.465 -1194.457)" fill="#f99746"/>
      <path id="Path_254" data-name="Path 254" d="M1760.806,1209.771c.294-.4-.085-1.654-.555-4a43.794,43.794,0,0,1-1.134-9.1l-.631.106-10.618,1.786s.242,2.839.249,5.514c0,.022,0,.045,0,.067.013,2.323-.627,5.833.157,6.292C1752.3,1212.794,1759.673,1211.292,1760.806,1209.771Z" transform="translate(-1714.771 -1169.105)" fill="#ffb27d"/>
      <path id="Path_255" data-name="Path 255" d="M1747.867,1198.776s.211,4,.218,6.678c5.942-.142,9.113-5.912,10.4-8.464Z" transform="translate(-1714.771 -1169.318)" fill="#e8945b"/>
      <path id="Path_256" data-name="Path 256" d="M1731.329,1167.488s13.92-1.983,12.552-10.632-.493-14.731-9.438-13.831-10.145,4.473-10.391,7.471S1727.674,1167.781,1731.329,1167.488Z" transform="translate(-1698.874 -1133.255)" fill="#ffb27d"/>
      <path id="Path_257" data-name="Path 257" d="M1736.2,1140.787s5.418,9.54,11.49,10.111,8.354-1.4,8.354-1.4a16.727,16.727,0,0,1-6.958-8.9S1738.294,1135.5,1736.2,1140.787Z" transform="translate(-1706.984 -1130.22)" fill="#163560"/>
      <path id="Path_258" data-name="Path 258" d="M1726.706,1145.028a8.721,8.721,0,0,0-3.483,3.743,14.155,14.155,0,0,0-.612,8.238s-3.962-6.439-1.365-10.853C1724,1141.476,1726.706,1145.028,1726.706,1145.028Z" transform="translate(-1696.42 -1133.788)" fill="#163560"/>
    </g>
    <rect id="Rectangle_12" data-name="Rectangle 12" width="773.527" height="2.485" rx="1.243" transform="translate(0 560.271)" fill="#233862"/>
  </g>
</svg>
