<svg xmlns="http://www.w3.org/2000/svg" width="68" height="68" viewBox="0 0 68 68">
  <g id="Group_3299" data-name="Group 3299" transform="translate(-1038 -741)">
    <g id="Group_1362" data-name="Group 1362" transform="translate(14474 14220)">
      <circle id="Ellipse_164" data-name="Ellipse 164" cx="34" cy="34" r="34" transform="translate(-13436 -13479)" fill="#f25f29"/>
    </g>
    <path id="refreshalt" d="M15.113,26.482v3.247q-.886.886-1.476.295l-5.726-4.6a1.177,1.177,0,0,1,0-1.683l5.727-4.6q.59-.59,1.476.295V22.7a23,23,0,0,0,6.391-.871,13.893,13.893,0,0,0,4.929-2.405,4.323,4.323,0,0,0,1.9-3.337.945.945,0,0,1,1.889,0,8.209,8.209,0,0,1-1.24,4.4,9.932,9.932,0,0,1-3.351,3.291,17.934,17.934,0,0,1-4.826,1.992A22.525,22.525,0,0,1,15.113,26.482Zm1.476-15.32q-.59.59-1.476-.295V7.59a23.359,23.359,0,0,0-6.391.856,13.582,13.582,0,0,0-4.929,2.405,4.361,4.361,0,0,0-1.9,3.351.906.906,0,0,1-.281.664.912.912,0,0,1-.664.281.9.9,0,0,1-.664-.281A.909.909,0,0,1,0,14.2,8.188,8.188,0,0,1,1.24,9.79,9.983,9.983,0,0,1,4.59,6.513,17.917,17.917,0,0,1,9.416,4.521a22.538,22.538,0,0,1,5.7-.708V.536Q16-.321,16.589.27l5.727,4.6a1.176,1.176,0,0,1,0,1.683Z" transform="translate(1056.887 759.856)" fill="#fff"/>
  </g>
</svg>
