<svg width="18" height="20" viewBox="0 0 18 20" fill="none" xmlns="http://www.w3.org/2000/svg">
<path d="M6.29199 0.698975H11.708V2.05297H6.29199V0.698975Z" fill="#DF1515"/>
<path d="M0.876038 3.05298V4.40697H2.23003V17.9469C2.23003 18.306 2.37268 18.6504 2.6266 18.9043C2.88053 19.1582 3.22492 19.3009 3.58402 19.3009H14.4159C14.5938 19.3009 14.7698 19.2658 14.9341 19.1978C15.0984 19.1298 15.2476 19.03 15.3734 18.9043C15.4991 18.7786 15.5988 18.6293 15.6669 18.465C15.7349 18.3008 15.7699 18.1247 15.7699 17.9469V4.40697H17.1239V3.05298H0.876038ZM3.58402 17.9485V4.40697H14.4159V17.9469L3.58402 17.9485Z" fill="#DF1515"/>
<path d="M6.29199 7.34253H7.64598V15.3148H6.29199V7.34253Z" fill="#DF1515"/>
<path d="M10.354 7.34253H11.708V15.3148H10.354V7.34253Z" fill="#DF1515"/>
</svg>
