<svg id="person-lines-fill" xmlns="http://www.w3.org/2000/svg" width="27.26" height="22.034" viewBox="0 0 27.26 22.034">
  <path id="Path_2176" data-name="Path 2176" d="M25.556,26.534a1.713,1.713,0,0,0,1.7-1.836c0-1.836-1.7-7.345-10.223-7.345S6.815,22.861,6.815,24.7a1.713,1.713,0,0,0,1.7,1.836ZM17.038,15.517a5.321,5.321,0,0,1-5.111-5.508A5.321,5.321,0,0,1,17.038,4.5a5.321,5.321,0,0,1,5.111,5.508A5.321,5.321,0,0,1,17.038,15.517ZM5.111,18.271a.887.887,0,0,0-.852-.918H.852a.921.921,0,0,0,0,1.836H4.259A.887.887,0,0,0,5.111,18.271Zm3.408-5.508a.887.887,0,0,0-.852-.918H.852a.921.921,0,0,0,0,1.836H7.667A.887.887,0,0,0,8.519,12.763Zm0-5.508a.887.887,0,0,0-.852-.918H.852a.921.921,0,0,0,0,1.836H7.667A.887.887,0,0,0,8.519,7.254ZM5.111,23.779a.887.887,0,0,0-.852-.918H.852a.921.921,0,0,0,0,1.836H4.259A.887.887,0,0,0,5.111,23.779Z" transform="translate(0 -4.5)" fill="#f25f29" fill-rule="evenodd"/>
</svg>
