<svg width="60" height="61" viewBox="0 0 60 61" fill="none" xmlns="http://www.w3.org/2000/svg">
<circle cx="30" cy="30.5" r="30" fill="#17A2B8" style="fill:#17A2B8;fill:color(display-p3 0.0902 0.6353 0.7216);fill-opacity:1;"/>
<path d="M35.2375 18H24.7625C20.2125 18 17.5 20.7125 17.5 25.2625V35.725C17.5 40.2875 20.2125 43 24.7625 43H35.225C39.775 43 42.4875 40.2875 42.4875 35.7375V25.2625C42.5 20.7125 39.7875 18 35.2375 18ZM28.6875 37.3875C28.325 37.75 27.6375 38.1 27.1375 38.175L24.0625 38.6125C23.95 38.625 23.8375 38.6375 23.725 38.6375C23.2125 38.6375 22.7375 38.4625 22.4 38.125C21.9875 37.7125 21.8125 37.1125 21.9125 36.45L22.35 33.375C22.425 32.8625 22.7625 32.1875 23.1375 31.825L28.7125 26.25C28.8125 26.5125 28.9125 26.775 29.05 27.075C29.175 27.3375 29.3125 27.6125 29.4625 27.8625C29.5875 28.075 29.725 28.275 29.8375 28.425C29.975 28.6375 30.1375 28.8375 30.2375 28.95C30.3 29.0375 30.35 29.1 30.375 29.125C30.6875 29.5 31.05 29.85 31.3625 30.1125C31.45 30.2 31.5 30.25 31.525 30.2625C31.7125 30.4125 31.9 30.5625 32.0625 30.675C32.2625 30.825 32.4625 30.9625 32.675 31.075C32.925 31.225 33.2 31.3625 33.475 31.5C33.7625 31.625 34.025 31.7375 34.2875 31.825L28.6875 37.3875ZM36.7125 29.3625L35.5625 30.525C35.4875 30.6 35.3875 30.6375 35.2875 30.6375C35.25 30.6375 35.2 30.6375 35.175 30.625C32.6375 29.9 30.6125 27.875 29.8875 25.3375C29.85 25.2 29.8875 25.05 29.9875 24.9625L31.15 23.8C33.05 21.9 34.8625 21.9375 36.725 23.8C37.675 24.75 38.1375 25.6625 38.1375 26.6125C38.125 27.5125 37.6625 28.4125 36.7125 29.3625Z" fill="white" style="fill:white;fill-opacity:1;"/>
</svg>
