<svg width="46" height="46" viewBox="0 0 46 46" fill="none" xmlns="http://www.w3.org/2000/svg">
<g clip-path="url(#clip0_5207_2961)">
<path d="M22.7094 45.7669C35.2514 45.7669 45.4188 35.5996 45.4188 23.0576C45.4188 10.5155 35.2514 0.348175 22.7094 0.348175C10.1673 0.348175 0 10.5155 0 23.0576C0 35.5996 10.1673 45.7669 22.7094 45.7669Z" fill="#0C98FF"/>
<path d="M27.9873 19.8629C26.9457 20.2101 25.5569 18.8213 25.9041 17.7798M25.8199 17.864L23.5758 20.108C22.6003 21.0836 21.9082 22.3059 21.5736 23.6444L21.4652 24.0781C21.4314 24.2133 21.5538 24.3357 21.6889 24.3019L22.1226 24.1934C23.4611 23.8588 24.6835 23.1667 25.659 22.1912L27.903 19.9472C28.1793 19.6709 28.3345 19.2963 28.3345 18.9056C28.3345 18.0921 27.675 17.4326 26.8614 17.4326C26.4708 17.4326 26.0961 17.5877 25.8199 17.864Z" stroke="white"/>
<path d="M22.7095 17.4326C22.0699 17.4326 21.4303 17.5061 20.8035 17.6531C19.0676 18.0603 17.7122 19.4157 17.305 21.1516C17.011 22.4052 17.011 23.7099 17.305 24.9635C17.7122 26.6994 19.0676 28.0548 20.8035 28.462C22.0571 28.7561 23.3618 28.7561 24.6155 28.462C26.3513 28.0548 27.7067 26.6994 28.1139 24.9635C28.261 24.3367 28.3345 23.6971 28.3345 23.0575" stroke="white" stroke-linecap="round"/>
</g>
<defs>
<clipPath id="clip0_5207_2961">
<rect width="45.4188" height="45.4188" fill="white" transform="translate(0 0.348175)"/>
</clipPath>
</defs>
</svg>
