<svg width="19" height="19" viewBox="0 0 19 19" fill="none" xmlns="http://www.w3.org/2000/svg">
<path d="M4.34786 15.0845C3.89036 15.0845 3.46286 14.927 3.15536 14.6345C2.76536 14.267 2.57786 13.712 2.64536 13.112L2.92286 10.682C2.97536 10.2245 3.25286 9.617 3.57536 9.287L9.73286 2.76949C11.2704 1.14199 12.8754 1.09699 14.5029 2.63449C16.1304 4.17199 16.1754 5.77699 14.6379 7.40449L8.48036 13.922C8.16536 14.2595 7.58036 14.5745 7.12286 14.6495L4.70786 15.062C4.58036 15.0695 4.46786 15.0845 4.34786 15.0845ZM12.1404 2.62699C11.5629 2.62699 11.0604 2.98699 10.5504 3.52699L4.39286 10.052C4.24286 10.2095 4.07036 10.5845 4.04036 10.802L3.76286 13.232C3.73286 13.4795 3.79286 13.682 3.92786 13.8095C4.06286 13.937 4.26536 13.982 4.51286 13.9445L6.92786 13.532C7.14536 13.4945 7.50536 13.2995 7.65536 13.142L13.8129 6.62449C14.7429 5.63449 15.0804 4.71949 13.7229 3.44449C13.1229 2.86699 12.6054 2.62699 12.1404 2.62699Z" fill="#292D32" style="fill:#292D32;fill:color(display-p3 0.1608 0.1765 0.1961);fill-opacity:1;"/>
<path d="M13.1977 8.65697C13.1827 8.65697 13.1602 8.65697 13.1452 8.65697C10.8052 8.42447 8.92271 6.64697 8.56271 4.32197C8.51771 4.01447 8.72771 3.72947 9.03521 3.67697C9.34271 3.63197 9.62771 3.84197 9.68021 4.14947C9.96521 5.96447 11.4352 7.35947 13.2652 7.53947C13.5727 7.56947 13.7977 7.84697 13.7677 8.15447C13.7302 8.43947 13.4827 8.65697 13.1977 8.65697Z" fill="#292D32" style="fill:#292D32;fill:color(display-p3 0.1608 0.1765 0.1961);fill-opacity:1;"/>
<path d="M15.9429 17.5068H2.44287C2.13537 17.5068 1.88037 17.2518 1.88037 16.9443C1.88037 16.6368 2.13537 16.3818 2.44287 16.3818H15.9429C16.2504 16.3818 16.5054 16.6368 16.5054 16.9443C16.5054 17.2518 16.2504 17.5068 15.9429 17.5068Z" fill="#292D32" style="fill:#292D32;fill:color(display-p3 0.1608 0.1765 0.1961);fill-opacity:1;"/>
</svg>
