<?xml version="1.0" encoding="utf-8"?>
<!-- Generator: Adobe Illustrator 23.0.5, SVG Export Plug-In . SVG Version: 6.00 Build 0)  -->
<svg version="1.1" id="Layer_1" xmlns="http://www.w3.org/2000/svg" xmlns:xlink="http://www.w3.org/1999/xlink" x="0px" y="0px"
	 viewBox="0 0 283 283" style="enable-background:new 0 0 283 283;" xml:space="preserve">
<style type="text/css">
	.st0{fill:#2EC5F1;}
	.st1{fill:#F9F9FA;}
	.st2{fill:#FDFDFB;}
</style>
<circle class="st0" cx="140.6" cy="140.6" r="140.6"/>
<path class="st1" d="M190.9,139.3c-3.7,0-6.8,3-6.8,6.8v54.1c0,3.7-3,6.8-6.8,6.8H82.6c-3.7,0-6.8-3-6.8-6.8v-94.7
	c0-3.7,3-6.8,6.8-6.8h54.1c3.7,0,6.8-3,6.8-6.8c0-3.7-3-6.8-6.8-6.8H82.6c-11.2,0-20.3,9.1-20.3,20.3v94.7
	c0,11.2,9.1,20.3,20.3,20.3h94.7c11.2,0,20.3-9.1,20.3-20.3v-54.1C197.6,142.3,194.6,139.3,190.9,139.3z"/>
<path class="st1" d="M125.7,133.1c-0.5,0.5-0.8,1.1-0.9,1.7l-4.8,23.9c-0.2,1.1,0.1,2.3,0.9,3.1c0.6,0.6,1.5,1,2.4,1
	c0.2,0,0.4,0,0.7-0.1l23.9-4.8c0.7-0.1,1.3-0.5,1.7-0.9l53.5-53.5l-23.9-23.9L125.7,133.1z"/>
<path class="st2" d="M219.7,62.2c-6.6-6.6-17.3-6.6-23.9,0l-9.4,9.4l23.9,23.9l9.4-9.4c3.2-3.2,5-7.4,5-12S222.9,65.4,219.7,62.2z"
	/>
</svg>
