<svg width="68" height="68" viewBox="0 0 68 68" fill="none" xmlns="http://www.w3.org/2000/svg">
<g clip-path="url(#clip0_82_2395)">
<path d="M34 68C52.7777 68 68 52.7777 68 34C68 15.2223 52.7777 0 34 0C15.2223 0 0 15.2223 0 34C0 52.7777 15.2223 68 34 68Z" fill="#0C98FF"/>
<path d="M31.3431 26.6921C32.2169 26.4871 33.1084 26.3846 34 26.3846C34.3823 26.3846 34.6923 26.0747 34.6923 25.6923C34.6923 25.31 34.3823 25 34 25C33.0023 25 32.0047 25.1147 31.0269 25.344C28.2071 26.0055 26.0055 28.2071 25.344 31.0269C24.8853 32.9824 24.8853 35.0176 25.344 36.9731C26.0055 39.7929 28.2072 41.9945 31.0269 42.656C32.9824 43.1147 35.0176 43.1147 36.9731 42.656C39.7928 41.9945 41.9945 39.7929 42.656 36.9731C42.8853 35.9953 43 34.9976 43 34C43 33.6176 42.69 33.3077 42.3077 33.3077C41.9253 33.3077 41.6154 33.6176 41.6154 34C41.6154 34.8915 41.5129 35.7831 41.3079 36.6569C40.7666 38.9647 38.9647 40.7666 36.6569 41.3079C34.9093 41.7179 33.0907 41.7179 31.3431 41.3079C29.0353 40.7666 27.2334 38.9647 26.6921 36.6569C26.2821 34.9093 26.2821 33.0907 26.6921 31.3431C27.2334 29.0353 29.0353 27.2334 31.3431 26.6921Z" fill="white"/>
<path fill-rule="evenodd" clip-rule="evenodd" d="M38.2626 25.6931C38.781 25.2474 39.4438 25 40.1321 25C41.716 25 43 26.284 43 27.8679C43 28.5562 42.7526 29.219 42.3069 29.7374C42.2601 29.7918 42.2111 29.8446 42.16 29.8957L38.8458 33.21C37.3162 34.7395 35.3997 35.8246 33.3012 36.3493L32.6606 36.5094C31.954 36.6861 31.3139 36.046 31.4906 35.3394L31.6507 34.6988C32.1754 32.6003 33.2605 30.6838 34.79 29.1542L38.1043 25.84C38.1554 25.7889 38.2082 25.7399 38.2626 25.6931ZM40.253 29.8446C39.7729 29.651 39.3389 29.3432 38.9979 29.0021C38.6568 28.6611 38.349 28.2271 38.1554 27.747L35.7691 30.1333C34.4263 31.4761 33.471 33.1562 33.0037 34.9963C34.8438 34.529 36.5239 33.5737 37.8667 32.2309L40.253 29.8446Z" fill="white"/>
</g>
<defs>
<clipPath id="clip0_82_2395">
<rect width="68" height="68" fill="white"/>
</clipPath>
</defs>
</svg>
