<svg width="16" height="16" viewBox="0 0 16 16" fill="none" xmlns="http://www.w3.org/2000/svg">
<path d="M15.215 6.165L15.25 13.648C15.2513 13.8467 15.2132 14.0436 15.1378 14.2274C15.0624 14.4112 14.9512 14.5782 14.8107 14.7187C14.6702 14.8592 14.5032 14.9703 14.3194 15.0458C14.1356 15.1212 13.9387 15.1593 13.74 15.158H1.76C1.56097 15.1618 1.36327 15.1248 1.17907 15.0493C0.99488 14.9738 0.828097 14.8614 0.689005 14.719C0.546497 14.58 0.434013 14.4132 0.358505 14.229C0.282997 14.0448 0.24607 13.847 0.250005 13.648V6.165C0.24072 5.90567 0.300674 5.64854 0.423701 5.42006C0.546728 5.19158 0.728389 5 0.950005 4.865L7.733 0.895996L14.513 4.866C14.7348 5.00066 14.9168 5.19198 15.0402 5.42029C15.1636 5.64859 15.2239 5.90564 15.215 6.165ZM7.733 9.889L13.95 6.025L7.733 2.406L1.55 6.025L7.733 9.889Z" fill="#034FC1"/>
</svg>
