<svg width="10" height="16" viewBox="0 0 10 16" fill="none" xmlns="http://www.w3.org/2000/svg">
<path d="M2.55831 15.8519H5.87731V9.20591H8.86731L9.19631 5.90591H5.87731V4.23691C5.87731 4.12792 5.89878 4.01999 5.94049 3.91929C5.9822 3.81859 6.04334 3.72709 6.12041 3.65002C6.19749 3.57294 6.28899 3.51181 6.38969 3.47009C6.49039 3.42838 6.59832 3.40691 6.70731 3.40691H9.19631V0.0869141H6.70731C6.16237 0.086914 5.62277 0.194264 5.11933 0.402833C4.61588 0.611403 4.15846 0.917105 3.77317 1.30248C3.38789 1.68786 3.0823 2.14536 2.87385 2.64885C2.6654 3.15235 2.55818 3.69198 2.55831 4.23691V5.90291H0.899312L0.570312 9.20291H2.55831V15.8519Z" fill="#828282"/>
</svg>
