<svg xmlns="http://www.w3.org/2000/svg" width="42.39" height="42.857" viewBox="0 0 42.39 42.857">
  <g id="Group_3298" data-name="Group 3298" transform="translate(-507.908 -779.246)">
    <g id="Group_3297" data-name="Group 3297" transform="translate(507.908 779.246)">
      <path id="Subtraction_8" data-name="Subtraction 8" d="M15.71,36.416h0C15.1,35.845.737,22.428.431,22.165A1.327,1.327,0,0,1,0,21.209.645.645,0,0,1,.216,20.7L1.88,18.857l.212-2.384L0,13.618.039,8.756l3.989-.684L4.169,4.6l3.871-.59L8.347.543,8.521.524C11.749.181,13.484,0,13.539,0c.093,0,18.342,17.827,18.527,18.007l-.189,5.027-3.351.684-.189,3.587-3.658.755-.26,3.658L21,32.333l-.4,3.587ZM27.228,18.193a1.141,1.141,0,0,0-.837.368L15.2,30.738a1.137,1.137,0,1,0,1.674,1.539L28.065,20.1a1.137,1.137,0,0,0-.837-1.907ZM12.663,3.682a.942.942,0,0,0-.668.276C8.951,6.982,3.862,12,3.162,12.574a.948.948,0,0,0,.179,1.717.865.865,0,0,0,.279.061c.291,0,.693-.239,2.083-1.543C7.055,11.54,9.284,9.324,13.33,5.3a.947.947,0,0,0-.668-1.62Z" transform="translate(10.325)"/>
      <path id="Path_2177" data-name="Path 2177" d="M7675.036,7390.781a1.137,1.137,0,0,1-1.137-1.137v-3.283a1.137,1.137,0,0,1,2.274,0v3.283A1.137,1.137,0,0,1,7675.036,7390.781Z" transform="translate(-7671.905 -7347.924)" fill="#f25f29"/>
      <path id="Path_2178" data-name="Path 2178" d="M7664.513,7368.529a1.137,1.137,0,0,1-1.137-1.138v-2.239a1.137,1.137,0,0,1,2.273,0v2.239A1.137,1.137,0,0,1,7664.513,7368.529Z" transform="translate(-7663.376 -7330.734)" fill="#f25f29"/>
      <path id="Path_2179" data-name="Path 2179" d="M7690.9,7357.883a1.137,1.137,0,0,1-1.137-1.137v-2.117a1.137,1.137,0,0,1,2.274,0v2.117A1.137,1.137,0,0,1,7690.9,7357.883Z" transform="translate(-7684.764 -7322.205)" fill="#f25f29"/>
      <path id="Path_2180" data-name="Path 2180" d="M7708,7346.973a1.137,1.137,0,0,1-1.009-.61l-1.074-2.056a1.137,1.137,0,0,1,2.016-1.053l1.074,2.055a1.138,1.138,0,0,1-1.007,1.664Z" transform="translate(-7697.754 -7313.412)" fill="#f25f29"/>
      <path id="Path_2181" data-name="Path 2181" d="M7712.731,7383.371a1.137,1.137,0,0,1-1-.593l-1.1-2.025a1.137,1.137,0,0,1,2-1.089l1.1,2.025a1.138,1.138,0,0,1-1,1.682Z" transform="translate(-7701.56 -7342.937)" fill="#f25f29"/>
      <path id="Path_2182" data-name="Path 2182" d="M7685.882,7320.8a1.125,1.125,0,0,1-.486-.11,1.136,1.136,0,0,1-.54-1.515l.951-2a1.137,1.137,0,0,1,2.054.976l-.95,2A1.138,1.138,0,0,1,7685.882,7320.8Z" transform="translate(-7680.695 -7292.243)" fill="#f25f29"/>
      <path id="Path_2183" data-name="Path 2183" d="M7712.639,7320.742a1.136,1.136,0,0,1-1.009-.611l-1.014-1.942a1.138,1.138,0,0,1,2.018-1.052l1.012,1.943a1.137,1.137,0,0,1-1.007,1.662Z" transform="translate(-7701.56 -7292.243)" fill="#f25f29"/>
      <path id="Path_2184" data-name="Path 2184" d="M7664.513,7331.369a1.137,1.137,0,0,1-1.137-1.137v-2a1.137,1.137,0,0,1,2.273,0v2A1.137,1.137,0,0,1,7664.513,7331.369Z" transform="translate(-7663.376 -7300.814)" fill="#f25f29"/>
      <path id="Path_2185" data-name="Path 2185" d="M7670.177,7299.282a1.137,1.137,0,0,1-.507-2.155c.274-.172,1.549-1.069,2.668-1.87a1.137,1.137,0,1,1,1.323,1.849c-2.876,2.06-2.959,2.08-3.208,2.143A1.176,1.176,0,0,1,7670.177,7299.282Z" transform="translate(-7667.966 -7274.833)" fill="#f25f29"/>
      <path id="Path_2186" data-name="Path 2186" d="M7687.314,7270.119h-2.24a1.137,1.137,0,0,1,0-2.274h2.24a1.137,1.137,0,0,1,0,2.274Z" transform="translate(-7680.04 -7252.788)" fill="#f25f29"/>
    </g>
    <path id="Path_2175" data-name="Path 2175" d="M1.968.215v.37H.455V1.758H1.683v.37H.455V3.7H0V.215ZM2.662,0V3.7H2.208V0Zm.295,2.318a1.537,1.537,0,0,1,.17-.737,1.232,1.232,0,0,1,.467-.492A1.281,1.281,0,0,1,4.256.914a1.215,1.215,0,0,1,.624.155,1.032,1.032,0,0,1,.395.39v-.5h.46V3.7h-.46V3.187a1.071,1.071,0,0,1-.4.4,1.2,1.2,0,0,1-.622.157,1.241,1.241,0,0,1-.659-.18,1.261,1.261,0,0,1-.465-.5A1.571,1.571,0,0,1,2.957,2.318Zm2.318,0a1.113,1.113,0,0,0-.125-.539.882.882,0,0,0-.337-.352.956.956,0,0,0-.932,0,.87.87,0,0,0-.335.35,1.113,1.113,0,0,0-.125.539,1.138,1.138,0,0,0,.125.547.883.883,0,0,0,.335.355.905.905,0,0,0,.465.122.918.918,0,0,0,.467-.122.878.878,0,0,0,.337-.355A1.127,1.127,0,0,0,5.274,2.323Zm1.938.954L8.062.959h.484L7.472,3.7H6.943L5.869.959h.489Zm2.667.465a1.4,1.4,0,0,1-.7-.175,1.245,1.245,0,0,1-.489-.5,1.524,1.524,0,0,1-.177-.747A1.48,1.48,0,0,1,8.7,1.581a1.256,1.256,0,0,1,.5-.494,1.525,1.525,0,0,1,1.409,0,1.261,1.261,0,0,1,.5.492,1.476,1.476,0,0,1,.182.744,1.459,1.459,0,0,1-.187.747,1.3,1.3,0,0,1-.507.5A1.454,1.454,0,0,1,9.88,3.741Zm0-.4a.96.96,0,0,0,.46-.115.874.874,0,0,0,.347-.345,1.1,1.1,0,0,0,.132-.559,1.121,1.121,0,0,0-.13-.559.85.85,0,0,0-.34-.342.98.98,0,0,0-.912,0,.824.824,0,0,0-.332.342,1.157,1.157,0,0,0-.125.559,1.189,1.189,0,0,0,.122.564.813.813,0,0,0,.327.342A.919.919,0,0,0,9.88,3.342ZM14,.959V3.7h-.455v-.4a.885.885,0,0,1-.362.327,1.119,1.119,0,0,1-.512.117A1.227,1.227,0,0,1,12.1,3.6a.962.962,0,0,1-.4-.4,1.307,1.307,0,0,1-.147-.644V.959H12V2.5a.872.872,0,0,0,.2.622.732.732,0,0,0,.559.217.747.747,0,0,0,.574-.225.925.925,0,0,0,.21-.654V.959Zm.914.445a.872.872,0,0,1,.342-.365A1.058,1.058,0,0,1,15.8.909v.47h-.12q-.764,0-.764.829V3.7H14.46V.959h.455Z" transform="matrix(0.688, -0.725, 0.725, 0.688, 526.25, 801.71)" fill="#f25f29"/>
  </g>
</svg>
