<svg xmlns="http://www.w3.org/2000/svg" xmlns:xlink="http://www.w3.org/1999/xlink" width="160.322" height="198.475" viewBox="0 0 160.322 198.475">
  <defs>
    <linearGradient id="linear-gradient" x1="0.105" y1="0.899" x2="0.928" y2="-0.041" gradientUnits="objectBoundingBox">
      <stop offset="0" stop-color="#ef8106"/>
      <stop offset="1" stop-color="#d53700"/>
    </linearGradient>
    <linearGradient id="linear-gradient-2" x1="0.276" y1="0.737" x2="1.034" gradientUnits="objectBoundingBox">
      <stop offset="0" stop-color="#f68522"/>
      <stop offset="1" stop-color="#ee4709"/>
    </linearGradient>
  </defs>
  <g id="Group_1646" data-name="Group 1646" transform="translate(-0.188)">
    <path id="Subtraction_6" data-name="Subtraction 6" d="M30.1,0A30.1,30.1,0,1,1,0,30.1,30.1,30.1,0,0,1,30.1,0Z" transform="translate(0.188 138.283)" fill="url(#linear-gradient)"/>
    <path id="Union_11" data-name="Union 11" d="M110.781,187.477,88.4,159.835a81.134,81.134,0,0,1-8.267.421A80.129,80.129,0,0,1,0,80.129V44.7A44.7,44.7,0,0,1,44.7,0H80.129a80.128,80.128,0,0,1,55.586,137.841l14.4,17.784a25.307,25.307,0,1,1-39.335,31.853Z" transform="translate(0.253 0)" fill="url(#linear-gradient-2)"/>
  </g>
</svg>
