<svg width="16" height="16" viewBox="0 0 16 16" fill="none" xmlns="http://www.w3.org/2000/svg">
<path fill-rule="evenodd" clip-rule="evenodd" d="M7.882 0.0869141C5.741 0.0869141 5.473 0.095914 4.632 0.133914C3.9782 0.147529 3.33142 0.271612 2.719 0.500914C2.19539 0.703291 1.71985 1.01288 1.32291 1.40983C0.925968 1.80677 0.616377 2.2823 0.414 2.80591C0.18492 3.41839 0.0608446 4.06514 0.0469999 4.71891C0.00899993 5.55991 0 5.82791 0 7.96891C0 10.1099 0.00899993 10.3779 0.0469999 11.2189C0.0606151 11.8727 0.184698 12.5195 0.414 13.1319C0.616317 13.6558 0.925989 14.1317 1.32312 14.5288C1.72026 14.9259 2.19607 15.2356 2.72 15.4379C3.33248 15.667 3.97923 15.7911 4.633 15.8049C5.474 15.8429 5.742 15.8519 7.883 15.8519C10.024 15.8519 10.292 15.8429 11.133 15.8049C11.7868 15.7913 12.4336 15.6672 13.046 15.4379C13.5699 15.2356 14.0457 14.9259 14.4429 14.5288C14.84 14.1317 15.1497 13.6558 15.352 13.1319C15.5811 12.5194 15.7052 11.8727 15.719 11.2189C15.757 10.3779 15.766 10.1099 15.766 7.96891C15.766 5.82791 15.757 5.55991 15.719 4.71891C15.7054 4.06512 15.5813 3.41833 15.352 2.80591C15.1497 2.28199 14.84 1.80617 14.4429 1.40904C14.0457 1.0119 13.5699 0.702231 13.046 0.499914C12.4335 0.270834 11.7868 0.146759 11.133 0.132914C10.291 0.0959141 10.023 0.0869141 7.882 0.0869141ZM7.882 1.50691C9.982 1.50691 10.236 1.51491 11.066 1.55291C11.5662 1.5589 12.0617 1.65056 12.531 1.82391C12.8721 1.95495 13.1819 2.15618 13.4403 2.41458C13.6987 2.67298 13.9 2.98278 14.031 3.32391C14.2035 3.79264 14.2945 4.28747 14.3 4.78691C14.338 5.61891 14.346 5.86691 14.346 7.97191C14.346 10.0769 14.338 10.3259 14.3 11.1559C14.2935 11.6561 14.2018 12.1515 14.029 12.6209C13.898 12.962 13.6967 13.2718 13.4383 13.5302C13.1799 13.7886 12.8701 13.9899 12.529 14.1209C12.0604 14.2941 11.5656 14.3858 11.066 14.3919C10.235 14.4299 9.986 14.4379 7.881 14.4379C5.776 14.4379 5.528 14.4229 4.7 14.3869C4.19983 14.3804 3.70441 14.2887 3.235 14.1159C2.89387 13.9849 2.58407 13.7836 2.32567 13.5252C2.06727 13.2668 1.86603 12.957 1.735 12.6159C1.56126 12.1474 1.46958 11.6525 1.464 11.1529C1.426 10.3209 1.418 10.0729 1.418 7.96791C1.418 5.86291 1.426 5.61391 1.464 4.78391C1.46999 4.28369 1.56165 3.78818 1.735 3.31891C1.86603 2.97778 2.06727 2.66798 2.32567 2.40958C2.58407 2.15118 2.89387 1.94995 3.235 1.81891C3.7044 1.64665 4.2 1.55667 4.7 1.55291C5.532 1.51491 5.78 1.50691 7.885 1.50691M7.885 10.5959C7.36543 10.5959 6.85752 10.4418 6.42552 10.1532C5.99351 9.86453 5.6568 9.45424 5.45797 8.97422C5.25914 8.4942 5.20711 7.966 5.30848 7.45641C5.40984 6.94682 5.66004 6.47874 6.02743 6.11134C6.39482 5.74395 6.86291 5.49375 7.3725 5.39239C7.88209 5.29103 8.41029 5.34305 8.89031 5.54188C9.37033 5.74071 9.78061 6.07742 10.0693 6.50943C10.3579 6.94144 10.512 7.44934 10.512 7.96891C10.512 8.66564 10.2352 9.33383 9.74257 9.82648C9.24991 10.3191 8.58172 10.5959 7.885 10.5959ZM7.885 3.92091C7.08438 3.92091 6.30174 4.15833 5.63605 4.60313C4.97036 5.04792 4.45152 5.68014 4.14514 6.41981C3.83875 7.15949 3.75859 7.9734 3.91478 8.75864C4.07097 9.54387 4.45651 10.2652 5.02263 10.8313C5.58875 11.3974 6.31004 11.7829 7.09527 11.9391C7.88051 12.0953 8.69443 12.0152 9.4341 11.7088C10.1738 11.4024 10.806 10.8836 11.2508 10.2179C11.6956 9.55217 11.933 8.76953 11.933 7.96891C11.933 6.89532 11.5065 5.86569 10.7474 5.10655C9.98822 4.3474 8.9586 3.92091 7.885 3.92091ZM13.038 3.76091C13.038 3.94801 12.9825 4.13091 12.8786 4.28648C12.7746 4.44205 12.6269 4.5633 12.454 4.6349C12.2812 4.7065 12.091 4.72524 11.9074 4.68874C11.7239 4.65224 11.5554 4.56214 11.4231 4.42984C11.2908 4.29754 11.2007 4.12898 11.1642 3.94547C11.1277 3.76196 11.1464 3.57175 11.218 3.3989C11.2896 3.22604 11.4109 3.07829 11.5664 2.97434C11.722 2.8704 11.9049 2.81491 12.092 2.81491C12.3429 2.81491 12.5835 2.91458 12.7609 3.09199C12.9383 3.2694 13.038 3.51002 13.038 3.76091Z" fill="#828282"/>
</svg>
