<svg xmlns="http://www.w3.org/2000/svg" width="31.5" height="36" viewBox="0 0 31.5 36">
  <g id="Group_3299" data-name="Group 3299" transform="translate(-878 -727)">
    <rect id="Rectangle_11157" data-name="Rectangle 11157" width="28" height="29" transform="translate(880 730)" fill="#f25f29"/>
    <path id="invoice" d="M29.265,33.75,27.015,36l-2.25-2.25L22.515,36l-2.25-2.25L18.015,36l-2.25-2.25L13.515,36l-2.25-2.25L9.015,36l-2.25-2.25L4.515,36l-2.25-2.25L.015,36V2.25A2.162,2.162,0,0,1,.683.668,2.162,2.162,0,0,1,2.265,0h27a2.162,2.162,0,0,1,1.582.668,2.162,2.162,0,0,1,.668,1.582V36ZM5.64,29.25h6.75a1.125,1.125,0,0,0,0-2.25H5.64a1.125,1.125,0,0,0,0,2.25ZM27.015,5.625A1.141,1.141,0,0,0,25.89,4.5H5.64A1.141,1.141,0,0,0,4.515,5.625v13.5A1.141,1.141,0,0,0,5.64,20.25H18.015v3.375A1.141,1.141,0,0,0,19.14,24.75h6.75a1.141,1.141,0,0,0,1.125-1.125ZM20.265,20.25h4.5V22.5h-4.5Zm0-4.5h4.5V18h-4.5Zm0-4.5h4.5V13.5h-4.5Zm0-4.5h4.5V9h-4.5Zm-13.5,9h11.25V18H6.765Zm0-4.5h11.25V13.5H6.765Zm0-4.5h11.25V9H6.765Z" transform="translate(877.985 727)"/>
  </g>
</svg>
