<svg width="22" height="22" viewBox="0 0 22 22" fill="none" xmlns="http://www.w3.org/2000/svg">
<g clip-path="url(#clip0_5331_4147)">
<path d="M1.8335 16.4999V19.2499C1.8335 19.7999 2.20016 20.1666 2.75016 20.1666H6.41683V17.4166H9.16683V14.6666H11.0002L12.2835 13.3833C13.5575 13.8271 14.9444 13.8254 16.2174 13.3785C17.4903 12.9316 18.5739 12.0659 19.2908 10.9231C20.0078 9.78024 20.3157 8.42794 20.1642 7.08737C20.0127 5.7468 19.4107 4.49734 18.4567 3.54338C17.5028 2.58942 16.2533 1.98745 14.9127 1.83593C13.5722 1.68441 12.2199 1.99231 11.077 2.70928C9.93423 3.42625 9.06855 4.50983 8.62164 5.78275C8.17473 7.05568 8.17303 8.44259 8.61683 9.71661L1.8335 16.4999Z" stroke="#F25F29" stroke-width="2" stroke-linecap="round" stroke-linejoin="round"/>
<path d="M15.1252 7.3333C15.3783 7.3333 15.5835 7.12809 15.5835 6.87496C15.5835 6.62183 15.3783 6.41663 15.1252 6.41663C14.872 6.41663 14.6668 6.62183 14.6668 6.87496C14.6668 7.12809 14.872 7.3333 15.1252 7.3333Z" stroke="#F25F29" stroke-width="2" stroke-linecap="round" stroke-linejoin="round"/>
</g>
<defs>
<clipPath id="clip0_5331_4147">
<rect width="22" height="22" fill="white"/>
</clipPath>
</defs>
</svg>
