<svg width="60" height="61" viewBox="0 0 60 61" fill="none" xmlns="http://www.w3.org/2000/svg">
<rect y="0.5" width="60" height="60" rx="30" fill="#A561E8" style="fill:#A561E8;fill:color(display-p3 0.6471 0.3804 0.9098);fill-opacity:1;"/>
<path d="M45.861 24.6095V26.1905H42.716V36.4245H40.778V26.1905H37.616V24.6095H45.861Z" fill="white" style="fill:white;fill-opacity:1;"/>
<path d="M30.286 36.5435C29.1866 36.5435 28.1723 36.2885 27.243 35.7785C26.325 35.2572 25.594 34.5375 25.05 33.6195C24.5173 32.6902 24.251 31.6475 24.251 30.4915C24.251 29.3355 24.5173 28.2985 25.05 27.3805C25.594 26.4625 26.325 25.7485 27.243 25.2385C28.1723 24.7172 29.1866 24.4565 30.286 24.4565C31.3966 24.4565 32.411 24.7172 33.329 25.2385C34.2583 25.7485 34.9893 26.4625 35.522 27.3805C36.0546 28.2985 36.321 29.3355 36.321 30.4915C36.321 31.6475 36.0546 32.6902 35.522 33.6195C34.9893 34.5375 34.2583 35.2572 33.329 35.7785C32.411 36.2885 31.3966 36.5435 30.286 36.5435ZM30.286 34.8605C31.068 34.8605 31.765 34.6848 32.377 34.3335C32.989 33.9708 33.465 33.4608 33.805 32.8035C34.1563 32.1348 34.332 31.3642 34.332 30.4915C34.332 29.6188 34.1563 28.8538 33.805 28.1965C33.465 27.5392 32.989 27.0348 32.377 26.6835C31.765 26.3322 31.068 26.1565 30.286 26.1565C29.504 26.1565 28.807 26.3322 28.195 26.6835C27.583 27.0348 27.1013 27.5392 26.75 28.1965C26.41 28.8538 26.24 29.6188 26.24 30.4915C26.24 31.3642 26.41 32.1348 26.75 32.8035C27.1013 33.4608 27.583 33.9708 28.195 34.3335C28.807 34.6848 29.504 34.8605 30.286 34.8605Z" fill="white" style="fill:white;fill-opacity:1;"/>
<path d="M20.6502 36.4245L16.0772 31.1375V36.4245H14.1392V24.6095H16.0772V29.9985L20.6672 24.6095H23.0982L17.9642 30.5255L23.1832 36.4245H20.6502Z" fill="white" style="fill:white;fill-opacity:1;"/>
</svg>
