<svg xmlns="http://www.w3.org/2000/svg" width="24.424" height="14.956" viewBox="0 0 24.424 14.956">
  <path id="Path_2173" data-name="Path 2173" d="M2.927-4.183,8.306-12.76h2.619L2.944-.848ZM1.494-12.76h2.1V1.894h-2.1Zm3.56,7.035,1.74-1.5,4.667,9.121H8.938Zm8.951,7.77a4.322,4.322,0,0,1-2.4-.67A4.413,4.413,0,0,1,10-.52a6.643,6.643,0,0,1-.571-2.837V-7.509A6.643,6.643,0,0,1,10-10.346a4.413,4.413,0,0,1,1.608-1.895,4.322,4.322,0,0,1,2.4-.67,4.344,4.344,0,0,1,2.4.67,4.374,4.374,0,0,1,1.608,1.895,6.688,6.688,0,0,1,.567,2.837v4.152A6.688,6.688,0,0,1,18.017-.52a4.374,4.374,0,0,1-1.608,1.895A4.344,4.344,0,0,1,14.005,2.045Zm0-2.4a2.251,2.251,0,0,0,1.27-.363,2.349,2.349,0,0,0,.848-1.028,3.73,3.73,0,0,0,.3-1.542V-7.58a3.766,3.766,0,0,0-.3-1.547,2.345,2.345,0,0,0-.848-1.033,2.251,2.251,0,0,0-1.27-.363,2.23,2.23,0,0,0-1.266.363A2.356,2.356,0,0,0,11.9-9.127a3.766,3.766,0,0,0-.3,1.547v4.293a3.73,3.73,0,0,0,.3,1.542,2.361,2.361,0,0,0,.844,1.028A2.23,2.23,0,0,0,14.005-.354Zm6.271-11.207h2.1V1.894h-2.1Zm-3.551-1.2h9.193v2.308H16.725Z" transform="translate(-1.494 12.911)" fill="#f25f29"/>
</svg>
