<svg xmlns="http://www.w3.org/2000/svg" width="40.115" height="44.813" viewBox="0 0 40.115 44.813">
  <g id="Loyality_Customer" data-name="Loyality Customer" transform="translate(2498.781 -1992.428)">
    <g id="Group_1033" data-name="Group 1033" transform="translate(-2498.78 1992.428)">
      <path id="Path_700" data-name="Path 700" d="M-3988.177,2412.59l-6.943,9.75,7.437.926,4.413,5.708,4.937-11.261,6.881.37s4.659,11.014,4.659,10.891,4.351-5.708,4.351-5.708l7.437-.987-8.764-12.341Z" transform="translate(3995.12 -2384.161)" fill="#f25f29"/>
      <path id="Polygon_10" data-name="Polygon 10" d="M20.12,1.745a3.668,3.668,0,0,1,4.944,1.325h0a3.668,3.668,0,0,0,3.1,1.792h0a3.668,3.668,0,0,1,3.619,3.619h0a3.668,3.668,0,0,0,1.792,3.1h0a3.668,3.668,0,0,1,1.325,4.945h0a3.668,3.668,0,0,0,0,3.584h0a3.668,3.668,0,0,1-1.325,4.945h0a3.668,3.668,0,0,0-1.792,3.1h0a3.668,3.668,0,0,1-3.619,3.619h0a3.668,3.668,0,0,0-3.1,1.792h0A3.668,3.668,0,0,1,20.12,34.9h0a3.668,3.668,0,0,0-3.583,0h0a3.668,3.668,0,0,1-4.944-1.325h0a3.668,3.668,0,0,0-3.1-1.792h0a3.668,3.668,0,0,1-3.619-3.619h0a3.668,3.668,0,0,0-1.792-3.1h0a3.668,3.668,0,0,1-1.325-4.945h0a3.668,3.668,0,0,0,0-3.584h0A3.668,3.668,0,0,1,3.07,11.586h0a3.668,3.668,0,0,0,1.792-3.1h0A3.668,3.668,0,0,1,8.483,4.862h0a3.668,3.668,0,0,0,3.1-1.792h0a3.668,3.668,0,0,1,4.944-1.325h0a3.668,3.668,0,0,0,3.583,0Z" transform="translate(1.731)"/>
      <ellipse id="Ellipse_384" data-name="Ellipse 384" cx="13.091" cy="13.088" rx="13.091" ry="13.088" transform="translate(6.967 5.235)" fill="#eee"/>
    </g>
    <path id="Path_699" data-name="Path 699" d="M-3794.942,2111.121a12.348,12.348,0,0,0,9.966,5.122,11.306,11.306,0,0,0,9.6-5.122,3.309,3.309,0,0,0-1.419-1.481c-.895-.37-5.461-2.16-5.461-2.16a3.449,3.449,0,0,1-.21-.939c-.009-.407,0-.681,0-.681a10.507,10.507,0,0,0,1.823-2.964,7.048,7.048,0,0,0,0-4.345,4.731,4.731,0,0,0-2.72-2.9,6.387,6.387,0,0,0-3.852.128,5.032,5.032,0,0,0-2.044,1.917,6.691,6.691,0,0,0-.712,2.428,8.525,8.525,0,0,0,.366,2.7,8.752,8.752,0,0,0,.712,1.515,12.969,12.969,0,0,0,1.113,1.522s.03,1.385-.195,1.525a15.653,15.653,0,0,1-1.756.814,42.792,42.792,0,0,0-4.016,1.657A2.131,2.131,0,0,0-3794.942,2111.121Z" transform="translate(1306.439 -93.204)"/>
  </g>
</svg>
