<svg width="96" height="38" viewBox="0 0 96 38" fill="none" xmlns="http://www.w3.org/2000/svg">
<rect x="0.5" y="0.00146484" width="95" height="38" rx="19" fill="#F25F29"/>
<path d="M19.2995 20.1298L22.1295 17.2998L15.1095 10.2898C13.5495 11.8498 13.5495 14.3798 15.1095 15.9498L19.2995 20.1298ZM26.0795 18.3198C27.6095 19.0298 29.7595 18.5298 31.3495 16.9398C33.2595 15.0298 33.6295 12.2898 32.1595 10.8198C30.6995 9.35975 27.9595 9.71975 26.0395 11.6298C24.4495 13.2198 23.9495 15.3698 24.6595 16.8998L14.8995 26.6598L16.3095 28.0698L23.1995 21.1998L30.0795 28.0798L31.4895 26.6698L24.6095 19.7898L26.0795 18.3198Z" fill="white"/>
<path d="M56.476 13.8135V23.5015H55.202V16.2775L51.982 23.5015H51.086L47.852 16.2635V23.5015H46.578V13.8135H47.95L51.534 21.8215L55.118 13.8135H56.476ZM65.6366 19.3715C65.6366 19.6141 65.6226 19.8708 65.5946 20.1415H59.4626C59.5093 20.8975 59.7659 21.4901 60.2326 21.9195C60.7086 22.3395 61.2826 22.5495 61.9546 22.5495C62.5053 22.5495 62.9626 22.4235 63.3266 22.1715C63.6999 21.9101 63.9613 21.5648 64.1106 21.1355H65.4826C65.2773 21.8728 64.8666 22.4748 64.2506 22.9415C63.6346 23.3988 62.8693 23.6275 61.9546 23.6275C61.2266 23.6275 60.5733 23.4641 59.9946 23.1375C59.4253 22.8108 58.9773 22.3488 58.6506 21.7515C58.3239 21.1448 58.1606 20.4448 58.1606 19.6515C58.1606 18.8581 58.3193 18.1628 58.6366 17.5655C58.9539 16.9681 59.3973 16.5108 59.9666 16.1935C60.5453 15.8668 61.2079 15.7035 61.9546 15.7035C62.6826 15.7035 63.3266 15.8621 63.8866 16.1795C64.4466 16.4968 64.8759 16.9355 65.1746 17.4955C65.4826 18.0461 65.6366 18.6715 65.6366 19.3715ZM64.3206 19.1055C64.3206 18.6201 64.2133 18.2048 63.9986 17.8595C63.7839 17.5048 63.4899 17.2388 63.1166 17.0615C62.7526 16.8748 62.3466 16.7815 61.8986 16.7815C61.2546 16.7815 60.7039 16.9868 60.2466 17.3975C59.7986 17.8081 59.5419 18.3775 59.4766 19.1055H64.3206ZM71.0562 15.6895C71.9896 15.6895 72.7456 15.9741 73.3242 16.5435C73.9029 17.1035 74.1922 17.9155 74.1922 18.9795V23.5015H72.9322V19.1615C72.9322 18.3961 72.7409 17.8128 72.3582 17.4115C71.9756 17.0008 71.4529 16.7955 70.7902 16.7955C70.1182 16.7955 69.5816 17.0055 69.1802 17.4255C68.7882 17.8455 68.5922 18.4568 68.5922 19.2595V23.5015H67.3182V15.8295H68.5922V16.9215C68.8442 16.5295 69.1849 16.2261 69.6142 16.0115C70.0529 15.7968 70.5336 15.6895 71.0562 15.6895ZM83.0773 15.8295V23.5015H81.8033V22.3675C81.5606 22.7595 81.22 23.0675 80.7813 23.2915C80.352 23.5061 79.876 23.6135 79.3533 23.6135C78.756 23.6135 78.2193 23.4921 77.7433 23.2495C77.2673 22.9975 76.8893 22.6241 76.6093 22.1295C76.3386 21.6348 76.2033 21.0328 76.2033 20.3235V15.8295H77.4633V20.1555C77.4633 20.9115 77.6546 21.4948 78.0373 21.9055C78.42 22.3068 78.9426 22.5075 79.6053 22.5075C80.2866 22.5075 80.8233 22.2975 81.2153 21.8775C81.6073 21.4575 81.8033 20.8461 81.8033 20.0435V15.8295H83.0773Z" fill="white"/>
</svg>
