<svg width="60" height="61" viewBox="0 0 60 61" fill="none" xmlns="http://www.w3.org/2000/svg">
<rect y="0.5" width="60" height="60" rx="30" fill="#44B678" style="fill:#44B678;fill:color(display-p3 0.2667 0.7137 0.4706);fill-opacity:1;"/>
<path d="M30.9375 35.4H31.75C32.5625 35.4 33.2375 34.675 33.2375 33.8C33.2375 32.7125 32.85 32.5 32.2125 32.275L30.95 31.8375V35.4H30.9375Z" fill="white" style="fill:white;fill-opacity:1;"/>
<path d="M29.9626 17.875C23.0626 17.9 17.4751 23.5125 17.5001 30.4125C17.5251 37.3125 23.1376 42.9 30.0376 42.875C36.9376 42.85 42.5251 37.2375 42.5001 30.3375C42.4751 23.4375 36.8626 17.8625 29.9626 17.875ZM32.8251 30.5C33.8001 30.8375 35.1126 31.5625 35.1126 33.8C35.1126 35.725 33.6001 37.275 31.7501 37.275H30.9376V38C30.9376 38.5125 30.5126 38.9375 30.0001 38.9375C29.4876 38.9375 29.0626 38.5125 29.0626 38V37.275H28.6126C26.5626 37.275 24.9001 35.55 24.9001 33.425C24.9001 32.9125 25.3251 32.4875 25.8376 32.4875C26.3501 32.4875 26.7751 32.9125 26.7751 33.425C26.7751 34.5125 27.6001 35.4 28.6126 35.4H29.0626V31.175L27.1751 30.5C26.2001 30.1625 24.8876 29.4375 24.8876 27.2C24.8876 25.275 26.4001 23.725 28.2501 23.725H29.0626V23C29.0626 22.4875 29.4876 22.0625 30.0001 22.0625C30.5126 22.0625 30.9376 22.4875 30.9376 23V23.725H31.3876C33.4376 23.725 35.1001 25.45 35.1001 27.575C35.1001 28.0875 34.6751 28.5125 34.1626 28.5125C33.6501 28.5125 33.2251 28.0875 33.2251 27.575C33.2251 26.4875 32.4001 25.6 31.3876 25.6H30.9376V29.825L32.8251 30.5Z" fill="white" style="fill:white;fill-opacity:1;"/>
<path d="M26.7749 27.2125C26.7749 28.3 27.1624 28.5125 27.7999 28.7375L29.0624 29.175V25.6H28.2499C27.4374 25.6 26.7749 26.325 26.7749 27.2125Z" fill="white" style="fill:white;fill-opacity:1;"/>
</svg>
