<svg width="23" height="22" viewBox="0 0 23 22" fill="none" xmlns="http://www.w3.org/2000/svg">
<path d="M15.9021 7H9.9021C9.37167 7 8.86296 7.21071 8.48789 7.58579C8.11281 7.96086 7.9021 8.46957 7.9021 9C7.9021 9.53043 8.11281 10.0391 8.48789 10.4142C8.86296 10.7893 9.37167 11 9.9021 11H13.9021C14.4325 11 14.9412 11.2107 15.3163 11.5858C15.6914 11.9609 15.9021 12.4696 15.9021 13C15.9021 13.5304 15.6914 14.0391 15.3163 14.4142C14.9412 14.7893 14.4325 15 13.9021 15H7.9021M11.9021 17V5M21.9021 11C21.9021 16.5228 17.4249 21 11.9021 21C6.37925 21 1.9021 16.5228 1.9021 11C1.9021 5.47715 6.37925 1 11.9021 1C17.4249 1 21.9021 5.47715 21.9021 11Z" stroke="white" stroke-width="2" stroke-linecap="round" stroke-linejoin="round"/>
</svg>
