<svg width="25" height="24" viewBox="0 0 25 24" fill="none" xmlns="http://www.w3.org/2000/svg">
<path fill-rule="evenodd" clip-rule="evenodd" d="M19.6169 16.239L19.8294 17.265C20.0307 18.152 19.8319 19.0841 19.2873 19.8067C18.7426 20.5293 17.909 20.9669 17.0141 21H8.79841C7.90352 20.9669 7.0699 20.5293 6.52524 19.8067C5.98058 19.0841 5.78177 18.152 5.98312 17.265L6.1956 16.239C6.43997 14.8501 7.61442 13.8294 9.00203 13.8H16.8105C18.1981 13.8294 19.3725 14.8501 19.6169 16.239ZM17.0141 19.641C17.4636 19.6357 17.8867 19.424 18.165 19.065V19.074C18.5064 18.6386 18.6395 18.0712 18.528 17.526L18.3155 16.5C18.1976 15.7397 17.5671 15.1703 16.8105 15.141H9.00203C8.24542 15.1703 7.6149 15.7397 7.49701 16.5L7.28453 17.526C7.17578 18.0683 7.30867 18.6318 7.64751 19.065C7.92579 19.424 8.34886 19.6357 8.79841 19.641H17.0141Z" fill="#F25F29" style="fill:#F25F29;fill:color(display-p3 0.9490 0.3725 0.1608);fill-opacity:1;"/>
<path fill-rule="evenodd" clip-rule="evenodd" d="M13.3489 12H12.4636C10.5078 12 8.92234 10.3882 8.92234 8.40001V6.02401C8.91998 5.22126 9.23262 4.4507 9.79099 3.88307C10.3494 3.31544 11.1073 2.99761 11.897 3.00001H13.9155C14.7051 2.99761 15.4631 3.31544 16.0215 3.88307C16.5799 4.4507 16.8925 5.22126 16.8901 6.02401V8.40001C16.8901 10.3882 15.3047 12 13.3489 12ZM11.897 4.35001C10.9875 4.35001 10.2503 5.09949 10.2503 6.02401V8.40001C10.2503 9.64264 11.2412 10.65 12.4636 10.65H13.3489C14.5712 10.65 15.5622 9.64264 15.5622 8.40001V6.02401C15.5622 5.58004 15.3887 5.15425 15.0799 4.84031C14.7711 4.52638 14.3522 4.35001 13.9155 4.35001H11.897Z" fill="#F25F29" style="fill:#F25F29;fill:color(display-p3 0.9490 0.3725 0.1608);fill-opacity:1;"/>
</svg>
