<svg width="16" height="16" viewBox="0 0 16 16" fill="none" xmlns="http://www.w3.org/2000/svg">
<path d="M15.25 8.20703C15.25 6.21791 14.4598 4.31025 13.0533 2.90373C11.6468 1.49721 9.73912 0.707031 7.75 0.707031V2.20703C9.3413 2.20703 10.8674 2.83917 11.9926 3.96439C13.1179 5.08961 13.75 6.61573 13.75 8.20703H15.25Z" fill="#2F54AC"/>
<path d="M0.25 6.70703V2.95703C0.25 2.75812 0.329018 2.56735 0.46967 2.4267C0.610322 2.28605 0.801088 2.20703 1 2.20703H4.75C4.94891 2.20703 5.13968 2.28605 5.28033 2.4267C5.42098 2.56735 5.5 2.75812 5.5 2.95703V5.95703C5.5 6.15594 5.42098 6.34671 5.28033 6.48736C5.13968 6.62801 4.94891 6.70703 4.75 6.70703H3.25C3.25 8.29833 3.88214 9.82445 5.00736 10.9497C6.13258 12.0749 7.6587 12.707 9.25 12.707V11.207C9.25 11.0081 9.32902 10.8174 9.46967 10.6767C9.61032 10.536 9.80109 10.457 10 10.457H13C13.1989 10.457 13.3897 10.536 13.5303 10.6767C13.671 10.8174 13.75 11.0081 13.75 11.207V14.957C13.75 15.1559 13.671 15.3467 13.5303 15.4874C13.3897 15.628 13.1989 15.707 13 15.707H9.25C6.86305 15.707 4.57387 14.7588 2.88604 13.071C1.19821 11.3832 0.25 9.09398 0.25 6.70703Z" fill="#2F54AC"/>
<path d="M11.907 6.48503C12.1335 7.03089 12.25 7.61606 12.25 8.20703H10.9C10.9001 7.79333 10.8187 7.38366 10.6605 7.00142C10.5022 6.61919 10.2702 6.27188 9.97768 5.97935C9.68515 5.68682 9.33784 5.4548 8.95561 5.29654C8.57337 5.13829 8.1637 5.0569 7.75 5.05703V3.70703C8.63995 3.70713 9.50988 3.9711 10.2498 4.46558C10.9897 4.96005 11.5664 5.66282 11.907 6.48503Z" fill="#2F54AC"/>
</svg>
