<svg width="17" height="16" viewBox="0 0 17 16" fill="none" xmlns="http://www.w3.org/2000/svg">
<path d="M3.97128 14.6897H12.8974V12.1396H3.97128V14.6897ZM3.97128 8.31441H12.8974V4.48854H11.3004C11.1752 4.48872 11.0511 4.46419 10.9353 4.41636C10.8196 4.36853 10.7144 4.29834 10.6258 4.20981C10.5372 4.12128 10.467 4.01614 10.419 3.90042C10.3711 3.7847 10.3465 3.66066 10.3466 3.53542V1.93841H3.97128V8.31441ZM15.4469 8.95227C15.4489 8.80231 15.3987 8.65631 15.3049 8.53927C15.2112 8.42224 15.0796 8.34144 14.9328 8.31072C14.786 8.28 14.6331 8.30126 14.5003 8.37088C14.3674 8.44049 14.2629 8.55412 14.2046 8.6923C14.1464 8.83049 14.1379 8.98464 14.1808 9.12836C14.2237 9.27208 14.3152 9.39642 14.4396 9.4801C14.5641 9.56378 14.7138 9.6016 14.863 9.58707C15.0123 9.57253 15.1519 9.50656 15.2578 9.40045C15.3183 9.34259 15.3662 9.27298 15.3987 9.19591C15.4312 9.11883 15.4476 9.03592 15.4469 8.95227ZM16.7219 8.95227V13.0934C16.7207 13.1777 16.6867 13.2582 16.6271 13.3178C16.5675 13.3774 16.487 13.4115 16.4027 13.4127H14.1725V15.007C14.173 15.1327 14.1486 15.2574 14.1007 15.3736C14.0529 15.4899 13.9824 15.5956 13.8935 15.6845C13.8046 15.7734 13.6989 15.8439 13.5827 15.8917C13.4664 15.9396 13.3418 15.964 13.216 15.9635H3.65268C3.52693 15.964 3.40231 15.9396 3.28603 15.8917C3.16975 15.8439 3.0641 15.7734 2.97518 15.6845C2.88625 15.5956 2.81582 15.4899 2.76794 15.3736C2.72006 15.2574 2.69569 15.1327 2.69622 15.007V13.4153H0.464685C0.422781 13.4157 0.381247 13.4075 0.342647 13.3912C0.304047 13.3749 0.269202 13.3508 0.240262 13.3205C0.209929 13.2915 0.185909 13.2565 0.169705 13.2178C0.1535 13.179 0.14546 13.1374 0.146085 13.0954V8.95428C0.142637 8.70279 0.190761 8.45326 0.287487 8.2211C0.384213 7.98893 0.52749 7.77905 0.708476 7.6044C0.883138 7.42339 1.09301 7.28005 1.32516 7.18322C1.55731 7.08638 1.80683 7.0381 2.05835 7.04134H2.69622V1.61981C2.69403 1.49384 2.71768 1.36875 2.76569 1.25227C2.81371 1.13579 2.88508 1.03038 2.97541 0.942539C3.06325 0.852214 3.16866 0.780842 3.28514 0.732824C3.40162 0.684807 3.52671 0.661161 3.65268 0.663347H10.3466C10.6493 0.671754 10.9473 0.739849 11.2236 0.863724C11.5045 0.972441 11.7616 1.13488 11.9803 1.34196L13.4945 2.85614C13.7013 3.07453 13.8635 3.33112 13.9721 3.61156C14.0957 3.88792 14.1638 4.18591 14.1725 4.48854V7.038H14.8103C15.317 7.04029 15.8022 7.24256 16.1605 7.60081C16.5187 7.95906 16.721 8.4443 16.7233 8.95094L16.7219 8.95227Z" fill="white" style="fill:white;fill-opacity:1;"/>
</svg>
