<svg width="46" height="47" viewBox="0 0 46 47" fill="none" xmlns="http://www.w3.org/2000/svg">
<g clip-path="url(#clip0_5207_2940)">
<path d="M22.7094 46.2059C35.2514 46.2059 45.4188 36.0386 45.4188 23.4966C45.4188 10.9545 35.2514 0.78717 22.7094 0.78717C10.1673 0.78717 0 10.9545 0 23.4966C0 36.0386 10.1673 46.2059 22.7094 46.2059Z" fill="#034FC1"/>
<path d="M18.2472 29.8719H27.1734V27.3218H18.2472V29.8719ZM18.2472 23.4966H27.1734V19.6707H25.5764C25.4511 19.6709 25.3271 19.6463 25.2113 19.5985C25.0956 19.5507 24.9904 19.4805 24.9018 19.392C24.8132 19.3034 24.7429 19.1983 24.695 19.0826C24.6471 18.9669 24.6225 18.8428 24.6226 18.7176V17.1206H18.2472V23.4966ZM29.7228 24.1344C29.7249 23.9845 29.6747 23.8385 29.5809 23.7214C29.4871 23.6044 29.3556 23.5236 29.2088 23.4929C29.062 23.4622 28.9091 23.4834 28.7762 23.553C28.6434 23.6226 28.5389 23.7363 28.4806 23.8745C28.4223 24.0126 28.4139 24.1668 28.4568 24.3105C28.4996 24.4542 28.5911 24.5786 28.7156 24.6623C28.84 24.7459 28.9897 24.7838 29.139 24.7692C29.2883 24.7547 29.4278 24.6887 29.5338 24.5826C29.5942 24.5247 29.6422 24.4551 29.6747 24.3781C29.7072 24.301 29.7236 24.2181 29.7228 24.1344ZM30.9979 24.1344V28.2756C30.9967 28.3598 30.9627 28.4404 30.903 28.5C30.8434 28.5596 30.7629 28.5936 30.6786 28.5948H28.4484V30.1892C28.449 30.3149 28.4246 30.4395 28.3767 30.5558C28.3288 30.6721 28.2584 30.7777 28.1695 30.8667C28.0806 30.9556 27.9749 31.026 27.8586 31.0739C27.7423 31.1218 27.6177 31.1461 27.492 31.1456H17.9286C17.8029 31.1461 17.6783 31.1218 17.562 31.0739C17.4457 31.026 17.3401 30.9556 17.2511 30.8667C17.1622 30.7777 17.0918 30.6721 17.0439 30.5558C16.996 30.4395 16.9716 30.3149 16.9722 30.1892V28.5975H14.7406C14.6987 28.5979 14.6572 28.5896 14.6186 28.5733C14.58 28.557 14.5452 28.533 14.5162 28.5026C14.4859 28.4736 14.4619 28.4386 14.4457 28.3999C14.4295 28.3612 14.4214 28.3195 14.422 28.2776V24.1364C14.4186 23.8849 14.4667 23.6354 14.5634 23.4033C14.6602 23.1711 14.8035 22.9612 14.9844 22.7866C15.1591 22.6055 15.369 22.4622 15.6011 22.3654C15.8333 22.2685 16.0828 22.2203 16.3343 22.2235H16.9722V16.802C16.97 16.676 16.9936 16.5509 17.0417 16.4344C17.0897 16.3179 17.161 16.2125 17.2514 16.1247C17.3392 16.0344 17.4446 15.963 17.5611 15.915C17.6776 15.867 17.8027 15.8433 17.9286 15.8455H24.6226C24.9252 15.8539 25.2233 15.922 25.4996 16.0459C25.7805 16.1546 26.0375 16.317 26.2563 16.5241L27.7705 18.0383C27.9772 18.2567 28.1395 18.5133 28.2481 18.7937C28.3717 19.0701 28.4398 19.3681 28.4484 19.6707V22.2202H29.0863C29.5929 22.2224 30.0782 22.4247 30.4364 22.783C30.7947 23.1412 30.9969 23.6265 30.9992 24.1331L30.9979 24.1344Z" fill="white"/>
</g>
<defs>
<clipPath id="clip0_5207_2940">
<rect width="45.4188" height="45.4188" fill="white" transform="translate(0 0.78717)"/>
</clipPath>
</defs>
</svg>
