<svg xmlns="http://www.w3.org/2000/svg" width="29.757" height="27.47" viewBox="0 0 29.757 27.47">
  <path id="print" d="M6.867,25.179H22.891V20.6H6.867Zm0-11.445H22.891V6.867H20.029A1.71,1.71,0,0,1,18.312,5.15V2.289H6.867V13.734Zm20.6,1.145a1.16,1.16,0,1,0-.34.805,1.1,1.1,0,0,0,.34-.805Zm2.289,0v7.439a.582.582,0,0,1-.573.573H25.179v2.862a1.71,1.71,0,0,1-1.717,1.717H6.294a1.71,1.71,0,0,1-1.717-1.717V22.891H.572a.55.55,0,0,1-.4-.17.548.548,0,0,1-.169-.4V14.879a3.3,3.3,0,0,1,1.01-2.423,3.308,3.308,0,0,1,2.424-1.011H4.578V1.717A1.656,1.656,0,0,1,5.079.5,1.656,1.656,0,0,1,6.3,0H18.312a4.128,4.128,0,0,1,1.574.358,4.161,4.161,0,0,1,1.359.858l2.718,2.718a4.155,4.155,0,0,1,.858,1.359,4.145,4.145,0,0,1,.358,1.574v4.578h1.145a3.45,3.45,0,0,1,3.434,3.434Z" fill="#fff"/>
</svg>
