<svg width="61" height="61" viewBox="0 0 61 61" fill="none" xmlns="http://www.w3.org/2000/svg">
<rect x="0.5" y="0.5" width="60" height="60" rx="30" fill="#1E1F4E" style="fill:#1E1F4E;fill:color(display-p3 0.1178 0.1209 0.3072);fill-opacity:1;"/>
<path d="M24.2097 21.6935C24.2097 19.6051 25.8955 17.9193 27.9839 17.9193H33.0162C35.1046 17.9193 36.7904 19.6051 36.7904 21.6935C36.7904 22.3854 36.2243 22.9516 35.5323 22.9516H25.4678C24.7758 22.9516 24.2097 22.3854 24.2097 21.6935Z" fill="white" style="fill:white;fill-opacity:1;"/>
<path d="M37.7339 34.2742C37.7339 34.79 37.3061 35.2178 36.7903 35.2178H35.5323V39.3065C35.5323 41.3949 33.8465 43.0807 31.7581 43.0807H29.2419C27.1535 43.0807 25.4677 41.3949 25.4677 39.3065V35.2178H24.2097C23.6939 35.2178 23.2661 34.79 23.2661 34.2742C23.2661 33.7584 23.6939 33.3307 24.2097 33.3307H36.7903C37.3061 33.3307 37.7339 33.7584 37.7339 34.2742Z" fill="white" style="fill:white;fill-opacity:1;"/>
<path d="M38.0485 24.2097H22.9517C20.4356 24.2097 19.1775 25.4678 19.1775 27.9839V34.2742C19.1775 36.7904 20.4356 38.0484 22.9517 38.0484H23.4235C23.8577 38.0484 24.2098 37.6964 24.2098 37.2621C24.2098 36.8279 23.8466 36.489 23.4403 36.3355C22.6072 36.0206 22.0081 35.2119 22.0081 34.2742C22.0081 33.0665 23.002 32.0726 24.2098 32.0726H36.7904C37.9982 32.0726 38.992 33.0665 38.992 34.2742C38.992 35.2119 38.393 36.0206 37.5598 36.3355C37.1536 36.489 36.7904 36.8279 36.7904 37.2621C36.7904 37.6964 37.1425 38.0484 37.5767 38.0484H38.0485C40.5646 38.0484 41.8227 36.7904 41.8227 34.2742V27.9839C41.8227 25.4678 40.5646 24.2097 38.0485 24.2097ZM27.984 30.1855H24.2098C23.694 30.1855 23.2662 29.7578 23.2662 29.242C23.2662 28.7261 23.694 28.2984 24.2098 28.2984H27.984C28.4998 28.2984 28.9275 28.7261 28.9275 29.242C28.9275 29.7578 28.4998 30.1855 27.984 30.1855Z" fill="white" style="fill:white;fill-opacity:1;"/>
</svg>
