<svg width="15" height="18" viewBox="0 0 15 18" fill="none" xmlns="http://www.w3.org/2000/svg">
<path fill-rule="evenodd" clip-rule="evenodd" d="M14.617 13.239L14.8295 14.265C15.0308 15.152 14.832 16.0841 14.2874 16.8067C13.7427 17.5293 12.9091 17.9669 12.0142 18H3.79853C2.90364 17.9669 2.07002 17.5293 1.52536 16.8067C0.980701 16.0841 0.781897 15.152 0.983246 14.265L1.19572 13.239C1.4401 11.8501 2.61454 10.8294 4.00215 10.8H11.8106C13.1982 10.8294 14.3726 11.8501 14.617 13.239ZM12.0142 16.641C12.4638 16.6357 12.8868 16.424 13.1651 16.065V16.074C13.5066 15.6386 13.6396 15.0712 13.5281 14.526L13.3156 13.5C13.1977 12.7397 12.5672 12.1703 11.8106 12.141H4.00216C3.24554 12.1703 2.61502 12.7397 2.49713 13.5L2.28465 14.526C2.1759 15.0683 2.30879 15.6318 2.64763 16.065C2.92591 16.424 3.34898 16.6357 3.79854 16.641H12.0142Z" fill="#9E9E9E"/>
<path fill-rule="evenodd" clip-rule="evenodd" d="M8.34901 9H7.4637C5.50793 9 3.92246 7.38823 3.92246 5.40001V3.02401C3.9201 2.22126 4.23274 1.4507 4.79111 0.883072C5.34947 0.315442 6.10746 -0.00238636 6.8971 1.34925e-05H8.91561C9.70526 -0.00238636 10.4632 0.315442 11.0216 0.883072C11.58 1.4507 11.8926 2.22126 11.8903 3.02401V5.40001C11.8903 7.38823 10.3048 9 8.34901 9ZM6.8971 1.35001C5.98767 1.35001 5.25043 2.09949 5.25043 3.02401V5.40001C5.25043 6.64264 6.24134 7.65 7.4637 7.65H8.34901C9.57137 7.65 10.5623 6.64264 10.5623 5.40001V3.02401C10.5623 2.58004 10.3888 2.15425 10.08 1.84031C9.77118 1.52638 9.35234 1.35001 8.91561 1.35001H6.8971Z" fill="#9E9E9E"/>
</svg>
