<svg xmlns="http://www.w3.org/2000/svg" width="252.055" height="187.811" viewBox="0 0 252.055 187.811">
  <g id="Refreshing-rafiki" transform="translate(0 -55)">
    <g id="freepik--background-complete--inject-35" transform="translate(0 55)">
      <rect id="Rectangle_3106" data-name="Rectangle 3106" width="252.055" height="0.126" transform="translate(0 165.045)" fill="#ebebeb"/>
      <rect id="Rectangle_3107" data-name="Rectangle 3107" width="20.774" height="0.126" transform="translate(27.116 169.487)" fill="#ebebeb"/>
      <rect id="Rectangle_3108" data-name="Rectangle 3108" width="20.835" height="0.126" transform="translate(69.401 168.478)" fill="#ebebeb"/>
      <rect id="Rectangle_3109" data-name="Rectangle 3109" width="5.041" height="0.126" transform="translate(112.305 168.478)" fill="#ebebeb"/>
      <rect id="Rectangle_3110" data-name="Rectangle 3110" width="23.315" height="0.126" transform="translate(43.646 172.783)" fill="#ebebeb"/>
      <rect id="Rectangle_3111" data-name="Rectangle 3111" width="10.889" height="0.126" transform="translate(136.714 169.421)" fill="#ebebeb"/>
      <rect id="Rectangle_3112" data-name="Rectangle 3112" width="14.08" height="0.126" transform="translate(152.09 169.421)" fill="#ebebeb"/>
      <rect id="Rectangle_3113" data-name="Rectangle 3113" width="31.477" height="0.126" transform="translate(202.597 171.553)" fill="#ebebeb"/>
      <path id="Path_1786" data-name="Path 1786" d="M138.422,197.562H41.083a2.878,2.878,0,0,1-2.873-2.878V57.853A2.878,2.878,0,0,1,41.083,55h97.338a2.878,2.878,0,0,1,2.878,2.878V194.684A2.878,2.878,0,0,1,138.422,197.562ZM41.083,55.1a2.752,2.752,0,0,0-2.747,2.752v136.83a2.752,2.752,0,0,0,2.747,2.752h97.338a2.758,2.758,0,0,0,2.752-2.752V57.853a2.758,2.758,0,0,0-2.752-2.752Z" transform="translate(-18.948 -55)" fill="#ebebeb"/>
      <path id="Path_1787" data-name="Path 1787" d="M354.722,197.562H257.378a2.883,2.883,0,0,1-2.878-2.878V57.853A2.883,2.883,0,0,1,257.378,55h97.344a2.878,2.878,0,0,1,2.868,2.853v136.83A2.878,2.878,0,0,1,354.722,197.562ZM257.378,55.1a2.757,2.757,0,0,0-2.752,2.752v136.83a2.757,2.757,0,0,0,2.752,2.752h97.344a2.757,2.757,0,0,0,2.752-2.752V57.853a2.757,2.757,0,0,0-2.752-2.752Z" transform="translate(-126.204 -55)" fill="#ebebeb"/>
      <rect id="Rectangle_3114" data-name="Rectangle 3114" width="83.682" height="113.112" transform="translate(137.158 9.044)" fill="#e6e6e6"/>
      <rect id="Rectangle_3115" data-name="Rectangle 3115" width="85.023" height="113.112" transform="translate(138.328 9.044)" fill="#f0f0f0"/>
      <rect id="Rectangle_3116" data-name="Rectangle 3116" width="83.682" height="2.193" transform="translate(137.158 122.156)" fill="#e6e6e6"/>
      <rect id="Rectangle_3117" data-name="Rectangle 3117" width="85.023" height="2.193" transform="translate(139.669 122.156)" fill="#f0f0f0"/>
      <rect id="Rectangle_3118" data-name="Rectangle 3118" width="106.08" height="77.991" transform="translate(219.837 12.557) rotate(90)" fill="#fafafa"/>
      <path id="Path_1788" data-name="Path 1788" d="M330.84,185.995,345.54,79.91h9.739l-14.7,106.085Z" transform="translate(-164.06 -67.353)" fill="#fff"/>
      <path id="Path_1789" data-name="Path 1789" d="M308.28,185.995l14.7-106.085h9.734l-14.7,106.085Z" transform="translate(-152.873 -67.353)" fill="#fff"/>
      <rect id="Rectangle_3119" data-name="Rectangle 3119" width="0.953" height="99.703" rx="0.476" transform="translate(143.681 12.557)" fill="#f0f0f0"/>
      <path id="Path_1790" data-name="Path 1790" d="M380.51,185.995,395.21,79.91h3.8l-14.7,106.085Z" transform="translate(-188.691 -67.353)" fill="#fff"/>
      <rect id="Rectangle_3120" data-name="Rectangle 3120" width="106.08" height="0.449" transform="translate(219.832 12.562) rotate(90)" fill="#e6e6e6"/>
      <path id="Path_1791" data-name="Path 1791" d="M362.07,85.655H278.383l-.323-3.035h83.687Z" transform="translate(-137.887 -68.697)" fill="#e0e0e0" opacity="0.5"/>
      <path id="Path_1792" data-name="Path 1792" d="M362.07,106.315H278.383l-.323-3.035h83.687Z" transform="translate(-137.887 -78.942)" fill="#e0e0e0" opacity="0.5"/>
      <path id="Path_1793" data-name="Path 1793" d="M362.07,126.965H278.383l-.323-3.035h83.687Z" transform="translate(-137.887 -89.182)" fill="#e0e0e0" opacity="0.5"/>
      <path id="Path_1794" data-name="Path 1794" d="M362.07,147.615H278.383l-.323-3.035h83.687Z" transform="translate(-137.887 -99.422)" fill="#e0e0e0" opacity="0.5"/>
      <path id="Path_1795" data-name="Path 1795" d="M362.07,168.275H278.383l-.323-3.035h83.687Z" transform="translate(-137.887 -109.667)" fill="#e0e0e0" opacity="0.5"/>
      <path id="Path_1796" data-name="Path 1796" d="M362.07,188.925H278.383l-.323-3.035h83.687Z" transform="translate(-137.887 -119.907)" fill="#e0e0e0" opacity="0.5"/>
      <path id="Path_1797" data-name="Path 1797" d="M362.07,95.985H278.383l-.323-3.035h83.687Z" transform="translate(-137.887 -73.819)" fill="#e0e0e0" opacity="0.5"/>
      <path id="Path_1798" data-name="Path 1798" d="M362.07,116.635H278.383l-.323-3.035h83.687Z" transform="translate(-137.887 -84.059)" fill="#e0e0e0" opacity="0.5"/>
      <path id="Path_1799" data-name="Path 1799" d="M362.07,137.295H278.383l-.323-3.035h83.687Z" transform="translate(-137.887 -94.304)" fill="#e0e0e0" opacity="0.5"/>
      <path id="Path_1800" data-name="Path 1800" d="M362.07,157.945H278.383l-.323-3.035h83.687Z" transform="translate(-137.887 -104.544)" fill="#e0e0e0" opacity="0.5"/>
      <path id="Path_1801" data-name="Path 1801" d="M362.07,178.595H278.383l-.323-3.035h83.687Z" transform="translate(-137.887 -114.785)" fill="#e0e0e0" opacity="0.5"/>
      <path id="Path_1802" data-name="Path 1802" d="M362.07,199.255H278.383l-.323-3.035h83.687Z" transform="translate(-137.887 -125.03)" fill="#e0e0e0" opacity="0.5"/>
      <rect id="Rectangle_3121" data-name="Rectangle 3121" width="73.746" height="55.054" transform="translate(109.356 71.185) rotate(180)" fill="#fafafa"/>
      <rect id="Rectangle_3122" data-name="Rectangle 3122" width="3.514" height="55.054" transform="translate(32.102 16.137)" fill="#f0f0f0"/>
      <path id="Path_1803" data-name="Path 1803" d="M138.808,101.087a41.091,41.091,0,0,1-5.318,5.333c-.257.212-.161.61.111.444.827-.5,1.709-1.1,2.626-1.749.262-.181.388.181.146.418a33.155,33.155,0,0,1-10.526,7.058l-.03.03a64.748,64.748,0,0,0,10.909-5.086c.257-.151.353.227.111.439a42.818,42.818,0,0,1-5.1,3.892c-.272.176-.227.62.05.5s.691-.343,1.044-.5c.257-.131.333.247.091.454a44.553,44.553,0,0,1-6.684,4.734c-.267.156-.252.6.025.5,2.289-.923,4.819-2.016,7.451-3.378.257-.131.333.252.091.454a47.49,47.49,0,0,1-20.8,9.634,92.534,92.534,0,0,0,17.553-4.729c.257-.1.287.308.035.5a43.913,43.913,0,0,1-8.645,4.663c-.282.116-.318.595-.04.5,1.19-.318,2.41-.681,3.65-1.089.257-.086.277.328,0,.5a50.476,50.476,0,0,1-12.578,5.853c-.282.091-.343.595-.066.534a49.307,49.307,0,0,0,5.243-1.512c.247-.086.282.3.04.5a28.114,28.114,0,0,1-8.414,4.325c-.272.086-.343.575-.076.534,1.341-.212,2.747-.474,4.189-.817.247-.055.242.348,0,.5a27.444,27.444,0,0,1-10.4,3.9c-.267.045-.388.544-.131.544a43.859,43.859,0,0,0,5.873-.4c.242-.03.212.383-.035.5-9.613,5.228-20.164,1.719-20.351,1.653h0l-.776-.333c-.781-.338-.4-1.931.585-2.415,7.889-3.882,29.838-15.879,45.37-35.893.222-.282.5-.055.292.252q-.892,1.417-2.1,2.979c-.192.247-.045.534.192.363a73.284,73.284,0,0,0,6.17-4.971C138.853,100.5,139.03,100.83,138.808,101.087Z" transform="translate(-43.466 -77.641)" fill="#ebebeb"/>
      <path id="Path_1804" data-name="Path 1804" d="M143.869,118.151a37.7,37.7,0,0,0-7.158,2.445c-.308.141-.645-.151-.373-.323.822-.534,1.729-1.094,2.707-1.659.272-.156,0-.459-.333-.343a30.494,30.494,0,0,0-10.884,6.6h-.04a60.494,60.494,0,0,1,9.2-7.965c.247-.171-.066-.449-.368-.323a39.164,39.164,0,0,0-5.722,2.954c-.277.176-.67-.091-.428-.292s.6-.5.912-.736c.232-.176-.091-.444-.383-.313a41.01,41.01,0,0,0-7.153,4.033c-.257.187-.67-.055-.454-.267,1.795-1.739,3.872-3.609,6.2-5.47.227-.187-.1-.449-.393-.318a44.811,44.811,0,0,0-17.553,15.169,89.516,89.516,0,0,1,11.595-14.5c.2-.2-.171-.439-.439-.282a40.938,40.938,0,0,0-7.889,5.979c-.222.212-.686,0-.5-.222.781-.983,1.618-1.976,2.521-2.964.181-.2-.192-.428-.454-.267a47.25,47.25,0,0,0-10.586,9.16c-.2.227-.7.03-.5-.2a48.978,48.978,0,0,1,3.529-4.29c.186-.192-.161-.418-.434-.277A26.022,26.022,0,0,0,101,129.4c-.2.222-.681.045-.5-.192.741-1.19,1.563-2.4,2.465-3.619.156-.207-.222-.408-.469-.247a26.032,26.032,0,0,0-7.894,8.066c-.151.237-.665.106-.56-.146a45.02,45.02,0,0,1,2.763-5.444c.131-.217-.267-.393-.5-.222-8.882,6.624-9.891,18.516-9.911,18.723v.923c0,.923,1.643,1.351,2.521.65,6.821-5.606,27-20.729,52.069-25.664.353-.071.242-.439-.121-.408a36.249,36.249,0,0,0-3.64.5c-.313.055-.5-.227-.267-.368a68.256,68.256,0,0,1,7.168-3.448C144.428,118.4,144.206,118.086,143.869,118.151Z" transform="translate(-42.84 -85.319)" fill="#f0f0f0"/>
      <rect id="Rectangle_3123" data-name="Rectangle 3123" width="11.63" height="79.664" transform="translate(106.135 85.376)" fill="#e6e6e6"/>
      <path id="Path_1805" data-name="Path 1805" d="M212.256,375.17h7.083v-7.35H204.83Z" transform="translate(-101.573 -210.125)" fill="#ebebeb"/>
      <rect id="Rectangle_3124" data-name="Rectangle 3124" width="11.63" height="79.664" transform="translate(71.291 85.376)" fill="#e6e6e6"/>
      <rect id="Rectangle_3125" data-name="Rectangle 3125" width="41.029" height="78.137" transform="translate(76.736 85.376)" fill="#ebebeb"/>
      <path id="Path_1806" data-name="Path 1806" d="M159.3,375.17H152.22v-7.35h14.508Z" transform="translate(-75.484 -210.125)" fill="#ebebeb"/>
      <rect id="Rectangle_3126" data-name="Rectangle 3126" width="30.04" height="32.213" transform="translate(82.23 108.202)" fill="#fafafa"/>
      <rect id="Rectangle_3127" data-name="Rectangle 3127" width="30.04" height="15.33" transform="translate(82.23 143.696)" fill="#fafafa"/>
      <path id="Path_1807" data-name="Path 1807" d="M184.16,267h8.827v.615a2.349,2.349,0,0,1-2.349,2.349h-4.129a2.349,2.349,0,0,1-2.349-2.349V267Z" transform="translate(-91.323 -160.129)" fill="#ebebeb"/>
      <rect id="Rectangle_3128" data-name="Rectangle 3128" width="30.04" height="15.33" transform="translate(82.23 89.595)" fill="#fafafa"/>
      <path id="Path_1808" data-name="Path 1808" d="M184.155,230.1h8.827v.615a2.349,2.349,0,0,1-2.354,2.359H186.5a2.349,2.349,0,0,1-2.349-2.349V230.1Z" transform="translate(-91.318 -141.83)" fill="#ebebeb"/>
      <path id="Path_1809" data-name="Path 1809" d="M184.155,337.41h8.827v.615a2.349,2.349,0,0,1-2.354,2.354H186.5a2.349,2.349,0,0,1-2.349-2.349v-.615Z" transform="translate(-91.318 -195.044)" fill="#ebebeb"/>
      <rect id="Rectangle_3129" data-name="Rectangle 3129" width="11.63" height="79.664" transform="translate(61.965 85.376)" fill="#e6e6e6"/>
      <path id="Path_1810" data-name="Path 1810" d="M124.636,375.17h7.083v-7.35H117.21Z" transform="translate(-58.123 -210.125)" fill="#ebebeb"/>
      <rect id="Rectangle_3130" data-name="Rectangle 3130" width="11.63" height="79.664" transform="translate(27.116 85.376)" fill="#e6e6e6"/>
      <rect id="Rectangle_3131" data-name="Rectangle 3131" width="41.029" height="78.137" transform="translate(32.565 85.376)" fill="#ebebeb"/>
      <path id="Path_1811" data-name="Path 1811" d="M71.683,375.17H64.6v-7.35H79.108Z" transform="translate(-32.035 -210.125)" fill="#ebebeb"/>
      <rect id="Rectangle_3132" data-name="Rectangle 3132" width="30.04" height="32.213" transform="translate(38.06 108.202)" fill="#fafafa"/>
      <rect id="Rectangle_3133" data-name="Rectangle 3133" width="30.04" height="15.33" transform="translate(38.06 143.696)" fill="#fafafa"/>
      <path id="Path_1812" data-name="Path 1812" d="M96.54,267h8.8v.615a2.349,2.349,0,0,1-2.349,2.349h-4.1a2.349,2.349,0,0,1-2.349-2.349V267Z" transform="translate(-47.873 -160.129)" fill="#ebebeb"/>
      <rect id="Rectangle_3134" data-name="Rectangle 3134" width="30.04" height="15.33" transform="translate(38.06 89.595)" fill="#fafafa"/>
      <path id="Path_1813" data-name="Path 1813" d="M96.54,230.1h8.8v.615a2.349,2.349,0,0,1-2.349,2.349h-4.1a2.349,2.349,0,0,1-2.349-2.349V230.1Z" transform="translate(-47.873 -141.83)" fill="#ebebeb"/>
      <path id="Path_1814" data-name="Path 1814" d="M96.54,337.41h8.8v.615a2.349,2.349,0,0,1-2.349,2.349h-4.1a2.349,2.349,0,0,1-2.349-2.349v-.615Z" transform="translate(-47.873 -195.044)" fill="#ebebeb"/>
    </g>
    <g id="freepik--Shadow--inject-35" transform="translate(28.286 231.398)">
      <ellipse id="freepik--path--inject-35" cx="97.742" cy="5.707" rx="97.742" ry="5.707" fill="#f5f5f5"/>
    </g>
    <g id="freepik--Character--inject-35" transform="translate(132.747 84.496)">
      <path id="Path_1815" data-name="Path 1815" d="M356.6,116.178c-.126-1.86-3.952-3.67-7.728-2.016-4.658,2.016-2.984,6.926-7.8,8.439s-6.049,3.594-6.13,6.821-3.725,6.639-7.758,6.584c-.262,5.1,2.843,13,18.148,13.162s13.505-7.935,14.191-12.789c.776-5.47,5.5-5.006,2.969-10.344C360.88,122.671,364.384,114.625,356.6,116.178Z" transform="translate(-294.983 -113.512)" fill="#263238"/>
      <path id="Path_1816" data-name="Path 1816" d="M397.233,166.32l.2.287.247.338c.166.227.343.454.5.676.363.444.751.872,1.154,1.275a15,15,0,0,0,2.606,2.127,9.649,9.649,0,0,0,6.049,1.548c.368-.03.282,0,.328,0s.05,0,.116-.055a2.138,2.138,0,0,0,.5-.9,12.6,12.6,0,0,0,.5-3.337c.05-1.22,0-2.485-.066-3.756s-.2-2.566-.343-3.811l2.284-.549a35.484,35.484,0,0,1,1.714,8.025,14.936,14.936,0,0,1-.232,4.487,6.256,6.256,0,0,1-1.23,2.6,4.487,4.487,0,0,1-1.437,1.129,5.1,5.1,0,0,1-1.578.454,13.445,13.445,0,0,1-9.034-1.8,18.073,18.073,0,0,1-3.559-2.752,21.946,21.946,0,0,1-1.487-1.648c-.227-.287-.459-.58-.676-.882l-.323-.469c-.111-.171-.2-.3-.338-.539Z" transform="translate(-327.701 -136.644)" fill="#7f3e3b"/>
      <path id="Path_1817" data-name="Path 1817" d="M390.536,166.258c4.214.5,6.236,4.93,6.236,4.93l-5.833,5.792a12.126,12.126,0,0,1-2.8-4.683C387.486,169.7,387.677,165.91,390.536,166.258Z" transform="translate(-325.067 -139.657)" fill="#b25300"/>
      <path id="Path_1818" data-name="Path 1818" d="M422.713,158.874l-3.453-2.1,4.436-2.092a4.863,4.863,0,0,1,.872,3.69Z" transform="translate(-340.654 -133.927)" fill="#7f3e3b"/>
      <path id="Path_1819" data-name="Path 1819" d="M415.98,150.653l3.579-.953,2.51,2.521-4.436,2.092Z" transform="translate(-339.027 -131.457)" fill="#7f3e3b"/>
      <path id="Path_1820" data-name="Path 1820" d="M372.908,164.378c-.307,2.591-1.916,9.034-8.313,24.928l-18.445-4.774c1.971-7.37,3.025-11.67,2.838-27.822a55.985,55.985,0,0,1,8.066.882,60.544,60.544,0,0,1,8.368,2.016c2.3.786,4.764,1.835,6.19,2.47A2.208,2.208,0,0,1,372.908,164.378Z" transform="translate(-304.399 -134.933)" fill="#b25300"/>
      <path id="Path_1821" data-name="Path 1821" d="M364.885,157.311a14.619,14.619,0,0,0-3.761-.423c-.2,1.573-.287,5.263.323,6.458a9.081,9.081,0,0,0,3.383,1.558l-2.289,1.2a7.254,7.254,0,0,0,7.531,3.554c.741-3.529-.565-8.066-.565-8.066Z" transform="translate(-311.752 -135.02)" fill="#fff"/>
      <path id="Path_1822" data-name="Path 1822" d="M380.483,162.272s.5-.5,3.025.555c1.054.867,2.586,3.826,1.976,5.041a4.824,4.824,0,0,1-2.692.63l1.744,1.724s-2.258,3.352-5.676,2.062c-.741-3.529,1.008-8.066,1.008-8.066Z" transform="translate(-320.529 -137.632)" fill="#fff"/>
      <path id="Path_1823" data-name="Path 1823" d="M370.574,140.3c-.066,2.8-.63,7.829-2.914,9.155,0,0-1.27,3.635,5.681,11.978,6.836-6.412,2.687-9.941,2.687-9.941-2.843-1.442-2.274-3.635-1.291-5.586Z" transform="translate(-315.021 -126.796)" fill="#7f3e3b"/>
      <path id="Path_1824" data-name="Path 1824" d="M374.218,141.51a11.438,11.438,0,0,0,.1,4.86c.267,1.1,1.512,1.875,2.853,2.309a7.223,7.223,0,0,1,.761-2.173Z" transform="translate(-318.211 -127.396)" opacity="0.2"/>
      <path id="Path_1825" data-name="Path 1825" d="M365.343,126.486c1.079,4.5,1.442,6.422,4.139,8.4,4.063,2.974,9.331.791,9.613-3.907.252-4.229-1.553-10.874-6.311-12a6.135,6.135,0,0,0-7.441,7.5Z" transform="translate(-313.818 -116.133)" fill="#7f3e3b"/>
      <path id="Path_1826" data-name="Path 1826" d="M372.727,117.918c1.356,4.033-5.233,1.976-5.651,5.949s-2.742,4.451-6.664,4.88c-.842-4.3,1.815-9.679,3.554-10.828S369.672,114.444,372.727,117.918Z" transform="translate(-311.392 -114.788)" fill="#263238"/>
      <path id="Path_1827" data-name="Path 1827" d="M363.377,139.357a3.488,3.488,0,0,0,1.986,1.674c1.139.358,1.729-.63,1.432-1.709-.262-.968-1.175-2.329-2.329-2.218A1.468,1.468,0,0,0,363.377,139.357Z" transform="translate(-312.839 -125.208)" fill="#7f3e3b"/>
      <path id="Path_1828" data-name="Path 1828" d="M384.385,120.37c-.544.5-.8,2.163,2.425,2.586S384.385,120.37,384.385,120.37Z" transform="translate(-323.196 -116.913)" fill="#263238"/>
      <path id="Path_1829" data-name="Path 1829" d="M365.557,217.45l-14.115-3.69s2.652,36.034,4.668,49.776c-4.114,17.9-6.8,47.638-6.8,47.638h3.332s8.61-30.312,12.643-45.682a19.315,19.315,0,0,0,.585-3.529C367.07,244.385,365.557,217.45,365.557,217.45Z" transform="translate(-305.966 -163.224)" fill="#7f3e3b"/>
      <path id="Path_1830" data-name="Path 1830" d="M351.023,404.63h-3.846a.464.464,0,0,0-.444.333l-1.316,4.356a.665.665,0,0,0,.65.872c1.921-.035,1.2-.146,3.625-.146,1.512,0,5.339.156,7.4.156s2.485-2.016,1.659-2.218c-3.71-.827-5.833-1.966-6.952-3.055A1.094,1.094,0,0,0,351.023,404.63Z" transform="translate(-304.02 -257.874)" fill="#263238"/>
      <path id="Path_1831" data-name="Path 1831" d="M359.8,405.284a1.86,1.86,0,0,0,1.084-.257.711.711,0,0,0,.292-.529.292.292,0,0,0-.131-.3c-.5-.343-2.384.5-2.763.686a.111.111,0,0,0-.066.111.106.106,0,0,0,.081.1,7.169,7.169,0,0,0,1.5.192Zm.9-.953a.363.363,0,0,1,.217.05.1.1,0,0,1,.04.1.5.5,0,0,1-.207.368,3.091,3.091,0,0,1-2.072.1,6.947,6.947,0,0,1,2.021-.615Z" transform="translate(-310.384 -257.622)" fill="#407bff"/>
      <path id="Path_1832" data-name="Path 1832" d="M358.326,404.006h.04c.63-.257,1.911-1.26,1.855-1.78,0-.116-.086-.257-.368-.292-1.084-.131-1.608,1.86-1.628,1.946a.1.1,0,0,0,.03.106A.1.1,0,0,0,358.326,404.006Zm1.422-1.86h.071c.116,0,.176.045.186.1.03.3-.857,1.094-1.512,1.442C358.664,403.214,359.088,402.146,359.748,402.146Z" transform="translate(-310.385 -256.535)" fill="#407bff"/>
      <path id="Path_1833" data-name="Path 1833" d="M322.486,215.552s-7.33,27.454-13.011,39.719a18.959,18.959,0,0,1-4.275,5.918c-11.2,10.455-31.759,30.247-31.759,30.247l-1.951-2.364s18.072-25.205,27.58-34.758c3.705-14.307,4.3-33.942,10.964-42.023Z" transform="translate(-267.376 -162.495)" fill="#7f3e3b"/>
      <path id="Path_1834" data-name="Path 1834" d="M333.288,211.78c-1.906.726-4.648,5.767-5.374,8.9s-.928,14.06-7.284,21.51c0,0,1.175,3.423,9.689,3.191,6.75-.181,11.373.912,16.217,3.473,3.856,2.042,8.988-.388,8.988-.388s-4.149-23.189-3.584-31.855C348.694,215.7,333.288,211.78,333.288,211.78Z" transform="translate(-291.744 -162.242)" fill="#263238"/>
      <path id="Path_1835" data-name="Path 1835" d="M359.38,251.008l.287-12.6,1.618,2.783Z" transform="translate(-310.96 -175.448)" opacity="0.4"/>
      <path id="Path_1836" data-name="Path 1836" d="M269.883,366.189l-2.112-2.778a.373.373,0,0,0-.479-.106l-3.609,2.016a.736.736,0,0,0-.192,1.089c1.149,1.437.66.681,2.077,2.521.872,1.129,2.636,3.751,3.841,5.308s2.783.5,2.42-.267a13.649,13.649,0,0,1-1.694-6.967A1.23,1.23,0,0,0,269.883,366.189Z" transform="translate(-263.329 -237.359)" fill="#263238"/>
      <path id="Path_1837" data-name="Path 1837" d="M277.566,371.812a1.309,1.309,0,0,0,.136-.111.388.388,0,0,0,.106-.363c-.141-.58-1.729-1.159-1.911-1.225a.1.1,0,0,0-.116.146c.257.57.781,1.512,1.361,1.643a.57.57,0,0,0,.423-.091Zm-1.487-1.4c.63.252,1.442.665,1.512.973a.156.156,0,0,1-.055.156.408.408,0,0,1-.378.141c-.308-.055-.706-.529-1.079-1.27Z" transform="translate(-269.495 -240.754)" fill="#407bff"/>
      <path id="Path_1838" data-name="Path 1838" d="M277.826,369.583a.429.429,0,0,0,.1-.086.383.383,0,0,0,0-.5.61.61,0,0,0-.4-.287c-.665-.131-1.719.66-1.764.7a.111.111,0,0,0-.04.1.121.121,0,0,0,.066.091A2.825,2.825,0,0,0,277.826,369.583Zm-1.714-.121a2.435,2.435,0,0,1,1.386-.5.363.363,0,0,1,.252.181c.076.121.045.181,0,.222a2.351,2.351,0,0,1-1.679.131Z" transform="translate(-269.473 -240.053)" fill="#407bff"/>
      <path id="Path_1839" data-name="Path 1839" d="M344.915,210.115l-1.195,1.432c-.091.111.03.277.242.333l19.323,4.683c.166.04.318,0,.353-.106l.529-1.6c.04-.111-.086-.242-.267-.287l-18.652-4.537A.328.328,0,0,0,344.915,210.115Z" transform="translate(-303.179 -161.369)" fill="#fff"/>
      <path id="Path_1840" data-name="Path 1840" d="M349.542,213.146l-.5-.126c-.1,0-.161-.091-.141-.151l.711-2.072c0-.061.116-.091.217-.066l.5.121c.1.025.166.1.141.156l-.706,2.067C349.738,213.136,349.637,213.166,349.542,213.146Z" transform="translate(-305.759 -161.718)" fill="#263238"/>
      <path id="Path_1841" data-name="Path 1841" d="M379.051,220.336l-.5-.126a.133.133,0,0,1-.141-.151l.706-2.072c0-.061.121-.091.222-.066l.5.121c.1.025.161.1.141.156l-.706,2.067C379.248,220.331,379.152,220.356,379.051,220.336Z" transform="translate(-320.393 -165.283)" fill="#263238"/>
      <path id="Path_1842" data-name="Path 1842" d="M364.292,216.741l-.5-.121a.139.139,0,0,1-.141-.156l.706-2.067c0-.06.121-.091.222-.066l.5.121a.133.133,0,0,1,.141.151l-.706,2.072C364.493,216.736,364.392,216.766,364.292,216.741Z" transform="translate(-313.074 -163.503)" fill="#263238"/>
      <path id="Path_1843" data-name="Path 1843" d="M379.6,133.743c.066.368.313.64.555.6s.383-.368.318-.736-.313-.64-.555-.6S379.539,133.375,379.6,133.743Z" transform="translate(-320.981 -123.178)" fill="#263238"/>
      <ellipse id="Ellipse_246" data-name="Ellipse 246" cx="0.444" cy="0.681" rx="0.444" ry="0.681" transform="translate(62.666 9.287) rotate(-10.93)" fill="#263238"/>
      <path id="Path_1844" data-name="Path 1844" d="M388.32,131.408l.847-.408S388.829,131.781,388.32,131.408Z" transform="translate(-325.311 -122.184)" fill="#263238"/>
      <path id="Path_1845" data-name="Path 1845" d="M385.93,134.8a10.481,10.481,0,0,0,1.729,2.158,1.588,1.588,0,0,1-1.27.449Z" transform="translate(-324.126 -124.068)" fill="#630f0f"/>
      <path id="Path_1846" data-name="Path 1846" d="M382.029,142.205a.111.111,0,0,0,.05-.106.116.116,0,0,0-.126-.1,3.025,3.025,0,0,1-2.586-.776.111.111,0,1,0-.161.146,3.206,3.206,0,0,0,2.783.847.056.056,0,0,0,.04-.015Z" transform="translate(-320.77 -127.229)" fill="#263238"/>
      <path id="Path_1847" data-name="Path 1847" d="M375.671,129.716a.166.166,0,0,0,.076-.081,1.7,1.7,0,0,1,1.26-.938.212.212,0,0,0,.2-.237.227.227,0,0,0-.242-.2,2.132,2.132,0,0,0-1.6,1.17.222.222,0,0,0,.313.287Z" transform="translate(-318.873 -120.825)" fill="#263238"/>
      <path id="Path_1848" data-name="Path 1848" d="M389.137,127.674a.091.091,0,0,0,.035-.025.217.217,0,0,0,0-.308,2.243,2.243,0,0,0-1.885-.741.212.212,0,0,0-.171.252.222.222,0,0,0,.252.181,1.79,1.79,0,0,1,1.487.6.222.222,0,0,0,.282.035Z" transform="translate(-324.712 -119.997)" fill="#263238"/>
      <path id="Path_1849" data-name="Path 1849" d="M320.024,164.625c-.63.741-1.2,1.351-1.835,1.986s-1.26,1.235-1.911,1.825a42.345,42.345,0,0,1-4.179,3.3c-.741.5-1.512,1.008-2.284,1.452a26.79,26.79,0,0,1-2.465,1.24,20.8,20.8,0,0,1-2.662.953c-.464.126-.933.237-1.417.323-.237.055-.5.081-.726.116l-.368.05-.444.035a9.79,9.79,0,0,1-3.156-.418,18.413,18.413,0,0,1-2.642-1.008,33.666,33.666,0,0,1-4.6-2.682,59.166,59.166,0,0,1-7.95-6.594l1.543-1.769c1.321.948,2.7,1.906,4.078,2.793s2.778,1.769,4.2,2.551a35.065,35.065,0,0,0,4.29,2.062,14.647,14.647,0,0,0,2.112.655,5.9,5.9,0,0,0,1.83.156l.181-.025.257-.05c.171-.035.343-.06.5-.111.338-.081.681-.181,1.008-.292a19.663,19.663,0,0,0,2.047-.842,28.882,28.882,0,0,0,3.932-2.41,43.255,43.255,0,0,0,3.67-3.025c.59-.534,1.17-1.089,1.734-1.653s1.134-1.165,1.613-1.694Z" transform="translate(-273.277 -137.333)" fill="#7f3e3b"/>
      <path id="Path_1850" data-name="Path 1850" d="M282.734,165.821l-2.914-1.709,2.994-2.752s1.825,1.769,1.638,3.705Z" transform="translate(-271.507 -137.239)" fill="#7f3e3b"/>
      <path id="Path_1851" data-name="Path 1851" d="M275.02,160.424l2.168-2.324,3.246,1.648L277.44,162.5Z" transform="translate(-269.127 -135.623)" fill="#7f3e3b"/>
      <path id="Path_1852" data-name="Path 1852" d="M347.218,156.706c-1.966.106-4.638,3.655-4.638,3.655l5.127,6.3s2.994-1.961,2.747-4.537C350.192,159.479,349.466,156.58,347.218,156.706Z" transform="translate(-302.629 -134.929)" fill="#b25300"/>
      <path id="Path_1853" data-name="Path 1853" d="M380,132.7l.842-.388S380.529,133.071,380,132.7Z" transform="translate(-321.185 -122.834)" fill="#263238"/>
    </g>
    <g id="freepik--fresh-drink--inject-35" transform="translate(39.116 77.181)">
      <path id="Path_1854" data-name="Path 1854" d="M120.007,102.342l-.2-.464A37.339,37.339,0,0,1,134.248,99v.5a36.8,36.8,0,0,0-14.241,2.838Z" transform="translate(-98.529 -99)" fill="#b25300"/>
      <path id="Path_1855" data-name="Path 1855" d="M108.592,109.294l-.272-.423c1.064-.681,2.173-1.316,3.307-1.89l.227.449C110.74,108,109.641,108.623,108.592,109.294Z" transform="translate(-92.831 -102.957)" fill="#b25300"/>
      <path id="Path_1856" data-name="Path 1856" d="M135.54,110.254a1.467,1.467,0,0,1,.192,2.1l-1.316,1.512L92.176,162.48l-1.316,1.512a1.457,1.457,0,0,1-2.1.106,35.7,35.7,0,0,1,46.781-53.844Z" transform="translate(-77.594 -100.721)" fill="#b25300"/>
      <path id="Path_1857" data-name="Path 1857" d="M137.857,117.3,95.617,165.92a32.2,32.2,0,1,1,42.24-48.617Z" transform="translate(-81.036 -104.162)" fill="#fff"/>
      <path id="Path_1858" data-name="Path 1858" d="M95.05,122.978a30.685,30.685,0,0,0,3.025,43.3l40.258-46.338a30.7,30.7,0,0,0-43.283,3.04Z" transform="translate(-82.515 -105.657)" fill="#b25300" opacity="0.1"/>
      <path id="Path_1859" data-name="Path 1859" d="M103.641,193.13a25.931,25.931,0,0,1-6.322-12.668,1.2,1.2,0,0,1,1.089-1.422l17.644-1.235a1.19,1.19,0,0,1,1.008,1.966l-11.595,13.344a1.195,1.195,0,0,1-1.825.015Z" transform="translate(-87.365 -138.076)" fill="#b25300" opacity="0.3"/>
      <path id="Path_1860" data-name="Path 1860" d="M149.758,121.348a25.926,25.926,0,0,1,13.424,4.487,1.2,1.2,0,0,1,.237,1.774l-11.595,13.344a1.19,1.19,0,0,1-2.087-.7l-1.24-17.644a1.2,1.2,0,0,1,1.26-1.265Z" transform="translate(-112.754 -110.081)" fill="#b25300" opacity="0.3"/>
      <path id="Path_1861" data-name="Path 1861" d="M96.469,157a25.977,25.977,0,0,1,4.492-13.424,1.195,1.195,0,0,1,1.774-.237l13.344,11.595a1.19,1.19,0,0,1-.7,2.087l-17.644,1.235A1.2,1.2,0,0,1,96.469,157Z" transform="translate(-86.954 -120.844)" fill="#b25300" opacity="0.3"/>
      <path id="Path_1862" data-name="Path 1862" d="M113.106,128.514a25.931,25.931,0,0,1,12.663-6.316,1.195,1.195,0,0,1,1.427,1.084l1.235,17.644a1.19,1.19,0,0,1-1.966.978l-13.349-11.595a1.195,1.195,0,0,1-.01-1.795Z" transform="translate(-95.005 -110.492)" fill="#b25300" opacity="0.3"/>
      <path id="Path_1863" data-name="Path 1863" d="M213.5,109.71l14.3,126.163,3.861-.434-14.191-125.2a2.894,2.894,0,0,1,4.083-2.954l32.3,14.841,1.623-3.529L222.3,103.353a6.226,6.226,0,0,0-8.8,6.357Z" transform="translate(-144.969 -100.873)" fill="#b25300"/>
      <path id="Path_1865" data-name="Path 1865" d="M196.869,145.775l-77.129,5.414a2.47,2.47,0,0,0-2.279,2.768L133.2,279.984a2.465,2.465,0,0,0,2.616,2.158l63.4-4.451a2.47,2.47,0,0,0,2.294-2.521L199.5,148.2a2.465,2.465,0,0,0-2.626-2.425Z" transform="translate(-97.355 -122.192)" fill="#b25300" opacity="0.3"/>
      <path id="Path_1866" data-name="Path 1866" d="M198.244,187.106a4.184,4.184,0,0,1,4.371,4.124l1.427,89.585a7.753,7.753,0,0,1-7.214,7.864L150.4,291.94a7.758,7.758,0,0,1-8.237-6.765l-10.985-87.937a4.189,4.189,0,0,1,3.927-4.708c.287,0,.585-.03.9-.055,6.12-.428,6.049-1.432,12.169-1.865s6.19.58,12.31.146,6.049-1.432,12.169-1.865,6.19.58,12.31.151,6.049-1.437,12.164-1.865C197.518,187.146,197.891,187.126,198.244,187.106Z" transform="translate(-104.149 -142.689)" fill="#b25300" opacity="0.4"/>
      <rect id="Rectangle_3135" data-name="Rectangle 3135" width="18.839" height="18.839" rx="5.56" transform="matrix(0.656, -0.755, 0.755, 0.656, 34.205, 73.288)" fill="#fff" opacity="0.2"/>
      <rect id="Rectangle_3136" data-name="Rectangle 3136" width="18.771" height="18.771" rx="5.54" transform="matrix(-0.622, -0.783, 0.783, -0.622, 69.612, 79.211)" fill="#fff" opacity="0.2"/>
      <rect id="Rectangle_3137" data-name="Rectangle 3137" width="18.839" height="18.839" rx="5.56" transform="translate(66.573 115.159) rotate(-67.74)" fill="#fff" opacity="0.2"/>
      <rect id="Rectangle_3138" data-name="Rectangle 3138" width="18.839" height="18.839" rx="5.56" transform="translate(40.704 104.571) rotate(-67.74)" fill="#fff" opacity="0.2"/>
      <rect id="Rectangle_3139" data-name="Rectangle 3139" width="18.839" height="18.839" rx="5.56" transform="translate(49.223 117.129) rotate(12.27)" fill="#fff" opacity="0.2"/>
    </g>
  </g>
</svg>
