<svg xmlns="http://www.w3.org/2000/svg" width="96" height="32" viewBox="0 0 96 32">
  <g id="Group_1338" data-name="Group 1338" transform="translate(553 21745)">
    <rect id="Rectangle_3159" data-name="Rectangle 3159" width="96" height="32" rx="16" transform="translate(-553 -21745)" fill="#fbfbfb"/>
    <path id="bx-refresh" d="M11.391,13.794H8.351v-.009a5.2,5.2,0,0,1,.789-1.874,5.3,5.3,0,0,1,2.308-1.9,5.1,5.1,0,0,1,.984-.3,5.326,5.326,0,0,1,2.117,0A5.222,5.222,0,0,1,17.2,11.135l1.485-1.481A7.38,7.38,0,0,0,16.35,8.079a7.26,7.26,0,0,0-1.379-.428,7.425,7.425,0,0,0-2.957,0,7.28,7.28,0,0,0-1.38.429A7.345,7.345,0,0,0,6.3,13.365c-.029.142-.045.287-.066.43H3l4.2,4.2,4.2-4.2Zm4.2,2.1h3.04V15.9a5.25,5.25,0,0,1-4.08,4.08,5.322,5.322,0,0,1-2.116,0,5.2,5.2,0,0,1-1.874-.789,5.32,5.32,0,0,1-.776-.64L8.3,20.035a7.376,7.376,0,0,0,2.334,1.573,7.185,7.185,0,0,0,1.379.428,7.34,7.34,0,0,0,7.566-3.089,7.315,7.315,0,0,0,1.1-2.626c.029-.142.045-.287.066-.43h3.232l-4.2-4.2Z" transform="translate(-490.533 -21743.844)" fill="#d6175d"/>
    <path id="Path_9054" data-name="Path 9054" d="M-15.912,0l-1.76-3.058h-.957V0h-1.254V-7.645h2.64a3.283,3.283,0,0,1,1.49.308,2.137,2.137,0,0,1,.913.825,2.245,2.245,0,0,1,.3,1.155A2.289,2.289,0,0,1-14.971-4a2.205,2.205,0,0,1-1.337.831L-14.416,0Zm-2.717-4.059h1.386a1.454,1.454,0,0,0,1.062-.352,1.267,1.267,0,0,0,.358-.946,1.223,1.223,0,0,0-.352-.929,1.5,1.5,0,0,0-1.067-.336h-1.386Zm11.253.88a3.921,3.921,0,0,1-.044.616h-4.631A1.682,1.682,0,0,0-11.512-1.4a1.7,1.7,0,0,0,1.188.44A1.467,1.467,0,0,0-8.894-1.8h1.353a2.73,2.73,0,0,1-1,1.37A2.921,2.921,0,0,1-10.324.1,3.1,3.1,0,0,1-11.88-.292a2.778,2.778,0,0,1-1.078-1.1,3.356,3.356,0,0,1-.391-1.645,3.434,3.434,0,0,1,.38-1.644A2.669,2.669,0,0,1-11.9-5.775a3.175,3.175,0,0,1,1.578-.385,3.087,3.087,0,0,1,1.529.374A2.643,2.643,0,0,1-7.75-4.736,3.164,3.164,0,0,1-7.376-3.179Zm-1.309-.4A1.427,1.427,0,0,0-9.18-4.686a1.77,1.77,0,0,0-1.2-.418,1.611,1.611,0,0,0-1.111.412,1.724,1.724,0,0,0-.55,1.116ZM-3.6-5.038H-4.724V0H-5.99V-5.038H-6.7V-6.061h.715V-6.49a1.907,1.907,0,0,1,.556-1.523,2.634,2.634,0,0,1,1.743-.479v1.045a1.177,1.177,0,0,0-.8.215.983.983,0,0,0-.231.742v.429H-3.6Zm2.365-.143A1.969,1.969,0,0,1-.506-5.9,2.164,2.164,0,0,1,.578-6.16v1.3H.259a1.527,1.527,0,0,0-1.117.374,1.788,1.788,0,0,0-.38,1.3V0H-2.491V-6.061h1.254Zm8.525,2a3.921,3.921,0,0,1-.044.616H2.613A1.682,1.682,0,0,0,3.152-1.4a1.7,1.7,0,0,0,1.188.44A1.467,1.467,0,0,0,5.77-1.8H7.123a2.73,2.73,0,0,1-1,1.37A2.921,2.921,0,0,1,4.34.1,3.1,3.1,0,0,1,2.783-.292a2.778,2.778,0,0,1-1.078-1.1,3.356,3.356,0,0,1-.391-1.645,3.434,3.434,0,0,1,.379-1.644A2.669,2.669,0,0,1,2.761-5.775,3.175,3.175,0,0,1,4.34-6.16a3.087,3.087,0,0,1,1.529.374,2.643,2.643,0,0,1,1.045,1.05A3.164,3.164,0,0,1,7.288-3.179Zm-1.309-.4a1.427,1.427,0,0,0-.495-1.111,1.77,1.77,0,0,0-1.2-.418,1.611,1.611,0,0,0-1.111.412,1.724,1.724,0,0,0-.55,1.116ZM10.72.1A3.054,3.054,0,0,1,9.438-.16a2.251,2.251,0,0,1-.9-.7,1.755,1.755,0,0,1-.352-1h1.3a.885.885,0,0,0,.368.644,1.338,1.338,0,0,0,.842.259,1.417,1.417,0,0,0,.819-.2.614.614,0,0,0,.292-.523.537.537,0,0,0-.325-.506,6.083,6.083,0,0,0-1.029-.363,9.927,9.927,0,0,1-1.111-.363A1.948,1.948,0,0,1,8.6-3.454a1.413,1.413,0,0,1-.314-.957A1.492,1.492,0,0,1,8.575-5.3a1.9,1.9,0,0,1,.819-.633,3.062,3.062,0,0,1,1.227-.231,2.533,2.533,0,0,1,1.667.522,1.876,1.876,0,0,1,.677,1.425H11.71a.893.893,0,0,0-.33-.649,1.234,1.234,0,0,0-.8-.242,1.3,1.3,0,0,0-.759.187.579.579,0,0,0-.264.5.536.536,0,0,0,.176.407,1.254,1.254,0,0,0,.429.259q.253.094.748.237a8.137,8.137,0,0,1,1.083.357,2.017,2.017,0,0,1,.732.534,1.412,1.412,0,0,1,.319.935,1.568,1.568,0,0,1-.286.924,1.9,1.9,0,0,1-.808.638A3.013,3.013,0,0,1,10.72.1ZM17.528-6.16a2.542,2.542,0,0,1,1.238.3,2.114,2.114,0,0,1,.858.88,2.936,2.936,0,0,1,.313,1.408V0H18.694V-3.388a1.759,1.759,0,0,0-.407-1.249,1.449,1.449,0,0,0-1.111-.434,1.466,1.466,0,0,0-1.116.434,1.744,1.744,0,0,0-.413,1.249V0H14.394V-8.14h1.254v2.783a2.1,2.1,0,0,1,.809-.594A2.7,2.7,0,0,1,17.528-6.16Z" transform="translate(-518.5 -21724.928)"/>
  </g>
</svg>
