<svg xmlns="http://www.w3.org/2000/svg" width="347.1" height="196.88" viewBox="0 0 347.1 196.88">
  <g id="Add_files-pana" data-name="Add files-pana" transform="translate(0 0)">
    <g id="freepik--background-complete--inject-5" transform="translate(10.297 0)">
      <path id="Path_1635" data-name="Path 1635" d="M645.74,102.55l-26.03.316.411,33.943,26.035.337Z" transform="translate(-327.437 -83.649)" fill="#ebebeb"/>
      <path id="Path_1636" data-name="Path 1636" d="M645.137,104.89l-22.777.274.374,30.78,22.782.5Z" transform="translate(-328.69 -84.755)" fill="#fafafa"/>
      <path id="Path_1637" data-name="Path 1637" d="M644.866,115.23l-15.116-.39.258,21.516,15.111-.185Z" transform="translate(-332.184 -89.459)" fill="#e0e0e0"/>
      <path id="Path_1638" data-name="Path 1638" d="M630.008,136.356l14.979-11.235L629.75,114.84Z" transform="translate(-332.184 -89.459)" fill="#f5f5f5"/>
      <path id="Path_1639" data-name="Path 1639" d="M108.494,144.54l-37.444.453.591,48.833,37.46.49Z" transform="translate(-68.05 -103.5)" fill="#ebebeb"/>
      <path id="Path_1640" data-name="Path 1640" d="M107.628,147.9l-32.768.4.538,44.293,32.778.706Z" transform="translate(-69.851 -105.088)" fill="#fafafa"/>
      <path id="Path_1641" data-name="Path 1641" d="M107.234,162.784,85.48,162.22l.374,30.954,21.743-.264Z" transform="translate(-74.872 -111.858)" fill="#e0e0e0"/>
      <path id="Path_1642" data-name="Path 1642" d="M85.854,193.174l21.553-16.165L85.48,162.22Z" transform="translate(-74.872 -111.858)" fill="#f5f5f5"/>
      <rect id="Rectangle_3070" data-name="Rectangle 3070" width="14.024" height="30.026" transform="translate(56.472 27.743)" fill="#f5f5f5"/>
      <rect id="Rectangle_3071" data-name="Rectangle 3071" width="17.235" height="29.009" transform="translate(71.082 59.862)" fill="#f5f5f5"/>
      <path id="Path_1643" data-name="Path 1643" d="M236.85,93.921h16.365V67.29h.585V93.921h15.142V66.7H236.85Z" transform="translate(-146.434 -66.7)" fill="#f5f5f5"/>
      <rect id="Rectangle_3072" data-name="Rectangle 3072" width="14.024" height="29.009" transform="translate(56.472 59.862)" fill="#f5f5f5"/>
      <rect id="Rectangle_3073" data-name="Rectangle 3073" width="15.147" height="29.009" transform="translate(107.361 59.862)" fill="#f5f5f5"/>
      <rect id="Rectangle_3074" data-name="Rectangle 3074" width="17.235" height="30.026" transform="translate(71.082 27.743)" fill="#f5f5f5"/>
      <rect id="Rectangle_3075" data-name="Rectangle 3075" width="15.147" height="30.026" transform="translate(107.361 27.743)" fill="#f5f5f5"/>
      <rect id="Rectangle_3076" data-name="Rectangle 3076" width="14.024" height="26.14" transform="translate(56.472 89.393)" fill="#f5f5f5"/>
      <path id="Path_1644" data-name="Path 1644" d="M186.5,93.921V67.29h.58V93.921h17.235V66.7H172.47V93.921Z" transform="translate(-115.998 -66.7)" fill="#f5f5f5"/>
      <rect id="Rectangle_3077" data-name="Rectangle 3077" width="17.235" height="26.14" transform="translate(71.082 89.393)" fill="#f5f5f5"/>
      <rect id="Rectangle_3078" data-name="Rectangle 3078" width="15.147" height="26.14" transform="translate(107.361 89.393)" fill="#f5f5f5"/>
      <rect id="Rectangle_3079" data-name="Rectangle 3079" width="16.365" height="30.026" transform="translate(90.416 27.743)" fill="#f5f5f5"/>
      <rect id="Rectangle_3080" data-name="Rectangle 3080" width="16.365" height="26.14" transform="translate(90.416 89.393)" fill="#f5f5f5"/>
      <rect id="Rectangle_3081" data-name="Rectangle 3081" width="16.365" height="29.009" transform="translate(90.416 59.862)" fill="#f5f5f5"/>
      <rect id="Rectangle_3082" data-name="Rectangle 3082" width="14.024" height="30.026" transform="translate(207.356 27.743)" fill="#f5f5f5"/>
      <rect id="Rectangle_3083" data-name="Rectangle 3083" width="17.235" height="29.009" transform="translate(221.966 59.862)" fill="#f5f5f5"/>
      <path id="Path_1645" data-name="Path 1645" d="M523.03,93.921H539.4V67.29h.58V93.921h15.148V66.7H523.03Z" transform="translate(-281.73 -66.7)" fill="#f5f5f5"/>
      <rect id="Rectangle_3084" data-name="Rectangle 3084" width="14.024" height="29.009" transform="translate(207.356 59.862)" fill="#f5f5f5"/>
      <rect id="Rectangle_3085" data-name="Rectangle 3085" width="15.147" height="29.009" transform="translate(258.245 59.862)" fill="#f5f5f5"/>
      <rect id="Rectangle_3086" data-name="Rectangle 3086" width="17.235" height="30.026" transform="translate(221.966 27.743)" fill="#f5f5f5"/>
      <rect id="Rectangle_3087" data-name="Rectangle 3087" width="15.147" height="30.026" transform="translate(258.245 27.743)" fill="#f5f5f5"/>
      <rect id="Rectangle_3088" data-name="Rectangle 3088" width="14.024" height="26.14" transform="translate(207.356 89.393)" fill="#f5f5f5"/>
      <path id="Path_1646" data-name="Path 1646" d="M472.68,93.921V67.29h.58V93.921h17.235V66.7H458.65V93.921Z" transform="translate(-251.294 -66.7)" fill="#f5f5f5"/>
      <rect id="Rectangle_3089" data-name="Rectangle 3089" width="17.235" height="26.14" transform="translate(221.966 89.393)" fill="#f5f5f5"/>
      <rect id="Rectangle_3090" data-name="Rectangle 3090" width="15.147" height="26.14" transform="translate(258.245 89.393)" fill="#f5f5f5"/>
      <rect id="Rectangle_3091" data-name="Rectangle 3091" width="16.365" height="30.026" transform="translate(241.3 27.743)" fill="#f5f5f5"/>
      <rect id="Rectangle_3092" data-name="Rectangle 3092" width="16.365" height="26.14" transform="translate(241.3 89.393)" fill="#f5f5f5"/>
      <rect id="Rectangle_3093" data-name="Rectangle 3093" width="16.365" height="29.009" transform="translate(241.3 59.862)" fill="#f5f5f5"/>
      <rect id="Rectangle_3094" data-name="Rectangle 3094" width="31.26" height="39.464" transform="translate(147.621 10.555)" fill="#ebebeb"/>
      <rect id="Rectangle_3095" data-name="Rectangle 3095" width="4.334" height="1.054" transform="translate(161.281 49.138)" fill="#e0e0e0"/>
      <path id="Path_1647" data-name="Path 1647" d="M369.809,112.49l-5.757.844-2.151,5.409,3.606,4.566,5.763-.844,2.146-5.409Z" transform="translate(-205.554 -88.348)" fill="#e0e0e0"/>
      <path id="Path_1648" data-name="Path 1648" d="M374.909,119.12l-5.757.844L367,125.373l3.612,4.566,5.757-.844,2.151-5.409Z" transform="translate(-207.965 -91.482)" fill="#fafafa"/>
      <rect id="Rectangle_3096" data-name="Rectangle 3096" width="4.334" height="0.902" transform="translate(161.893 10.023)" fill="#e0e0e0"/>
      <path id="Path_1649" data-name="Path 1649" d="M65.36,341.806v51.5h77.2V341.39Z" transform="translate(-65.36 -196.564)" fill="#ebebeb"/>
      <rect id="Rectangle_3097" data-name="Rectangle 3097" width="71.361" height="13.028" transform="translate(2.921 148.438)" fill="#f5f5f5"/>
      <rect id="Rectangle_3098" data-name="Rectangle 3098" width="71.361" height="13.028" transform="translate(2.921 164.524)" fill="#f5f5f5"/>
      <rect id="Rectangle_3099" data-name="Rectangle 3099" width="71.361" height="13.028" transform="translate(2.921 180.605)" fill="#f5f5f5"/>
      <rect id="Rectangle_3100" data-name="Rectangle 3100" width="22.123" height="13.028" transform="translate(2.921 148.438)" fill="#e0e0e0"/>
      <rect id="Rectangle_3101" data-name="Rectangle 3101" width="22.123" height="13.028" transform="translate(2.921 164.524)" fill="#e0e0e0"/>
      <rect id="Rectangle_3102" data-name="Rectangle 3102" width="22.123" height="13.028" transform="translate(2.821 180.515)" fill="#e0e0e0"/>
      <path id="Path_1650" data-name="Path 1650" d="M116.04,363.244l6.97-10.824,7.65,10.824Z" transform="translate(-89.32 -201.778)" fill="#e0e0e0"/>
      <path id="Path_1651" data-name="Path 1651" d="M123.01,352.42l.337,10.824H116.04Z" transform="translate(-89.32 -201.778)" fill="#ebebeb"/>
      <path id="Path_1652" data-name="Path 1652" d="M148.41,369.267l2.968-4.107,3.527,4.107Z" transform="translate(-104.623 -207.801)" fill="#e0e0e0"/>
      <path id="Path_1653" data-name="Path 1653" d="M151.378,365.16l.279,4.107H148.41Z" transform="translate(-104.623 -207.801)" fill="#ebebeb"/>
      <path id="Path_1654" data-name="Path 1654" d="M95.909,396.1h0a2.378,2.378,0,0,1,2.315-2.288l18.864-.432v5.183H98.281a2.378,2.378,0,0,1-2.373-2.462Z" transform="translate(-79.802 -221.143)" fill="#f5f5f5"/>
      <path id="Path_1655" data-name="Path 1655" d="M99.19,395.624a2.784,2.784,0,0,0,0,2.842h19.265V395.06Z" transform="translate(-81.169 -221.937)" fill="#ebebeb"/>
      <path id="Path_1656" data-name="Path 1656" d="M104.879,387.885h0a1.845,1.845,0,0,1,1.8-1.782l14.7-.353v4.044H106.73a1.851,1.851,0,0,1-1.851-1.909Z" transform="translate(-84.043 -217.535)" fill="#ebebeb"/>
      <path id="Path_1657" data-name="Path 1657" d="M107.436,387.622a2.162,2.162,0,0,0,0,2.214h15.016V387.2Z" transform="translate(-85.108 -218.221)" fill="#fafafa"/>
      <path id="Path_1658" data-name="Path 1658" d="M136.207,380.85l-.047,11.884,2.483.037V380.85Z" transform="translate(-98.832 -215.219)" fill="#fafafa"/>
      <path id="Path_1659" data-name="Path 1659" d="M146.169,383.98l-.069,10.239,3.844.032V383.98Z" transform="translate(-103.531 -216.699)" fill="#e0e0e0"/>
      <path id="Path_1660" data-name="Path 1660" d="M140.951,383.98l-.021,10.239,1.239.032V383.98Z" transform="translate(-101.087 -216.699)" fill="#e0e0e0"/>
      <path id="Path_1661" data-name="Path 1661" d="M153.416,383.98l-.026,10.239,1.244.032V383.98Z" transform="translate(-106.977 -216.699)" fill="#fafafa"/>
      <path id="Path_1662" data-name="Path 1662" d="M142.9,380.85l-.032,11.884,1.7.037V380.85Z" transform="translate(-102.004 -215.219)" fill="#ebebeb"/>
      <path id="Path_1663" data-name="Path 1663" d="M155.876,380.85l-.026,11.884,1.692.037V380.85Z" transform="translate(-108.14 -215.219)" fill="#e0e0e0"/>
      <path id="Path_1664" data-name="Path 1664" d="M178.741,395.344h-5.8l-4.192-4.16.047-.042,4.16-4.17h.026l4.25-.322h0l4.687,3.691Zm-5.726-.132h5.652l3.1-4.845-4.576-3.6-4.176.311-4.081,4.086Z" transform="translate(-114.239 -217.961)" fill="#e0e0e0"/>
      <path id="Path_1665" data-name="Path 1665" d="M176.137,395.256l-3.227-4.55.016-.037,2.009-3.822,1.239,1.213h1.961l1.049-1.54,2.383,3.764-.016.037-2.473,4.93-.121-.063,2.462-4.893-2.241-3.532-.975,1.429h-2.088l-.016-.021-1.128-1.1-1.909,3.627,3.185,4.487Z" transform="translate(-116.206 -217.899)" fill="#e0e0e0"/>
      <path id="Path_1666" data-name="Path 1666" d="M168.926,394.494l-.016-.132,4.534-.627,4.766-.19,3.722-.005v.132l-3.722.005-4.756.19Z" transform="translate(-114.315 -221.218)" fill="#e0e0e0"/>
      <path id="Path_1667" data-name="Path 1667" d="M178.855,396.659,177.4,391.9l.005-.021.8-2.357.121.047-.791,2.33,1.445,4.719Z" transform="translate(-118.329 -219.318)" fill="#e0e0e0"/>
      <path id="Path_1668" data-name="Path 1668" d="M182.477,396.649l-.127-.037,1.429-4.9-1.2-2.141.116-.069,1.223,2.188-.005.026Z" transform="translate(-120.669 -219.308)" fill="#e0e0e0"/>
      <path id="Path_1669" data-name="Path 1669" d="M629.5,288.2c-3.411.527-4.935,4.745-4.634,8.172s1.708,6.8,1.334,10.228c-.48,4.355-3.775,8.04-4.155,12.406-.453,5.146,3.163,9.712,4.271,14.763.527,2.457.459,5.056,1.371,7.381a9.253,9.253,0,0,0,17.868-3.19c.079-3.954-2.362-7.677-2.067-11.6.221-2.916,1.93-5.673,1.582-8.573-.432-3.453-3.633-5.9-4.745-9.19s-.042-6.917-.432-10.376c-.7-6.2-4.139-10.545-10.355-10.018" transform="translate(-328.522 -171.397)" fill="#ebebeb"/>
      <path id="Path_1670" data-name="Path 1670" d="M603.135,345.17c-.58,5.747,1.961,12.506,4.919,17.467A27.417,27.417,0,0,0,620.919,373.8a1.848,1.848,0,0,0,1.851.053,1.829,1.829,0,0,0,.469-1.476,29.692,29.692,0,0,0-5.52-16.951c-3.285-4.745-6.385-7.545-14.583-10.26" transform="translate(-319.562 -198.351)" fill="#f5f5f5"/>
      <path id="Path_1671" data-name="Path 1671" d="M634.838,395.11a1.673,1.673,0,0,1-.164-.322c-.111-.248-.248-.559-.411-.944-.348-.817-.859-2-1.518-3.448a119.342,119.342,0,0,0-12.506-21.437c-.944-1.286-1.719-2.315-2.262-3.016l-.622-.823a1.261,1.261,0,0,1-.2-.3,2.36,2.36,0,0,1,.248.258l.664.786c.58.68,1.381,1.687,2.351,2.958a104.646,104.646,0,0,1,12.553,21.48c.633,1.466,1.118,2.663,1.424,3.5.142.39.264.706.353.96A1.478,1.478,0,0,1,634.838,395.11Z" transform="translate(-326.231 -207.64)" fill="#e0e0e0"/>
      <path id="Path_1672" data-name="Path 1672" d="M643.662,318.38a3.569,3.569,0,0,1,.063.527c.026.39.069.917.116,1.582.09,1.408.216,3.39.374,5.8.311,4.919.743,11.71,1.271,19.207s1.054,14.283,1.429,19.2c.19,2.436.337,4.413.448,5.8.042.664.079,1.2.105,1.582a3.676,3.676,0,0,1,0,.554,3.941,3.941,0,0,1-.079-.527c-.042-.39-.1-.917-.169-1.582-.132-1.408-.322-3.38-.527-5.8-.443-4.909-1-11.694-1.524-19.2s-.928-14.293-1.181-19.212c-.111-2.436-.206-4.424-.269-5.831,0-.664-.042-1.192-.058-1.582a4.009,4.009,0,0,1,0-.517Z" transform="translate(-338.757 -185.685)" fill="#e0e0e0"/>
      <path id="Path_1673" data-name="Path 1673" d="M633.65,406.72h14.388v10.545a6.907,6.907,0,0,1-6.907,6.907h0a6.9,6.9,0,0,1-6.9-6.538Z" transform="translate(-334.027 -227.449)" fill="#e0e0e0"/>
    </g>
    <g id="freepik--Floor--inject-5" transform="translate(0 196.607)">
      <path id="Path_1674" data-name="Path 1674" d="M392.93,439.737c0,.079-77.709.137-173.54.137s-173.561-.063-173.561-.137,77.693-.137,173.561-.137S392.93,439.663,392.93,439.737Z" transform="translate(-45.83 -439.6)" fill="#263238"/>
    </g>
    <g id="freepik--Character--inject-5" transform="translate(68.672 51.693)">
      <path id="Path_1675" data-name="Path 1675" d="M270.6,190.859h0a4.218,4.218,0,0,0,4.476-4.081c.058-2.288.111-4.6.111-4.6a4.16,4.16,0,0,0,3.691-3.8c.232-3.427,0-11.346,0-11.346h0a11.963,11.963,0,0,0-12.068.912l-.527.369.406,18.453A4.218,4.218,0,0,0,270.6,190.859Z" transform="translate(-218.723 -165.254)" fill="#b78876"/>
      <path id="Path_1676" data-name="Path 1676" d="M287.048,178.842a.5.5,0,1,1,.706,0A.5.5,0,0,1,287.048,178.842Z" transform="translate(-228.472 -171.005)" fill="#263238"/>
      <path id="Path_1677" data-name="Path 1677" d="M288.141,178c-.058.058-.385-.221-.854-.243s-.828.2-.881.137.037-.132.19-.243a1.176,1.176,0,0,1,.706-.185,1.144,1.144,0,0,1,.675.274C288.12,177.863,288.167,177.974,288.141,178Z" transform="translate(-228.231 -170.759)" fill="#263238"/>
      <path id="Path_1678" data-name="Path 1678" d="M278,178.4a.344.344,0,1,1,0-.021Z" transform="translate(-223.913 -171.163)" fill="#263238"/>
      <path id="Path_1679" data-name="Path 1679" d="M278.367,178.321c-.058.058-.38-.221-.854-.243s-.828.2-.875.137.032-.132.19-.243a1.16,1.16,0,0,1,1.381.09C278.351,178.184,278.4,178.295,278.367,178.321Z" transform="translate(-223.614 -170.911)" fill="#263238"/>
      <path id="Path_1680" data-name="Path 1680" d="M283.129,182.023a2.289,2.289,0,0,1,.77-.121c.127,0,.221-.032.237-.1a.659.659,0,0,0-.074-.359c-.105-.316-.211-.638-.327-.975a13.571,13.571,0,0,1-.685-2.568,12.907,12.907,0,0,1,.944,2.483l.306.986a.8.8,0,0,1,.042.527.337.337,0,0,1-.221.19.8.8,0,0,1-.216,0,2.183,2.183,0,0,1-.775-.063Z" transform="translate(-226.652 -170.964)" fill="#263238"/>
      <path id="Path_1681" data-name="Path 1681" d="M280.195,186.57l2.288.791a1.313,1.313,0,0,1-1.582.443A.994.994,0,0,1,280.195,186.57Z" transform="translate(-225.283 -175.063)" fill="#fff"/>
      <path id="Path_1682" data-name="Path 1682" d="M279.223,195.412a8.009,8.009,0,0,1-4.413-1.492,4.234,4.234,0,0,0,4.376,2.383Z" transform="translate(-222.756 -178.538)" fill="#a36957"/>
      <path id="Path_1683" data-name="Path 1683" d="M278.083,165.628a15.659,15.659,0,0,0-8.8-.459s-2.916,1.054-3.047,2.636a27.3,27.3,0,0,0,.084,3.87h0l.248,2.636h1.055l.105-3.575a4.985,4.985,0,0,0,2.019-3.59c.981-.142,5.8-.77,9.111.311v-.764A1.165,1.165,0,0,0,278.083,165.628Z" transform="translate(-218.684 -164.745)" fill="#263238"/>
      <path id="Path_1684" data-name="Path 1684" d="M265.1,177.947a.527.527,0,0,0-.527-.527c-.638,0-1.682.253-1.761,2.025a1.646,1.646,0,0,0,2.32,1.793C265.147,181.163,265.126,178.928,265.1,177.947Z" transform="translate(-217.084 -170.737)" fill="#b78876"/>
      <path id="Path_1685" data-name="Path 1685" d="M265.211,181.018a.824.824,0,0,1-.121.063.443.443,0,0,1-.327,0,1.091,1.091,0,0,1-.464-1,1.487,1.487,0,0,1,.153-.627.5.5,0,0,1,.343-.322.216.216,0,0,1,.253.132c.032.074,0,.121.026.127s.058-.042.042-.148a.285.285,0,0,0-.095-.158.327.327,0,0,0-.237-.079.633.633,0,0,0-.48.374,1.481,1.481,0,0,0-.179.7,1.144,1.144,0,0,0,.59,1.118.453.453,0,0,0,.406-.047C265.206,181.081,265.222,181.023,265.211,181.018Z" transform="translate(-217.702 -171.488)" fill="#a36957"/>
      <path id="Path_1686" data-name="Path 1686" d="M332.121,180.774c-.685-.237-2.109,3.453-2.246,2.483s2.241-4.318,1.513-4.539c-.949-.29-2.346,3.606-2.489,3.923s-.612.127-.469-.153c.206-.411,2.283-4.745,1.355-5.025-.527-.163-.722.791-.722.791s-1.645,4.186-2.077,4.033.443-2.636.8-3.464.111-1.308-.38-1.165c-.332.095-1.482,2.578-1.819,3.4s-1.207,3.074-1.682,1.608a3.947,3.947,0,0,0-1.819-2.494.48.48,0,0,0-.374.828,5.493,5.493,0,0,1,.749,1.36,3.692,3.692,0,0,1,.29,1.213,12.824,12.824,0,0,1-.042,2.515l-8.462,15.232-13.582-5.125-1.866,7.761s17.842,7.861,18.954,7.255c2.52-1.371,10.439-23.536,10.439-23.536h0a52.487,52.487,0,0,0,3.269-4.692C332.575,180.969,332.4,180.864,332.121,180.774Z" transform="translate(-234.098 -170.749)" fill="#b78876"/>
      <path id="Path_1687" data-name="Path 1687" d="M278.961,211.3c-3.775-1.882-6.448-2.995-8.515-4.286-6.417-4.012-8.083-3.084-9.585-3.253-1.255.4-3.105,1.16-3.812,1.3s-3.3-.7-4.967-1.2h0c-3.875.216-6.227,1.893-9.775,4.571l-7.207,5.715,8.531,8.72,2.636-2c.158,3.949.3,3.986.5,8.035l.169,15.6,24.11,1.054-1.518-15.58-.738-12.258,6.912,3.343,3.274-9.754" transform="translate(-203.983 -183.19)" fill="#b25300"/>
      <path id="Path_1688" data-name="Path 1688" d="M266.652,202.584l-.032-2.5s4.308.4,5.22,3.38Z" transform="translate(-218.884 -181.45)" fill="#b25300"/>
      <path id="Path_1689" data-name="Path 1689" d="M280.45,202.305l-.385-2.425a4.218,4.218,0,0,0-3.575,3.485Z" transform="translate(-223.55 -181.356)" fill="#b25300"/>
      <path id="Path_1690" data-name="Path 1690" d="M284.769,221.148a4.143,4.143,0,0,1,.828-.069c.527,0,1.355-.063,2.336-.09h.116v.116c0,.954.037,2.046.063,3.221v.069l-.058.042-.232.163-1.228.865-.074.053-.074-.047-1.7-1.054-.058-.037v-.063c0-.975,0-1.777.032-2.325a5.189,5.189,0,0,1,.047-.828,8.753,8.753,0,0,1,.084.886c0,.554.063,1.329.084,2.251l-.053-.1,1.714,1.054h-.163l1.228-.87.227-.163-.058.111v-3.216l.116.111c-.928,0-1.7,0-2.257-.032a8.708,8.708,0,0,1-.923-.047Z" transform="translate(-227.427 -191.336)" fill="#263238"/>
      <path id="Path_1691" data-name="Path 1691" d="M287.873,222.566a4.8,4.8,0,0,1-1.582.132,4.666,4.666,0,0,1-1.582-.137,4.535,4.535,0,0,1,1.582-.137A4.476,4.476,0,0,1,287.873,222.566Z" transform="translate(-227.436 -192.005)" fill="#263238"/>
      <path id="Path_1692" data-name="Path 1692" d="M276.516,211.167a19.637,19.637,0,0,1-.058-4.677,20.4,20.4,0,0,1,.058,4.677Z" transform="translate(-223.47 -184.481)" fill="#263238"/>
      <path id="Path_1693" data-name="Path 1693" d="M278.017,207.625c0-.032.111-.095.248,0a.343.343,0,0,1,.111.3.359.359,0,0,1-.654.116.306.306,0,0,1,0-.311c.09-.158.227-.142.227-.111a1.171,1.171,0,0,0-.047.174c-.005.084.037.153.137.137s.111-.079.079-.174S278.017,207.662,278.017,207.625Z" transform="translate(-224.113 -184.993)" fill="#263238"/>
      <path id="Path_1694" data-name="Path 1694" d="M278.512,211.182c0-.037.137-.037.221.121a.337.337,0,0,1,0,.306.38.38,0,0,1-.675-.026.348.348,0,0,1,.026-.306c.1-.153.232-.137.232-.105a1.768,1.768,0,0,0-.053.179c-.011.09,0,.169.132.179s.148-.069.148-.169S278.5,211.219,278.512,211.182Z" transform="translate(-224.281 -186.684)" fill="#263238"/>
      <path id="Path_1695" data-name="Path 1695" d="M270.9,203.932a1.28,1.28,0,0,0-.227.026.612.612,0,0,0-.38.438,8.111,8.111,0,0,0-.163.975c-.063.39-.132.8-.2,1.218l-.037.221-.174-.121-.316-.221a16.433,16.433,0,0,1-1.93-1.624,3.459,3.459,0,0,1-.675-.8c.058-.058,1.176,1.054,2.763,2.193l.311.221-.211.095.227-1.234a6.087,6.087,0,0,1,.237-.991.691.691,0,0,1,.527-.469C270.833,203.826,270.912,203.932,270.9,203.932Z" transform="translate(-218.969 -183.235)" fill="#263238"/>
      <path id="Path_1696" data-name="Path 1696" d="M281.345,203.717a6.98,6.98,0,0,1-1.893,2.789l-.069.058-.2.19-.032-.269a9.164,9.164,0,0,0-1.107-3.005,2.309,2.309,0,0,1,.606.754,5.8,5.8,0,0,1,.77,2.214l-.227-.079.058-.063A20.031,20.031,0,0,0,281.345,203.717Z" transform="translate(-224.288 -183.058)" fill="#263238"/>
      <path id="Path_1697" data-name="Path 1697" d="M298.97,230.22l2.262.116,5.093,1.745-.443,1.482Z" transform="translate(-234.178 -195.699)" opacity="0.3"/>
      <g id="Group_939" data-name="Group 939" transform="translate(42.263 37.663)" opacity="0.3">
        <path id="Path_1698" data-name="Path 1698" d="M279.544,241.31a90.368,90.368,0,0,1-14.483.248,13.312,13.312,0,0,1-4.835-.97,7.85,7.85,0,0,1-3.986-4.408l.432,6.717Z" transform="translate(-256.24 -236.18)"/>
      </g>
      <g id="Group_940" data-name="Group 940" transform="translate(41.599 25.328)" opacity="0.7">
        <path id="Path_1699" data-name="Path 1699" d="M256.5,214.954c-.063.042-.453-.406-.875-1.007a3.205,3.205,0,0,1-.648-1.16c.063-.042.453.406.875,1a3.248,3.248,0,0,1,.648,1.165Z" transform="translate(-254.98 -212.785)" fill="#fff"/>
      </g>
      <g id="Group_941" data-name="Group 941" transform="translate(38.167 30.224)" opacity="0.7">
        <path id="Path_1700" data-name="Path 1700" d="M248.47,225.123a5.092,5.092,0,0,1,.527-1.582,5.32,5.32,0,0,1,.8-1.471,5.32,5.32,0,0,1-.527,1.582A5.241,5.241,0,0,1,248.47,225.123Z" transform="translate(-248.47 -222.07)" fill="#fff"/>
      </g>
      <g id="Group_942" data-name="Group 942" transform="translate(42.479 33.06)" opacity="0.7">
        <path id="Path_1701" data-name="Path 1701" d="M258.669,229.754a4.455,4.455,0,0,1-1.112-1.054,4.565,4.565,0,0,1-.907-1.25,8.579,8.579,0,0,1,2.019,2.315Z" transform="translate(-256.65 -227.45)" fill="#fff"/>
      </g>
      <g id="Group_943" data-name="Group 943" transform="translate(45.946 29.347)" opacity="0.7">
        <path id="Path_1702" data-name="Path 1702" d="M265.168,220.414c.047.058-.348.475-.886.933a3.189,3.189,0,0,1-1.054.722c-.037-.058.353-.475.891-.933S265.121,220.356,265.168,220.414Z" transform="translate(-263.225 -220.407)" fill="#fff"/>
      </g>
      <g id="Group_944" data-name="Group 944" transform="translate(47.625 24.822)" opacity="0.7">
        <path id="Path_1703" data-name="Path 1703" d="M267.775,213.689c-.053.053-.459-.285-.833-.807a2.523,2.523,0,0,1-.527-1.054c.042-.042.364.38.728.88S267.833,213.636,267.775,213.689Z" transform="translate(-266.409 -211.824)" fill="#fff"/>
      </g>
      <g id="Group_945" data-name="Group 945" transform="translate(47.251 38.538)" opacity="0.7">
        <path id="Path_1704" data-name="Path 1704" d="M268.373,237.84a6.592,6.592,0,0,1-1.3,1,6.664,6.664,0,0,1-1.376.886,3.955,3.955,0,0,1,1.218-1.107,4.039,4.039,0,0,1,1.455-.775Z" transform="translate(-265.7 -237.84)" fill="#fff"/>
      </g>
      <g id="Group_946" data-name="Group 946" transform="translate(49.165 33.419)" opacity="0.7">
        <path id="Path_1705" data-name="Path 1705" d="M271.234,229.87c-.053.053-.527-.29-1.054-.77s-.9-.912-.844-.965.527.285,1.054.764A3.231,3.231,0,0,1,271.234,229.87Z" transform="translate(-269.33 -228.13)" fill="#fff"/>
      </g>
      <g id="Group_947" data-name="Group 947" transform="translate(53.905 28.916)" opacity="0.7">
        <path id="Path_1706" data-name="Path 1706" d="M278.32,221.994a4.191,4.191,0,0,1,.97-2.4,4.219,4.219,0,0,1-.422,1.228A4.372,4.372,0,0,1,278.32,221.994Z" transform="translate(-278.32 -219.59)" fill="#fff"/>
      </g>
      <g id="Group_948" data-name="Group 948" transform="translate(53.446 39.185)" opacity="0.7">
        <path id="Path_1707" data-name="Path 1707" d="M279.174,241.051c-.042.058-.554-.269-1.054-.833a2.378,2.378,0,0,1-.67-1.149c.069-.037.411.432.875.97S279.227,240.993,279.174,241.051Z" transform="translate(-277.45 -239.066)" fill="#fff"/>
      </g>
      <g id="Group_949" data-name="Group 949" transform="translate(55.107 34.505)" opacity="0.7">
        <path id="Path_1708" data-name="Path 1708" d="M282.62,232.151c-.053.058-.527-.337-1.1-.88s-.965-1.023-.912-1.081a3.738,3.738,0,0,1,1.1.886C282.261,231.614,282.672,232.1,282.62,232.151Z" transform="translate(-280.601 -230.19)" fill="#fff"/>
      </g>
      <g id="Group_950" data-name="Group 950" transform="translate(59.81 40.062)" opacity="0.7">
        <path id="Path_1709" data-name="Path 1709" d="M291.914,240.73a6.762,6.762,0,0,1-1.176.991,7.616,7.616,0,0,1-1.218.944,3.221,3.221,0,0,1,1.055-1.155A3.285,3.285,0,0,1,291.914,240.73Z" transform="translate(-289.52 -240.73)" fill="#fff"/>
      </g>
      <g id="Group_951" data-name="Group 951" transform="translate(59.609 35.939)" opacity="0.7">
        <path id="Path_1710" data-name="Path 1710" d="M291.586,232.91c.047.063-.464.527-1.139,1.054a4.528,4.528,0,0,1-1.308.838,4.5,4.5,0,0,1,1.139-1.054A4.682,4.682,0,0,1,291.586,232.91Z" transform="translate(-289.14 -232.91)" fill="#fff"/>
      </g>
      <g id="Group_952" data-name="Group 952" transform="translate(62.629 29.728)" opacity="0.7">
        <path id="Path_1711" data-name="Path 1711" d="M295.238,223.945a3.037,3.037,0,0,1-.327-1.392,2.936,2.936,0,0,1,.105-1.424,5.241,5.241,0,0,1,.169,1.4A5.159,5.159,0,0,1,295.238,223.945Z" transform="translate(-294.868 -221.13)" fill="#fff"/>
      </g>
      <g id="Group_953" data-name="Group 953" transform="translate(58.583 31.386)" opacity="0.7">
        <path id="Path_1712" data-name="Path 1712" d="M288.146,224.278c.069.037-.09.453-.348.933s-.527.838-.59.8.09-.453.348-.933S288.072,224.241,288.146,224.278Z" transform="translate(-287.193 -224.275)" fill="#fff"/>
      </g>
      <g id="Group_954" data-name="Group 954" transform="translate(57.163 24.356)" opacity="0.7">
        <path id="Path_1713" data-name="Path 1713" d="M287.094,212.685a8.91,8.91,0,0,1-2.594-1.745,4.576,4.576,0,0,1,1.371.759,4.666,4.666,0,0,1,1.223.986Z" transform="translate(-284.5 -210.94)" fill="#fff"/>
      </g>
      <g id="Group_955" data-name="Group 955" transform="translate(60.558 22.716)" opacity="0.7">
        <path id="Path_1714" data-name="Path 1714" d="M293.608,209.285a2.952,2.952,0,0,1-1.466-.485,3,3,0,0,1-1.2-.97,78990.23,78990.23,0,0,0,2.668,1.455Z" transform="translate(-290.94 -207.83)" fill="#fff"/>
      </g>
      <g id="Group_956" data-name="Group 956" transform="translate(63.64 26.244)" opacity="0.7">
        <path id="Path_1715" data-name="Path 1715" d="M299.1,214.542a5.626,5.626,0,0,1-1.149.48,5.273,5.273,0,0,1-1.165.448c-.042-.058.4-.443,1.054-.706A2.067,2.067,0,0,1,299.1,214.542Z" transform="translate(-296.785 -214.521)" fill="#fff"/>
      </g>
      <g id="Group_957" data-name="Group 957" transform="translate(67.755 28.573)" opacity="0.7">
        <path id="Path_1716" data-name="Path 1716" d="M304.59,222.188a4.187,4.187,0,0,1,.438-1.714,4.356,4.356,0,0,1,.88-1.534,8.762,8.762,0,0,1-.622,1.64A9.116,9.116,0,0,1,304.59,222.188Z" transform="translate(-304.59 -218.94)" fill="#fff"/>
      </g>
      <g id="Group_958" data-name="Group 958" transform="translate(71.091 31.167)" opacity="0.7">
        <path id="Path_1717" data-name="Path 1717" d="M311.3,226.755a3.9,3.9,0,0,1-.3-1.434,4.008,4.008,0,0,1-.026-1.46,3.849,3.849,0,0,1,.3,1.429,4.05,4.05,0,0,1,.026,1.466Z" transform="translate(-310.916 -223.86)" fill="#fff"/>
      </g>
      <g id="Group_959" data-name="Group 959" transform="translate(34.16 29.349)" opacity="0.7">
        <path id="Path_1718" data-name="Path 1718" d="M241.429,220.41a2.984,2.984,0,0,1-.137,1.244,2.884,2.884,0,0,1-.406,1.181,2.958,2.958,0,0,1,.137-1.239A2.926,2.926,0,0,1,241.429,220.41Z" transform="translate(-240.871 -220.41)" fill="#fff"/>
      </g>
      <g id="Group_960" data-name="Group 960" transform="translate(37.682 36.456)" opacity="0.7">
        <path id="Path_1719" data-name="Path 1719" d="M250.112,234.66a4.176,4.176,0,0,1-2.562-.77,4.819,4.819,0,0,1,1.3.332,4.888,4.888,0,0,1,1.265.438Z" transform="translate(-247.55 -233.89)" fill="#fff"/>
      </g>
      <g id="Group_961" data-name="Group 961" transform="translate(44.757 22.363)" opacity="0.7">
        <path id="Path_1720" data-name="Path 1720" d="M262.789,207.181c.026.074-.39.279-.88.569a3.7,3.7,0,0,1-.933.49c-.053-.037.274-.427.791-.728S262.768,207.113,262.789,207.181Z" transform="translate(-260.969 -207.161)" fill="#fff"/>
      </g>
      <g id="Group_962" data-name="Group 962" transform="translate(37.744 27.111)" opacity="0.7">
        <path id="Path_1721" data-name="Path 1721" d="M249.9,216.7a2.541,2.541,0,0,1-1.149-.127c-.617-.142-1.107-.316-1.086-.39a2.541,2.541,0,0,1,1.149.127C249.425,216.453,249.952,216.605,249.9,216.7Z" transform="translate(-247.669 -216.165)" fill="#fff"/>
      </g>
      <g id="Group_963" data-name="Group 963" transform="translate(48.544 20.203)" opacity="0.7">
        <path id="Path_1722" data-name="Path 1722" d="M269.512,204.158c-.026.069-.432-.042-.822-.359s-.58-.7-.527-.733.332.227.7.527S269.544,204.084,269.512,204.158Z" transform="translate(-268.154 -203.063)" fill="#fff"/>
      </g>
      <g id="Group_964" data-name="Group 964" transform="translate(55.151 19.823)" opacity="0.7">
        <path id="Path_1723" data-name="Path 1723" d="M281.784,202.352c.053.053-.148.343-.448.643s-.59.5-.643.443.148-.337.448-.638S281.731,202.3,281.784,202.352Z" transform="translate(-280.684 -202.344)" fill="#fff"/>
      </g>
      <path id="Path_1724" data-name="Path 1724" d="M209.712,405.642l-3.332,1.93s2.452,8.009.949,6.585c-1.344-1.271-6.369-10.9-7.555-13.276l-.264-.527,5.673-3.084Z" transform="translate(-187.157 -274.675)" fill="#b25300"/>
      <g id="Group_965" data-name="Group 965" transform="translate(12.48 124.283)" opacity="0.5">
        <path id="Path_1725" data-name="Path 1725" d="M201.421,404.851a3.348,3.348,0,0,0,1.17-2.083,3.242,3.242,0,0,0-.527-2.3L199.75,401.8Z" transform="translate(-199.75 -400.47)" fill="#fff"/>
      </g>
      <path id="Path_1726" data-name="Path 1726" d="M207.455,414.234s.7,2.894.116,2.815-6.026-9.612-8.061-14.024l.2-.095,6.253,11.177S207.15,413.759,207.455,414.234Z" transform="translate(-187.157 -277.35)" fill="#fff" opacity="0.5"/>
      <path id="Path_1727" data-name="Path 1727" d="M199.75,402.68a.847.847,0,0,0,.069.148l.206.427.8,1.582c.685,1.313,1.656,3.105,2.773,5.061s2.162,3.691,2.942,4.972l.928,1.482.258.4.095.137a.6.6,0,0,0-.074-.148l-.243-.411-.9-1.5c-.759-1.265-1.793-3.021-2.91-4.977s-2.109-3.749-2.8-5.046l-.833-1.54c-.084-.153-.158-.29-.232-.417S199.755,402.674,199.75,402.68Z" transform="translate(-187.27 -277.232)" fill="#263238"/>
      <path id="Path_1728" data-name="Path 1728" d="M211.49,424.037a4.218,4.218,0,0,1,.886-.126,3.891,3.891,0,0,1,.875.185,1.265,1.265,0,0,0-.87-.3A1.3,1.3,0,0,0,211.49,424.037Z" transform="translate(-192.821 -287.212)" fill="#263238"/>
      <path id="Path_1729" data-name="Path 1729" d="M211.19,418.2a1.977,1.977,0,0,0,.949.042,1.019,1.019,0,0,0-.469-.079A1.054,1.054,0,0,0,211.19,418.2Z" transform="translate(-192.679 -284.544)" fill="#263238"/>
      <path id="Path_1730" data-name="Path 1730" d="M211.14,416.558c0,.032.153.111.364.179s.39.105.4.074-.153-.111-.364-.185S211.151,416.527,211.14,416.558Z" transform="translate(-192.655 -283.787)" fill="#263238"/>
      <path id="Path_1731" data-name="Path 1731" d="M212.17,414.9a1.144,1.144,0,0,0,.2.469c.132.242.269.427.3.411a1.144,1.144,0,0,0-.2-.469C212.333,415.068,212.2,414.889,212.17,414.9Z" transform="translate(-193.142 -283.009)" fill="#263238"/>
      <path id="Path_1732" data-name="Path 1732" d="M213.068,414a.965.965,0,0,0,.137.569c.137.3.327.485.353.464a3.058,3.058,0,0,0-.248-.527,3.5,3.5,0,0,0-.243-.506Z" transform="translate(-193.565 -282.584)" fill="#263238"/>
      <path id="Path_1733" data-name="Path 1733" d="M212.79,418a1.888,1.888,0,0,0,.311.527,3.743,3.743,0,0,0,.453.5,1.614,1.614,0,0,0,.322.248.311.311,0,0,0,.243.037.232.232,0,0,0,.163-.2,1.133,1.133,0,0,0-.981-1.054,1.091,1.091,0,0,0-.459.032.443.443,0,0,0-.153.069,1.7,1.7,0,0,1,.6,0,1.112,1.112,0,0,1,.559.285.975.975,0,0,1,.322.664c0,.121-.137.148-.248.084a2.5,2.5,0,0,1-.3-.227,4.215,4.215,0,0,1-.459-.475C212.927,418.19,212.806,418,212.79,418Z" transform="translate(-193.388 -284.475)" fill="#263238"/>
      <path id="Path_1734" data-name="Path 1734" d="M212.957,417.211a.627.627,0,0,0,.411-.153.949.949,0,0,0,.306-.369.633.633,0,0,0,0-.6.248.248,0,0,0-.343,0,.68.68,0,0,0-.19.227,1.95,1.95,0,0,0-.179.443.838.838,0,0,0-.042.427s.037-.158.121-.406a2.008,2.008,0,0,1,.2-.406c.069-.137.243-.306.348-.185a.564.564,0,0,1-.026.485,1.023,1.023,0,0,1-.264.348A2.043,2.043,0,0,1,212.957,417.211Z" transform="translate(-193.492 -283.539)" fill="#263238"/>
      <path id="Path_1735" data-name="Path 1735" d="M203.646,400.53a3.717,3.717,0,0,1,.327.627,3.09,3.09,0,0,1,.216,1.661,3.164,3.164,0,0,1-.712,1.524,4.479,4.479,0,0,1-.527.5.559.559,0,0,0,.169-.095,2.279,2.279,0,0,0,.4-.348,3.016,3.016,0,0,0,.764-1.555,2.979,2.979,0,0,0-.253-1.714,2.639,2.639,0,0,0-.274-.453C203.7,400.572,203.651,400.524,203.646,400.53Z" transform="translate(-188.783 -276.215)" fill="#263238"/>
      <path id="Path_1736" data-name="Path 1736" d="M205.6,409.89a5.647,5.647,0,0,0,.575,1.286,5.162,5.162,0,0,0,.8,1.165c.026,0-.316-.527-.7-1.218S205.632,409.874,205.6,409.89Z" transform="translate(-190.036 -280.641)" fill="#263238"/>
      <path id="Path_1737" data-name="Path 1737" d="M203.512,406.78c-.032,0-.09.111-.185.237s-.185.221-.169.248.158-.032.264-.179S203.543,406.785,203.512,406.78Z" transform="translate(-188.881 -279.171)" fill="#263238"/>
      <path id="Path_1738" data-name="Path 1738" d="M204.478,404.78c-.032,0-.084.095-.127.232s-.042.253,0,.264.084-.095.127-.232S204.51,404.791,204.478,404.78Z" transform="translate(-189.431 -278.225)" fill="#263238"/>
      <path id="Path_1739" data-name="Path 1739" d="M204.325,402.726c-.026,0,.042.132.069.279s0,.274.042.285.105-.127.069-.306S204.346,402.7,204.325,402.726Z" transform="translate(-189.43 -277.252)" fill="#263238"/>
      <path id="Path_1740" data-name="Path 1740" d="M203.964,401.36c-.032,0-.047.074-.037.158s.047.153.079.148.047-.079.037-.163A.228.228,0,0,0,203.964,401.36Z" transform="translate(-189.244 -276.608)" fill="#263238"/>
      <path id="Path_1741" data-name="Path 1741" d="M313.65,426.7l-.121,3.854s8.1,2.146,6.095,2.668c-1.793.474-12.617-.353-15.258-.6l-.6-.058.38-6.443Z" transform="translate(-236.447 -288.314)" fill="#b25300"/>
      <g id="Group_966" data-name="Group 966" transform="translate(67.344 141.431)" opacity="0.5">
        <path id="Path_1742" data-name="Path 1742" d="M307.274,435.866a3.322,3.322,0,0,0-1.149-2.109A3.226,3.226,0,0,0,303.91,433l-.1,2.684Z" transform="translate(-303.81 -432.995)" fill="#fff"/>
      </g>
      <path id="Path_1743" data-name="Path 1743" d="M317.483,436.79s2.826.933,2.452,1.387-11.341.037-16.165-.569v-.216l12.791.6S316.919,436.79,317.483,436.79Z" transform="translate(-236.447 -293.358)" fill="#fff" opacity="0.5"/>
      <path id="Path_1744" data-name="Path 1744" d="M303.53,437.91h.163l.474.042,1.74.142c1.476.111,3.511.237,5.763.327s4.3.121,5.773.126h2.225a.572.572,0,0,0,.163,0,.572.572,0,0,0-.163,0h-.48l-1.745-.032c-1.476-.026-3.517-.074-5.768-.158s-4.286-.2-5.763-.29l-1.745-.105h-.474A.648.648,0,0,0,303.53,437.91Z" transform="translate(-236.334 -293.888)" fill="#263238"/>
      <path id="Path_1745" data-name="Path 1745" d="M328.056,438.036a4.073,4.073,0,0,1,.359-.817,3.968,3.968,0,0,1,.622-.648,1.323,1.323,0,0,0-.722.58A1.286,1.286,0,0,0,328.056,438.036Z" transform="translate(-247.927 -293.254)" fill="#263238"/>
      <path id="Path_1746" data-name="Path 1746" d="M322.786,435.719a1.974,1.974,0,0,0,.316-.359c.148-.216.248-.406.221-.422s-.169.142-.316.358S322.76,435.7,322.786,435.719Z" transform="translate(-245.436 -292.483)" fill="#263238"/>
      <path id="Path_1747" data-name="Path 1747" d="M321.338,435.113c0,.026.179-.069.348-.211s.3-.279.274-.306-.179.074-.348.216S321.317,435.092,321.338,435.113Z" transform="translate(-244.752 -292.319)" fill="#263238"/>
      <path id="Path_1748" data-name="Path 1748" d="M320.47,433.786a2.32,2.32,0,0,0,1.007.047,1.176,1.176,0,0,0-.5-.084A1.2,1.2,0,0,0,320.47,433.786Z" transform="translate(-244.342 -291.915)" fill="#263238"/>
      <path id="Path_1749" data-name="Path 1749" d="M320.2,432.6a1,1,0,0,0,.554.185,1.054,1.054,0,0,0,.58-.053,2.736,2.736,0,0,0-.569-.063A3.341,3.341,0,0,0,320.2,432.6Z" transform="translate(-244.215 -291.377)" fill="#263238"/>
      <path id="Path_1750" data-name="Path 1750" d="M323.47,434.107a1.645,1.645,0,0,0,.617,0,3.528,3.528,0,0,0,.659-.121,1.691,1.691,0,0,0,.385-.137.338.338,0,0,0,.158-.19.232.232,0,0,0-.084-.248,1.144,1.144,0,0,0-1.629.68.411.411,0,0,0,0,.169,1.735,1.735,0,0,1,.3-.527,1.086,1.086,0,0,1,.527-.322.944.944,0,0,1,.733.079c.095.074.053.19-.058.248a1.692,1.692,0,0,1-.353.137,4.827,4.827,0,0,1-.643.142C323.7,434.1,323.47,434.091,323.47,434.107Z" transform="translate(-245.761 -291.698)" fill="#263238"/>
      <path id="Path_1751" data-name="Path 1751" d="M323.059,433.828a.617.617,0,0,0,.084-.427,1.056,1.056,0,0,0-.148-.453.627.627,0,0,0-.527-.337.253.253,0,0,0-.2.279.7.7,0,0,0,.095.279,1.773,1.773,0,0,0,.279.385.928.928,0,0,0,.343.264,3.354,3.354,0,0,1-.279-.316,2.258,2.258,0,0,1-.248-.38c-.079-.137-.127-.374.026-.4s.311.153.4.279a1.1,1.1,0,0,1,.158.406A2.454,2.454,0,0,1,323.059,433.828Z" transform="translate(-245.192 -291.382)" fill="#263238"/>
      <path id="Path_1752" data-name="Path 1752" d="M304.09,432.895a6.465,6.465,0,0,1,.706.053,3.111,3.111,0,0,1,1.529.7,3.163,3.163,0,0,1,.912,1.4c.132.422.137.7.158.7a.7.7,0,0,0,0-.2,2.48,2.48,0,0,0-.084-.527,2.963,2.963,0,0,0-.917-1.471,3,3,0,0,0-1.582-.691,2.593,2.593,0,0,0-.527,0C304.159,432.868,304.09,432.884,304.09,432.895Z" transform="translate(-236.599 -291.493)" fill="#263238"/>
      <path id="Path_1753" data-name="Path 1753" d="M312.74,436.749a5.8,5.8,0,0,0,1.4.19,5.273,5.273,0,0,0,1.413-.058c0-.032-.633,0-1.408-.058A10.052,10.052,0,0,0,312.74,436.749Z" transform="translate(-240.688 -293.333)" fill="#263238"/>
      <path id="Path_1754" data-name="Path 1754" d="M309.17,436.607a2.224,2.224,0,0,0,.105.285c.058.148.09.274.121.274s.058-.153,0-.322S309.191,436.586,309.17,436.607Z" transform="translate(-239 -293.27)" fill="#263238"/>
      <path id="Path_1755" data-name="Path 1755" d="M307.884,434.886c-.026,0,.032.121.132.227s.19.174.216.148-.037-.121-.132-.227S307.905,434.865,307.884,434.886Z" transform="translate(-238.389 -292.456)" fill="#263238"/>
      <path id="Path_1756" data-name="Path 1756" d="M306,434c0,.032.137.037.274.09s.237.137.264.116-.047-.158-.221-.227S306,433.977,306,434Z" transform="translate(-237.502 -292.016)" fill="#263238"/>
      <path id="Path_1757" data-name="Path 1757" d="M304.64,433.61c0,.032.037.084.116.116s.153.037.163,0-.037-.084-.116-.116S304.651,433.584,304.64,433.61Z" transform="translate(-236.859 -291.845)" fill="#263238"/>
      <path id="Path_1758" data-name="Path 1758" d="M238.357,298.47s-.7,18.374-3.511,27.9-10.376,11.842-15.29,14.91c-4.671,2.926-15.116,8.473-15.116,8.473l5.894,10.213s28.824-12.2,33.965-23.119c3.944-8.388,8.262-23.831,8.262-23.831Z" transform="translate(-189.488 -227.965)" fill="#263238"/>
      <path id="Path_1759" data-name="Path 1759" d="M279.5,281.991s12.158,25.466,15.406,32.378a4.872,4.872,0,0,1,.459,2.315l-2.146,42.922-12.332-.622,1.334-41.393-20.894-26.209a19.186,19.186,0,0,1-3.749-7.6A12.221,12.221,0,0,1,257.23,281h0l22.286.991" transform="translate(-214.445 -219.706)" fill="#263238"/>
      <path id="Path_1760" data-name="Path 1760" d="M292.407,320.763l-110.7,8.1-5.388-81.189,109.865-7.692Z" transform="translate(-176.193 -200.313)" fill="#fff"/>
      <path id="Path_1761" data-name="Path 1761" d="M292.293,320.664s-.047-.5-.127-1.471-.19-2.409-.343-4.281c-.3-3.754-.728-9.264-1.281-16.3-1.1-14.067-2.673-34.27-4.582-58.718l.116.1-109.86,7.719.127-.148a2.909,2.909,0,0,0,.042.6c1.914,28.9,3.728,56.314,5.336,80.6l-.132-.116,79.876-5.8,22.713-1.629,6.032-.427,1.55-.105.527-.032a4.562,4.562,0,0,0-.527.047l-1.54.121-6,.453-22.671,1.692-79.945,5.926h-.121v-.127c-1.613-24.284-3.438-51.669-5.362-80.6a2.711,2.711,0,0,0-.042-.591v-.137h.137l109.86-7.666h.111v.111c1.861,24.506,3.4,44.715,4.471,58.8.527,7.028.944,12.527,1.223,16.276.137,1.872.248,3.3.316,4.265S292.293,320.664,292.293,320.664Z" transform="translate(-176.08 -200.214)" fill="#263238"/>
      <path id="Path_1762" data-name="Path 1762" d="M345.887,263.29c.227,0,1.2,13.945,2.162,31.175s1.582,31.212,1.339,31.228-1.192-13.945-2.162-31.181S345.66,263.3,345.887,263.29Z" transform="translate(-256.336 -211.334)" fill="#263238"/>
      <path id="Path_1763" data-name="Path 1763" d="M327.237,263c.232,0,1.2,13.951,2.167,31.181s1.582,31.212,1.339,31.223-1.2-13.945-2.162-31.181S327.011,263,327.237,263Z" transform="translate(-247.519 -211.197)" fill="#263238"/>
      <path id="Path_1764" data-name="Path 1764" d="M270.157,263.8c.227,0,1.2,13.945,2.167,31.175s1.582,31.218,1.339,31.228-1.2-13.945-2.162-31.181S269.931,263.811,270.157,263.8Z" transform="translate(-220.534 -211.575)" fill="#263238"/>
      <path id="Path_1765" data-name="Path 1765" d="M288.2,263c.227,0,1.2,13.951,2.162,31.181s1.582,31.212,1.339,31.228-1.192-13.945-2.162-31.181S287.97,263.032,288.2,263Z" transform="translate(-229.062 -211.197)" fill="#263238"/>
      <path id="Path_1766" data-name="Path 1766" d="M306.227,262.27c.227,0,1.2,13.945,2.162,31.175s1.582,31.218,1.344,31.228-1.2-13.945-2.167-31.181S306,262.281,306.227,262.27Z" transform="translate(-237.586 -210.851)" fill="#263238"/>
      <path id="Path_1767" data-name="Path 1767" d="M250.107,266.45c.227,0,1.2,13.945,2.162,31.175s1.582,31.212,1.339,31.228-1.192-13.945-2.162-31.181S249.88,266.461,250.107,266.45Z" transform="translate(-211.055 -212.828)" fill="#263238"/>
      <path id="Path_1768" data-name="Path 1768" d="M230.343,267.63c.227,0,1.2,13.945,2.162,31.175s1.571,31.233,1.329,31.233-1.2-13.945-2.167-31.181S230.143,267.641,230.343,267.63Z" transform="translate(-201.715 -213.385)" fill="#263238"/>
      <path id="Path_1769" data-name="Path 1769" d="M210.567,268.81c.232,0,1.2,13.951,2.167,31.181s1.582,31.212,1.339,31.228-1.192-13.945-2.162-31.2S210.34,268.826,210.567,268.81Z" transform="translate(-192.362 -213.943)" fill="#263238"/>
      <path id="Path_1770" data-name="Path 1770" d="M227.307,224.89s-12.285,9.021-9.959,16.223c2.794,8.647,22.439,15.569,22.439,15.569,1.54,1.281,3.227,2.636,4.218,3.279,2.109,1.355,2.183,1.149,2.241.849.148-.8-3.654-2.536-2.726-2.7s4.518,2.742,4.645,1.893c.163-1.107-3.833-2.842-4.165-3.016s-.2-.722.095-.527c.422.253,4.924,2.789,5.093,1.708.095-.6-.865-.865-.865-.865s-4.313-2.03-4.218-2.536,2.636.585,3.5,1.023,1.3.163,1.1-.411c-.137-.39-2.721-1.8-3.564-2.214s-3.163-1.5-1.793-2.019a3.423,3.423,0,0,0,2.214-2.067c.032-.485-.559-.828-.865-.459a4.261,4.261,0,0,1-1.239.844,2.753,2.753,0,0,1-1,.3c-1.829-1.123-14.91-9.221-14.963-10.661-.058-1.55,6.59-7.276,6.59-7.276Z" transform="translate(-195.451 -193.179)" fill="#b78876"/>
      <path id="Path_1771" data-name="Path 1771" d="M278.273,175.149c0,.079-.348.063-.733.121s-.706.153-.743.084.258-.3.7-.359S278.295,175.081,278.273,175.149Z" transform="translate(-223.694 -169.584)" fill="#263238"/>
      <path id="Path_1772" data-name="Path 1772" d="M287.583,174.469c-.053.063-.3-.069-.627-.121s-.6-.032-.627-.105.274-.243.68-.169S287.636,174.416,287.583,174.469Z" transform="translate(-228.201 -169.147)" fill="#263238"/>
    </g>
    <g id="freepik--Files--inject-5" transform="translate(167.018 44.52)">
      <path id="Path_1773" data-name="Path 1773" d="M386.344,168.142c-4.091,20.3-18.98,96.642-22.94,117.015a5.162,5.162,0,0,0,4.039,6.042l83.572,16.935a5.162,5.162,0,0,0,6.09-4.076l11.441-59.024,7.134,1.1A3.279,3.279,0,0,0,479.4,243.5l8.7-47.667a3.274,3.274,0,0,0-2.636-3.812l-6.406-1.2.838-4.608a5.13,5.13,0,0,0-4.076-5.952l-83.493-16.139a5.135,5.135,0,0,0-5.984,4.023Z" transform="translate(-362.94 -157.234)" fill="#263238"/>
      <path id="Path_1774" data-name="Path 1774" d="M394.046,175.55l-27.6,116.777,85.739,19.65L479.21,196.023Z" transform="translate(-364.425 -162.68)" fill="#e0e0e0"/>
      <path id="Path_1775" data-name="Path 1775" d="M382.26,167.32,362.61,285.69l86.878,13.819L468.616,182Z" transform="translate(-362.61 -158.789)" fill="#ebebeb"/>
      <path id="Path_1776" data-name="Path 1776" d="M372.424,179.07,368.76,299.006l87.938,2.1,3.269-119.018Z" transform="translate(-365.517 -164.344)" fill="#fff"/>
      <path id="Path_1777" data-name="Path 1777" d="M372.326,179.07l87.521,2.905h.148v.111c-.912,33.437-2.035,74.577-3.248,119.013v.137h-.78l-87.3-2.109h-.127V299c2.246-70.934,3.759-118.828,3.8-119.93-.047,1.1-1.445,49-3.554,119.941l-.121-.126,87.3,2.067h.643l-.142.132c1.234-44.435,2.373-85.576,3.3-119.018l.111.116Z" transform="translate(-365.414 -164.344)" fill="#263238"/>
      <path id="Path_1778" data-name="Path 1778" d="M457.775,226.766c0,.232-15.132.206-33.785-.047s-33.78-.643-33.78-.87,15.132-.206,33.791.047S457.78,226.54,457.775,226.766Z" transform="translate(-375.658 -186.386)" fill="#263238"/>
      <path id="Path_1779" data-name="Path 1779" d="M458.98,246.892c0,.227-15.126.206-33.785-.047s-33.78-.648-33.775-.875,15.126-.206,33.785.047S458.985,246.665,458.98,246.892Z" transform="translate(-376.23 -195.898)" fill="#263238"/>
      <path id="Path_1780" data-name="Path 1780" d="M460.7,308.58c0,.227-15.132.206-33.785-.047s-33.785-.643-33.78-.875,15.126-.206,33.79.053S460.7,308.354,460.7,308.58Z" transform="translate(-377.039 -225.061)" fill="#263238"/>
      <path id="Path_1781" data-name="Path 1781" d="M460.7,289.032c0,.227-15.132.206-33.785-.053s-33.785-.643-33.78-.87,15.126-.206,33.79.047S460.7,288.826,460.7,289.032Z" transform="translate(-377.039 -215.82)" fill="#263238"/>
      <path id="Path_1782" data-name="Path 1782" d="M460.7,269.556c0,.227-15.132.206-33.785-.047s-33.785-.643-33.78-.87,15.126-.206,33.79.047S460.7,269.33,460.7,269.556Z" transform="translate(-377.039 -206.615)" fill="#263238"/>
      <path id="Path_1783" data-name="Path 1783" d="M458.755,330.366c0,.227-15.132.206-33.785-.047s-33.78-.643-33.78-.87,15.132-.206,33.79.047S458.76,330.14,458.755,330.366Z" transform="translate(-376.122 -235.364)" fill="#263238"/>
      <path id="Path_1784" data-name="Path 1784" d="M458.415,351.772c0,.227-15.132.206-33.785-.047s-33.785-.648-33.78-.875,15.126-.206,33.79.047S458.415,351.545,458.415,351.772Z" transform="translate(-375.961 -245.481)" fill="#263238"/>
      <path id="Path_1785" data-name="Path 1785" d="M458.015,373.177c0,.227-15.132.206-33.791-.047s-33.78-.643-33.775-.87,15.126-.206,33.791.047S458.015,372.95,458.015,373.177Z" transform="translate(-375.772 -255.603)" fill="#263238"/>
      <ellipse id="Ellipse_2" data-name="Ellipse 2" cx="21.385" cy="21.406" rx="21.385" ry="21.406" transform="translate(71.968)"/>
      <ellipse id="Ellipse_3" data-name="Ellipse 3" cx="21.406" cy="21.406" rx="21.406" ry="21.406" transform="translate(71.968)" fill="#b25300" opacity="0.68"/>
      <ellipse id="Ellipse_4" data-name="Ellipse 4" cx="21.385" cy="21.406" rx="21.385" ry="21.406" transform="translate(69.616)" fill="#b25300"/>
      <rect id="Rectangle_3103" data-name="Rectangle 3103" width="2.499" height="25.228" rx="1.25" transform="translate(89.757 8.794)" fill="#fafafa"/>
      <rect id="Rectangle_3104" data-name="Rectangle 3104" width="2.499" height="25.212" rx="1.25" transform="translate(78.4 22.661) rotate(-90)" fill="#fafafa"/>
    </g>
  </g>
</svg>
