<svg width="46" height="46" viewBox="0 0 46 46" fill="none" xmlns="http://www.w3.org/2000/svg">
<g clip-path="url(#clip0_5207_2952)">
<path d="M22.7094 45.4162C35.2514 45.4162 45.4188 35.2489 45.4188 22.7068C45.4188 10.1648 35.2514 -0.00256348 22.7094 -0.00256348C10.1673 -0.00256348 0 10.1648 0 22.7068C0 35.2489 10.1673 45.4162 22.7094 45.4162Z" fill="#00775E"/>
<path d="M16.9344 31.1894H28.4842C28.9216 31.1891 29.341 31.0151 29.6503 30.7058C29.9597 30.3965 30.1336 29.9771 30.1339 29.5396V17.9919C30.1336 17.5545 29.9597 17.1351 29.6503 16.8257C29.341 16.5164 28.9216 16.3425 28.4842 16.3421H26.8344V14.6917H25.1846V16.3415H20.2346V14.6917H18.5849V16.3415H16.9344C16.4969 16.3418 16.0774 16.5159 15.768 16.8253C15.4587 17.1348 15.2848 17.5544 15.2847 17.9919V29.541C15.2854 29.9782 15.4595 30.3973 15.7687 30.7063C16.078 31.0153 16.4972 31.1891 16.9344 31.1894ZM21.8844 28.2312L18.8247 25.1781L19.9909 24.0119L21.8824 25.9035L25.4224 22.3635L26.5886 23.5297L21.8844 28.2312ZM16.9344 18.8168H28.4842V20.4666H16.9344V18.8168Z" fill="white"/>
</g>
<defs>
<clipPath id="clip0_5207_2952">
<rect width="45.4188" height="45.4188" fill="white" transform="translate(0 -0.00256348)"/>
</clipPath>
</defs>
</svg>
