<svg xmlns="http://www.w3.org/2000/svg" width="68" height="68" viewBox="0 0 68 68">
  <g id="Group_1650" data-name="Group 1650" transform="translate(-8900 -5986)">
    <circle id="Ellipse_216" data-name="Ellipse 216" cx="34" cy="34" r="34" transform="translate(8900 5986)" fill="#00775e"/>
    <path id="bxs-calendar-check" d="M6.97,27.7H24.262a2.472,2.472,0,0,0,2.47-2.47V7.941a2.472,2.472,0,0,0-2.47-2.47h-2.47V3h-2.47V5.47H11.911V3H9.441V5.47H6.97A2.472,2.472,0,0,0,4.5,7.941V25.232A2.472,2.472,0,0,0,6.97,27.7Zm7.411-4.429L9.8,18.7l1.746-1.746,2.832,2.832,5.3-5.3,1.746,1.746ZM6.97,9.176H24.262v2.47H6.97Z" transform="translate(8918.384 6005)" fill="#fff"/>
  </g>
</svg>
