<svg width="25" height="24" viewBox="0 0 25 24" fill="none" xmlns="http://www.w3.org/2000/svg">
<path d="M20.25 7H11.25M14.25 17H5.25M14.25 17C14.25 18.6569 15.5931 20 17.25 20C18.9069 20 20.25 18.6569 20.25 17C20.25 15.3431 18.9069 14 17.25 14C15.5931 14 14.25 15.3431 14.25 17ZM10.25 7C10.25 8.65685 8.90685 10 7.25 10C5.59315 10 4.25 8.65685 4.25 7C4.25 5.34315 5.59315 4 7.25 4C8.90685 4 10.25 5.34315 10.25 7Z" stroke="#F25F29" stroke-width="2" stroke-linecap="round" stroke-linejoin="round"/>
</svg>
