<svg width="20" height="22" viewBox="0 0 20 22" fill="none" xmlns="http://www.w3.org/2000/svg">
<path d="M17.875 5.27008C18.2187 5.46554 18.5041 5.74905 18.7018 6.09143C18.8995 6.43382 19.0025 6.82271 19 7.21808V14.5021C19 15.3111 18.557 16.0571 17.842 16.4501L11.092 20.7201C10.7574 20.9038 10.3818 21.0001 10 21.0001C9.61824 21.0001 9.24264 20.9038 8.908 20.7201L2.158 16.4501C1.80817 16.2589 1.51612 15.9772 1.31241 15.6346C1.1087 15.2919 1.0008 14.9007 1 14.5021V7.21708C1 6.40808 1.443 5.66308 2.158 5.27008L8.908 1.29008C9.25254 1.10011 9.63956 1.00049 10.033 1.00049C10.4264 1.00049 10.8135 1.10011 11.158 1.29008L17.908 5.27008H17.875Z" stroke="#F25F29" stroke-width="2" stroke-linecap="round" stroke-linejoin="round"/>
<path d="M7 11.0001C7 11.7957 7.31607 12.5588 7.87868 13.1214C8.44129 13.684 9.20435 14.0001 10 14.0001C10.7956 14.0001 11.5587 13.684 12.1213 13.1214C12.6839 12.5588 13 11.7957 13 11.0001C13 10.2044 12.6839 9.44135 12.1213 8.87874C11.5587 8.31613 10.7956 8.00006 10 8.00006C9.20435 8.00006 8.44129 8.31613 7.87868 8.87874C7.31607 9.44135 7 10.2044 7 11.0001Z" stroke="#F25F29" stroke-width="2" stroke-linecap="round" stroke-linejoin="round"/>
</svg>
