<svg width="21" height="22" viewBox="0 0 21 22" fill="none" xmlns="http://www.w3.org/2000/svg">
<path d="M18.625 5.27002C18.9687 5.46548 19.2541 5.74899 19.4518 6.09137C19.6495 6.43376 19.7525 6.82265 19.75 7.21802V14.502C19.75 15.311 19.307 16.057 18.592 16.45L11.842 20.72C11.5074 20.9037 11.1318 21.0001 10.75 21.0001C10.3682 21.0001 9.99264 20.9037 9.658 20.72L2.908 16.45C2.55817 16.2588 2.26612 15.9772 2.06241 15.6345C1.8587 15.2918 1.7508 14.9007 1.75 14.502V7.21702C1.75 6.40802 2.193 5.66302 2.908 5.27002L9.658 1.29002C10.0025 1.10005 10.3896 1.00043 10.783 1.00043C11.1764 1.00043 11.5635 1.10005 11.908 1.29002L18.658 5.27002H18.625Z" stroke="#F25F29" stroke-width="2" stroke-linecap="round" stroke-linejoin="round"/>
<path d="M7.75 11C7.75 11.7956 8.06607 12.5587 8.62868 13.1213C9.19129 13.6839 9.95435 14 10.75 14C11.5456 14 12.3087 13.6839 12.8713 13.1213C13.4339 12.5587 13.75 11.7956 13.75 11C13.75 10.2044 13.4339 9.44129 12.8713 8.87868C12.3087 8.31607 11.5456 8 10.75 8C9.95435 8 9.19129 8.31607 8.62868 8.87868C8.06607 9.44129 7.75 10.2044 7.75 11Z" stroke="#F25F29" stroke-width="2" stroke-linecap="round" stroke-linejoin="round"/>
</svg>
