<svg width="20" height="23" viewBox="0 0 20 23" fill="none" xmlns="http://www.w3.org/2000/svg">
<path d="M8.48039 1.59407L3.49039 3.47407C2.89585 3.73078 2.38501 4.14874 2.01566 4.68068C1.64631 5.21262 1.43318 5.8373 1.40039 6.48407V13.9141C1.43932 14.575 1.61285 15.2211 1.91034 15.8126C2.20782 16.4042 2.62299 16.9287 3.13039 17.3541L7.43039 20.5641C8.18741 21.0819 9.08321 21.359 10.0004 21.359C10.9176 21.359 11.8134 21.0819 12.5704 20.5641L16.8704 17.3541C17.3778 16.9287 17.793 16.4042 18.0904 15.8126C18.3879 15.2211 18.5615 14.575 18.6004 13.9141V6.48407C18.5692 5.83562 18.3568 5.20892 17.9874 4.6751C17.618 4.14127 17.1063 3.72172 16.5104 3.46407L11.5204 1.59407C10.5308 1.28407 9.47002 1.28407 8.48039 1.59407Z" stroke="#F25F29" stroke-width="2" stroke-linecap="round" stroke-linejoin="round"/>
<path d="M9.99042 11.864C10.386 11.864 10.7727 11.7467 11.1016 11.527C11.4305 11.3072 11.6868 10.9948 11.8382 10.6294C11.9896 10.2639 12.0292 9.8618 11.952 9.47383C11.8748 9.08587 11.6843 8.72951 11.4046 8.4498C11.1249 8.1701 10.7686 7.97961 10.3806 7.90244C9.99264 7.82527 9.5905 7.86488 9.22505 8.01626C8.8596 8.16763 8.54724 8.42398 8.32748 8.75287C8.10772 9.08177 7.99042 9.46845 7.99042 9.86401C7.99042 10.3944 8.20113 10.9032 8.5762 11.2782C8.95128 11.6533 9.45998 11.864 9.99042 11.864Z" stroke="#F25F29" stroke-width="2" stroke-miterlimit="10" stroke-linecap="round" stroke-linejoin="round"/>
<path d="M9.99042 11.864V14.864" stroke="#F25F29" stroke-width="2" stroke-miterlimit="10" stroke-linecap="round" stroke-linejoin="round"/>
</svg>
