<svg xmlns="http://www.w3.org/2000/svg" width="38.226" height="38.236" viewBox="0 0 38.226 38.236">
  <g id="Group_1586" data-name="Group 1586" transform="translate(-763.252 -566.785)">
    <g id="day-event-tax" transform="translate(763.252 566.785)">
      <path id="Path_1867" data-name="Path 1867" d="M25.359,1.466A1.651,1.651,0,0,1,27.154,0a1.658,1.658,0,0,1,1.8,1.466V7.9a1.651,1.651,0,0,1-1.8,1.466,1.658,1.658,0,0,1-1.8-1.466V1.466Zm-16.169,0A1.651,1.651,0,0,1,10.985,0a1.658,1.658,0,0,1,1.8,1.466V7.9a1.651,1.651,0,0,1-1.8,1.466A1.658,1.658,0,0,1,9.189,7.9V1.466ZM1.976,14.1H36.222V6.675a.865.865,0,0,0-.261-.635.886.886,0,0,0-.635-.261H32.049a1,1,0,1,1,0-1.992h3.277a2.922,2.922,0,0,1,2.9,2.9V35.335a2.922,2.922,0,0,1-2.9,2.9H2.9a2.927,2.927,0,0,1-2.9-2.9V6.687a2.922,2.922,0,0,1,2.9-2.9H6.41a1,1,0,0,1,0,1.992H2.9a.928.928,0,0,0-.65.261.9.9,0,0,0-.261.65v7.422L1.976,14.1Zm34.246,1.988H1.976V35.323a.928.928,0,0,0,.261.65.9.9,0,0,0,.65.261h32.42a.928.928,0,0,0,.65-.261.9.9,0,0,0,.261-.65V16.085ZM15.671,5.763a1,1,0,1,1,0-1.992h6.687a1,1,0,0,1,0,1.992Z"/>
    </g>
    <g id="day-event-tax-2" data-name="day-event-tax" transform="translate(762.953 566.785)">
      <path id="Path_1867-2" data-name="Path 1867" d="M14.735,20.093V22.5H12.787v9.634H9.469V22.5H7.506V20.093Zm5.822,0,1.9,12.04H19.067l-.18-2.163H17.691l-.18,2.163H14.088l1.68-12.04h4.789ZM18.8,27.842q-.238-2.049-.5-5.072c-.327,2.315-.535,4-.622,5.072Zm11.324-7.749-1.158,5.324,1.755,6.715H27.662a39.571,39.571,0,0,1-1.014-4.4c-.093.772-.215,1.581-.364,2.433l-.3,1.964H22.767l1.207-6.715-1.207-5.324h3.2c.068.333.18.887.342,1.665q.2.882.336,1.631l.71-3.3h2.766Z" fill="#c53500"/>
    </g>
  </g>
</svg>
