<svg width="16" height="14" viewBox="0 0 16 14" fill="none" xmlns="http://www.w3.org/2000/svg">
<path d="M15.766 1.62483C15.6046 1.92871 15.4068 2.21179 15.177 2.46783C14.8734 2.82303 14.5144 3.12693 14.114 3.36783C14.126 3.46183 14.1347 3.54983 14.14 3.63183C14.1568 4.88607 13.9268 6.13137 13.463 7.29683C12.7352 9.2623 11.3873 10.9374 9.623 12.0688C7.78098 13.0474 5.68118 13.4316 3.612 13.1688C2.2987 13.0558 1.04527 12.5689 0 11.7658C1.7243 11.9402 3.44939 11.4427 4.816 10.3768C4.13524 10.3585 3.47663 10.131 2.92956 9.72549C2.38249 9.31993 1.97346 8.75585 1.758 8.10983C1.98277 8.15975 2.21432 8.17159 2.443 8.14483C2.70259 8.12531 2.96074 8.08991 3.216 8.03883C2.75547 7.91419 2.32407 7.69986 1.94654 7.40814C1.56901 7.11641 1.25279 6.75303 1.016 6.33883C0.771831 5.83353 0.64663 5.27903 0.65 4.71783C1.09203 4.98373 1.59363 5.13466 2.109 5.15683C1.35699 4.58709 0.846009 3.75603 0.677 2.82783C0.63195 2.10536 0.769511 1.38316 1.077 0.727834C2.11087 1.92241 3.38895 2.88131 4.825 3.53983C5.75695 3.93451 6.75699 4.14342 7.769 4.15483C7.62321 3.30019 7.76383 2.42132 8.169 1.65483C8.63315 0.92636 9.35716 0.401854 10.194 0.187834C10.7321 0.0494211 11.2981 0.0631736 11.8289 0.227558C12.3596 0.391943 12.8343 0.7005 13.2 1.11883C13.9439 1.01099 14.6567 0.747601 15.292 0.345834C15.0671 1.12702 14.5509 1.79209 13.85 2.20383C14.508 2.08124 15.1505 1.88674 15.766 1.62383V1.62483Z" fill="#828282"/>
</svg>
