<svg width="19" height="18" viewBox="0 0 19 18" fill="none" xmlns="http://www.w3.org/2000/svg">
<path d="M4.594 3.78102V14.093M1.5 4.81202V13.062M7.688 3.78102C7.688 3.23405 7.90521 2.70947 8.29188 2.32261C8.67856 1.93575 9.20303 1.71828 9.75 1.71802H15.938C16.485 1.71828 17.0094 1.93575 17.3961 2.32261C17.7828 2.70947 18 3.23405 18 3.78102V14.093C18 14.64 17.7828 15.1646 17.3961 15.5514C17.0094 15.9383 16.485 16.1558 15.938 16.156H9.75C9.2032 16.1558 8.67888 15.9384 8.29224 15.5518C7.9056 15.1651 7.68827 14.6408 7.688 14.094V3.78102Z" stroke="#F25F29" stroke-width="2" stroke-linecap="round" stroke-linejoin="round"/>
</svg>
