<svg xmlns="http://www.w3.org/2000/svg" width="36.501" height="34.37" viewBox="0 0 36.501 34.37">
  <g id="warning-outline" transform="translate(-2.605 -3.497)">
    <path id="Path_2284" data-name="Path 2284" d="M6.468,36.743H35.242a2.7,2.7,0,0,0,2.378-3.982L23.233,6.043a2.7,2.7,0,0,0-4.758,0L4.09,32.761a2.7,2.7,0,0,0,2.378,3.982Z" transform="translate(0)" fill="none" stroke="#b70000" stroke-linecap="round" stroke-linejoin="round" stroke-width="2.25"/>
    <path id="Path_2285" data-name="Path 2285" d="M17.6,13.822l.485,10.3.484-10.295a.485.485,0,0,0-.489-.507h0a.485.485,0,0,0-.479.5Z" transform="translate(2.774 1.744)" fill="none" stroke="#b70000" stroke-linecap="round" stroke-linejoin="round" stroke-width="2.25"/>
    <path id="Path_2286" data-name="Path 2286" d="M18.282,28.5a1.688,1.688,0,1,1,1.688-1.688A1.688,1.688,0,0,1,18.282,28.5Z" transform="translate(2.573 4.111)" fill="#c00"/>
  </g>
</svg>
