<svg width="16" height="11" viewBox="0 0 16 11" fill="none" xmlns="http://www.w3.org/2000/svg">
<path fill-rule="evenodd" clip-rule="evenodd" d="M6.71565 7.68096V3.46596L10.7646 5.58096L6.71265 7.68096H6.71565ZM15.6156 2.73696C15.5438 2.19813 15.3375 1.68606 15.0156 1.24796C14.6185 0.847389 14.0797 0.619271 13.5156 0.612961C11.4166 0.459961 8.26465 0.459961 8.26465 0.459961C8.26465 0.459961 5.11665 0.459961 3.01765 0.610961C2.45363 0.617271 1.91477 0.845389 1.51765 1.24596C1.19606 1.68419 0.989742 2.1962 0.917649 2.73496C0.823377 3.53998 0.772303 4.34947 0.764648 5.15996V6.29796C0.771216 7.10939 0.821287 7.91989 0.914649 8.72596C0.986533 9.26478 1.19287 9.77684 1.51465 10.215C1.96932 10.6212 2.55503 10.8501 3.16465 10.86C4.36465 10.975 8.26465 11.01 8.26465 11.01C8.26465 11.01 11.4166 11.01 13.5156 10.854C14.0797 10.8476 14.6185 10.6195 15.0156 10.219C15.3373 9.78076 15.5436 9.26873 15.6156 8.72996C15.7087 7.92387 15.7584 7.11338 15.7646 6.30196V5.15996C15.7581 4.34853 15.708 3.53803 15.6146 2.73196L15.6156 2.73696Z" fill="#828282"/>
</svg>
